<?xml version="1.0" encoding="UTF-8"?>
<!DOCTYPE svg PUBLIC "-//W3C//DTD SVG 1.1//EN" "http://www.w3.org/Graphics/SVG/1.1/DTD/svg11.dtd">
<svg xmlns="http://www.w3.org/2000/svg" version="1.1" width="2080px" height="760px" style="shape-rendering:geometricPrecision; text-rendering:geometricPrecision; image-rendering:optimizeQuality; fill-rule:evenodd; clip-rule:evenodd" xmlns:xlink="http://www.w3.org/1999/xlink">
<g><path style="opacity:1" fill="#515153" d="M 695.5,19.5 C 609.833,20.8333 524.167,20.8333 438.5,19.5C 460.857,16.5805 483.19,13.7472 505.5,11C 474.538,11.8569 443.871,14.6903 413.5,19.5C 399.197,20.7727 385.197,23.106 371.5,26.5C 359.438,28.5157 347.438,30.849 335.5,33.5C 332.615,33.8064 329.948,33.4731 327.5,32.5C 418.887,10.2335 511.554,2.40014 605.5,9C 635.741,10.8599 665.741,14.3599 695.5,19.5 Z"/></g>
<g><path style="opacity:1" fill="#adafb2" d="M 438.5,19.5 C 431.551,20.9367 424.551,22.27 417.5,23.5C 416.766,22.2921 416.433,20.9587 416.5,19.5C 415.5,19.5 414.5,19.5 413.5,19.5C 443.871,14.6903 474.538,11.8569 505.5,11C 483.19,13.7472 460.857,16.5805 438.5,19.5 Z"/></g>
<g><path style="opacity:1" fill="#c2c3c5" d="M 413.5,19.5 C 414.5,19.5 415.5,19.5 416.5,19.5C 416.433,20.9587 416.766,22.2921 417.5,23.5C 402.876,26.0745 388.543,29.4079 374.5,33.5C 373.833,33.5 373.167,33.5 372.5,33.5C 371.631,31.283 371.298,28.9496 371.5,26.5C 385.197,23.106 399.197,20.7727 413.5,19.5 Z"/></g>
<g><path style="opacity:1" fill="#545557" d="M 438.5,19.5 C 524.167,20.8333 609.833,20.8333 695.5,19.5C 717.21,22.5749 738.543,26.9083 759.5,32.5C 713.336,33.4988 667.003,33.8321 620.5,33.5C 610.488,33.4467 600.488,33.1134 590.5,32.5C 568.833,31.1667 547.167,31.1667 525.5,32.5C 514.491,32.6005 503.491,32.9338 492.5,33.5C 453.167,33.5 413.833,33.5 374.5,33.5C 388.543,29.4079 402.876,26.0745 417.5,23.5C 424.551,22.27 431.551,20.9367 438.5,19.5 Z"/></g>
<g><path style="opacity:1" fill="#86888b" d="M 525.5,32.5 C 547.167,31.1667 568.833,31.1667 590.5,32.5C 578.167,32.5 565.833,32.5 553.5,32.5C 553.5,35.1667 553.5,37.8333 553.5,40.5C 563.015,40.1731 572.348,40.5064 581.5,41.5C 569.833,41.5 558.167,41.5 546.5,41.5C 548.265,40.5386 550.265,40.2053 552.5,40.5C 552.5,37.8333 552.5,35.1667 552.5,32.5C 543.5,32.5 534.5,32.5 525.5,32.5 Z"/></g>
<g><path style="opacity:1" fill="#5a5b5d" d="M 372.5,33.5 C 373.167,33.5 373.833,33.5 374.5,33.5C 413.833,33.5 453.167,33.5 492.5,33.5C 492.158,34.3382 491.492,34.6716 490.5,34.5C 475.725,35.2898 461.059,36.9564 446.5,39.5C 430.372,41.9927 414.372,44.9927 398.5,48.5C 373.833,48.5 349.167,48.5 324.5,48.5C 340.028,42.326 356.028,37.326 372.5,33.5 Z"/></g>
<g><path style="opacity:1" fill="#989a9d" d="M 525.5,32.5 C 534.5,32.5 543.5,32.5 552.5,32.5C 552.5,35.1667 552.5,37.8333 552.5,40.5C 550.265,40.2053 548.265,40.5386 546.5,41.5C 528.477,42.0915 510.477,43.0915 492.5,44.5C 490.598,41.6627 489.931,38.3293 490.5,34.5C 491.492,34.6716 492.158,34.3382 492.5,33.5C 503.491,32.9338 514.491,32.6005 525.5,32.5 Z"/></g>
<g><path style="opacity:1" fill="#a7a9ac" d="M 590.5,32.5 C 600.488,33.1134 610.488,33.4467 620.5,33.5C 623.5,34.1667 626.5,34.8333 629.5,35.5C 629.5,38.1667 629.5,40.8333 629.5,43.5C 613.545,41.9383 597.545,41.2716 581.5,41.5C 572.348,40.5064 563.015,40.1731 553.5,40.5C 553.5,37.8333 553.5,35.1667 553.5,32.5C 565.833,32.5 578.167,32.5 590.5,32.5 Z"/></g>
<g><path style="opacity:1" fill="#8e9093" d="M 490.5,34.5 C 489.931,38.3293 490.598,41.6627 492.5,44.5C 477.953,46.3867 463.287,48.3867 448.5,50.5C 446.586,47.3157 445.92,43.649 446.5,39.5C 461.059,36.9564 475.725,35.2898 490.5,34.5 Z"/></g>
<g><path style="opacity:1" fill="#d9dadc" d="M 371.5,26.5 C 371.298,28.9496 371.631,31.283 372.5,33.5C 356.028,37.326 340.028,42.326 324.5,48.5C 321.5,49.1667 318.5,49.8333 315.5,50.5C 316.069,46.6707 315.402,43.3373 313.5,40.5C 320.838,38.165 328.171,35.8317 335.5,33.5C 347.438,30.849 359.438,28.5157 371.5,26.5 Z"/></g>
<g><path style="opacity:1" fill="#b5b7ba" d="M 629.5,35.5 C 658.401,37.1541 686.734,41.4874 714.5,48.5C 714.5,50.8333 714.5,53.1667 714.5,55.5C 686.433,49.6871 658.099,45.6871 629.5,43.5C 629.5,40.8333 629.5,38.1667 629.5,35.5 Z"/></g>
<g><path style="opacity:1" fill="#5f6062" d="M 546.5,41.5 C 558.167,41.5 569.833,41.5 581.5,41.5C 597.545,41.2716 613.545,41.9383 629.5,43.5C 658.099,45.6871 686.433,49.6871 714.5,55.5C 720.467,56.9601 726.467,58.2934 732.5,59.5C 726.69,60.4896 720.69,60.8229 714.5,60.5C 618.158,41.8438 521.824,41.8438 425.5,60.5C 419.642,60.8222 413.975,60.4889 408.5,59.5C 421.939,56.4528 435.272,53.4528 448.5,50.5C 463.287,48.3867 477.953,46.3867 492.5,44.5C 510.477,43.0915 528.477,42.0915 546.5,41.5 Z"/></g>
<g><path style="opacity:1" fill="#5d5e60" d="M 759.5,32.5 C 788.783,39.0387 817.116,48.3721 844.5,60.5C 844.611,61.1174 844.944,61.6174 845.5,62C 819.835,62.5 794.169,62.6666 768.5,62.5C 750.774,56.8144 732.774,52.1477 714.5,48.5C 686.734,41.4874 658.401,37.1541 629.5,35.5C 626.5,34.8333 623.5,34.1667 620.5,33.5C 667.003,33.8321 713.336,33.4988 759.5,32.5 Z"/></g>
<g><path style="opacity:0.925" fill="#606163" d="M 327.5,32.5 C 329.948,33.4731 332.615,33.8064 335.5,33.5C 328.171,35.8317 320.838,38.165 313.5,40.5C 291.154,46.8376 269.154,54.171 247.5,62.5C 244.167,62.5 240.833,62.5 237.5,62.5C 266.533,49.9334 296.533,39.9334 327.5,32.5 Z"/></g>
<g><path style="opacity:1" fill="#606163" d="M 324.5,48.5 C 349.167,48.5 373.833,48.5 398.5,48.5C 387.45,51.3505 376.45,54.6838 365.5,58.5C 363.254,59.4552 360.921,60.1218 358.5,60.5C 336.327,60.8307 314.327,60.4974 292.5,59.5C 300.346,56.7357 308.012,53.7357 315.5,50.5C 318.5,49.8333 321.5,49.1667 324.5,48.5 Z"/></g>
<g><path style="opacity:1" fill="#f0f0f1" d="M 313.5,40.5 C 315.402,43.3373 316.069,46.6707 315.5,50.5C 308.012,53.7357 300.346,56.7357 292.5,59.5C 274.883,66.9259 257.55,74.9259 240.5,83.5C 239.511,78.0247 239.178,72.358 239.5,66.5C 242.328,65.3447 244.995,64.0114 247.5,62.5C 269.154,54.171 291.154,46.8376 313.5,40.5 Z"/></g>
<g><path style="opacity:1" fill="#828487" d="M 446.5,39.5 C 445.92,43.649 446.586,47.3157 448.5,50.5C 435.272,53.4528 421.939,56.4528 408.5,59.5C 394.161,63.5836 380.161,68.5836 366.5,74.5C 365.512,69.3595 365.179,64.0262 365.5,58.5C 376.45,54.6838 387.45,51.3505 398.5,48.5C 414.372,44.9927 430.372,41.9927 446.5,39.5 Z"/></g>
<g><path style="opacity:0.947" fill="#67686a" d="M 408.5,59.5 C 413.975,60.4889 419.642,60.8222 425.5,60.5C 411.813,64.1782 398.146,68.3449 384.5,73C 374.007,77.4118 364.007,82.5784 354.5,88.5C 352.631,87.8354 350.631,87.1687 348.5,86.5C 354.218,81.9816 360.218,77.9816 366.5,74.5C 380.161,68.5836 394.161,63.5836 408.5,59.5 Z"/></g>
<g><path style="opacity:1" fill="#696a6c" d="M 732.5,59.5 C 755.601,65.4224 778.268,72.7557 800.5,81.5C 803.618,82.5587 806.618,83.8921 809.5,85.5C 806.038,86.4816 802.371,86.815 798.5,86.5C 771.095,75.5851 743.095,66.9184 714.5,60.5C 720.69,60.8229 726.69,60.4896 732.5,59.5 Z"/></g>
<g><path style="opacity:1" fill="#c6c7c9" d="M 714.5,48.5 C 732.774,52.1477 750.774,56.8144 768.5,62.5C 779.668,66.3768 790.668,70.7102 801.5,75.5C 799.155,76.9879 798.821,78.9879 800.5,81.5C 778.268,72.7557 755.601,65.4224 732.5,59.5C 726.467,58.2934 720.467,56.9601 714.5,55.5C 714.5,53.1667 714.5,50.8333 714.5,48.5 Z"/></g>
<g><path style="opacity:1" fill="#797a7d" d="M 365.5,58.5 C 365.179,64.0262 365.512,69.3595 366.5,74.5C 360.218,77.9816 354.218,81.9816 348.5,86.5C 350.631,87.1687 352.631,87.8354 354.5,88.5C 350.392,92.1135 347.225,96.4469 345,101.5C 342.724,109.683 344.39,117.017 350,123.5C 355.429,129.768 361.596,135.101 368.5,139.5C 335.502,139.604 302.502,140.604 269.5,142.5C 257.345,141.505 245.011,141.171 232.5,141.5C 258.583,138.005 284.916,135.671 311.5,134.5C 311.403,118.602 311.737,102.935 312.5,87.5C 326.289,75.9363 341.622,66.9363 358.5,60.5C 360.921,60.1218 363.254,59.4552 365.5,58.5 Z"/></g>
<g><path style="opacity:1" fill="#dedfe0" d="M 239.5,66.5 C 239.178,72.358 239.511,78.0247 240.5,83.5C 239.205,84.4884 237.872,85.4884 236.5,86.5C 233.661,88.4203 230.661,90.0869 227.5,91.5C 227.5,84.8333 227.5,78.1667 227.5,71.5C 231.495,69.8346 235.495,68.1679 239.5,66.5 Z"/></g>
<g><path style="opacity:1" fill="#6a6b6e" d="M 844.5,60.5 C 863.59,68.5442 881.923,77.8776 899.5,88.5C 878.006,89.4973 856.34,89.8307 834.5,89.5C 823.585,84.5401 812.585,79.8735 801.5,75.5C 790.668,70.7102 779.668,66.3768 768.5,62.5C 794.169,62.6666 819.835,62.5 845.5,62C 844.944,61.6174 844.611,61.1174 844.5,60.5 Z"/></g>
<g><path style="opacity:1" fill="#c9cacc" d="M 227.5,71.5 C 227.5,78.1667 227.5,84.8333 227.5,91.5C 220.041,96.7354 212.374,101.735 204.5,106.5C 203.508,99.0182 203.175,91.3516 203.5,83.5C 211.221,78.9728 219.221,74.9728 227.5,71.5 Z"/></g>
<g><path style="opacity:0.999" fill="#696a6c" d="M 292.5,59.5 C 314.327,60.4974 336.327,60.8307 358.5,60.5C 341.622,66.9363 326.289,75.9363 312.5,87.5C 286.995,87.8311 261.661,87.4977 236.5,86.5C 237.872,85.4884 239.205,84.4884 240.5,83.5C 257.55,74.9259 274.883,66.9259 292.5,59.5 Z"/></g>
<g><path style="opacity:1" fill="#babbbe" d="M 203.5,83.5 C 203.175,91.3516 203.508,99.0182 204.5,106.5C 201.681,109.075 198.681,111.408 195.5,113.5C 194.833,113.833 194.167,114.167 193.5,114.5C 192.507,106.35 192.174,98.0168 192.5,89.5C 196.007,87.246 199.673,85.246 203.5,83.5 Z"/></g>
<g><path style="opacity:1" fill="#717275" d="M 236.5,86.5 C 261.661,87.4977 286.995,87.8311 312.5,87.5C 311.737,102.935 311.403,118.602 311.5,134.5C 284.916,135.671 258.583,138.005 232.5,141.5C 231.167,141.5 229.833,141.5 228.5,141.5C 225.903,141.279 225.903,140.779 228.5,140C 250.192,133.807 270.859,125.474 290.5,115C 258.664,114.832 226.997,114.332 195.5,113.5C 198.681,111.408 201.681,109.075 204.5,106.5C 212.374,101.735 220.041,96.7354 227.5,91.5C 230.661,90.0869 233.661,88.4203 236.5,86.5 Z"/></g>
<g><path style="opacity:0.999" fill="#6d6e71" d="M 237.5,62.5 C 240.833,62.5 244.167,62.5 247.5,62.5C 244.995,64.0114 242.328,65.3447 239.5,66.5C 235.495,68.1679 231.495,69.8346 227.5,71.5C 219.221,74.9728 211.221,78.9728 203.5,83.5C 199.673,85.246 196.007,87.246 192.5,89.5C 188.5,91.8333 184.5,94.1667 180.5,96.5C 172.783,101.018 165.449,106.018 158.5,111.5C 153.91,113.762 149.91,116.762 146.5,120.5C 144.804,120.685 143.471,121.519 142.5,123C 138.118,123.292 133.785,123.792 129.5,124.5C 162.01,98.2297 198.01,77.563 237.5,62.5 Z"/></g>
<g><path style="opacity:1" fill="#abadb0" d="M 192.5,89.5 C 192.174,98.0168 192.507,106.35 193.5,114.5C 189.386,118.064 185.052,121.397 180.5,124.5C 180.5,115.167 180.5,105.833 180.5,96.5C 184.5,94.1667 188.5,91.8333 192.5,89.5 Z"/></g>
<g><path style="opacity:1" fill="#d9dadb" d="M 801.5,75.5 C 812.585,79.8735 823.585,84.5401 834.5,89.5C 852.003,98.1163 869.336,107.116 886.5,116.5C 895.477,122.467 904.477,128.467 913.5,134.5C 914.694,135.272 915.694,136.272 916.5,137.5C 915.539,139.265 915.205,141.265 915.5,143.5C 913.772,141.774 911.772,140.441 909.5,139.5C 878.02,118.421 844.687,100.421 809.5,85.5C 806.618,83.8921 803.618,82.5587 800.5,81.5C 798.821,78.9879 799.155,76.9879 801.5,75.5 Z"/></g>
<g><path style="opacity:1" fill="#747578" d="M 899.5,88.5 C 913.984,96.3286 927.651,105.329 940.5,115.5C 922.674,116.497 904.674,116.83 886.5,116.5C 869.336,107.116 852.003,98.1163 834.5,89.5C 856.34,89.8307 878.006,89.4973 899.5,88.5 Z"/></g>
<g><path style="opacity:1" fill="#989a9d" d="M 180.5,96.5 C 180.5,105.833 180.5,115.167 180.5,124.5C 173.869,129.796 167.535,135.463 161.5,141.5C 160.833,141.833 160.167,142.167 159.5,142.5C 159.797,132.295 159.464,121.961 158.5,111.5C 165.449,106.018 172.783,101.018 180.5,96.5 Z"/></g>
<g><path style="opacity:1" fill="#8b8d90" d="M 158.5,111.5 C 159.464,121.961 159.797,132.295 159.5,142.5C 157.063,144.433 154.729,146.6 152.5,149C 150.553,149.991 148.553,150.325 146.5,150C 147.829,140.069 147.829,130.235 146.5,120.5C 149.91,116.762 153.91,113.762 158.5,111.5 Z"/></g>
<g><path style="opacity:1" fill="#7b7c7f" d="M 940.5,115.5 C 948.24,121.032 955.574,127.032 962.5,133.5C 946.342,134.496 930.009,134.83 913.5,134.5C 904.477,128.467 895.477,122.467 886.5,116.5C 904.674,116.83 922.674,116.497 940.5,115.5 Z"/></g>
<g><path style="opacity:0.998" fill="#7b7c7f" d="M 809.5,85.5 C 844.687,100.421 878.02,118.421 909.5,139.5C 907.052,140.473 904.385,140.806 901.5,140.5C 868.768,119.632 834.435,101.632 798.5,86.5C 802.371,86.815 806.038,86.4816 809.5,85.5 Z"/></g>
<g><path style="opacity:1" fill="#797a7d" d="M 129.5,124.5 C 132.305,125.319 135.305,125.819 138.5,126C 137.167,127 135.833,128 134.5,129C 135.647,136.754 135.814,144.587 135,152.5C 132.929,153.525 130.762,154.358 128.5,155C 143.83,155.5 159.163,155.667 174.5,155.5C 171.727,156.657 168.727,157.324 165.5,157.5C 152.474,156.807 139.307,156.141 126,155.5C 121.804,156.757 117.637,158.09 113.5,159.5C 112.205,155.62 112.205,151.786 113.5,148C 110.183,147.502 106.85,147.335 103.5,147.5C 111.374,138.903 120.041,131.236 129.5,124.5 Z"/></g>
<g><path style="opacity:1" fill="#7a7b7e" d="M 195.5,113.5 C 226.997,114.332 258.664,114.832 290.5,115C 270.859,125.474 250.192,133.807 228.5,140C 225.903,140.779 225.903,141.279 228.5,141.5C 206.367,141.56 184.034,141.56 161.5,141.5C 167.535,135.463 173.869,129.796 180.5,124.5C 185.052,121.397 189.386,118.064 193.5,114.5C 194.167,114.167 194.833,113.833 195.5,113.5 Z"/></g>
<g><path style="opacity:1" fill="#808285" d="M 146.5,120.5 C 147.829,130.235 147.829,140.069 146.5,150C 148.553,150.325 150.553,149.991 152.5,149C 154.729,146.6 157.063,144.433 159.5,142.5C 160.167,142.167 160.833,141.833 161.5,141.5C 184.034,141.56 206.367,141.56 228.5,141.5C 229.833,141.5 231.167,141.5 232.5,141.5C 245.011,141.171 257.345,141.505 269.5,142.5C 237.645,145.44 205.978,149.774 174.5,155.5C 159.163,155.667 143.83,155.5 128.5,155C 130.762,154.358 132.929,153.525 135,152.5C 135.814,144.587 135.647,136.754 134.5,129C 135.833,128 137.167,127 138.5,126C 135.305,125.819 132.305,125.319 129.5,124.5C 133.785,123.792 138.118,123.292 142.5,123C 143.471,121.519 144.804,120.685 146.5,120.5 Z"/></g>
<g><path style="opacity:0.999" fill="#838487" d="M 962.5,133.5 C 970.466,139.798 977.799,146.798 984.5,154.5C 969.676,155.496 954.676,155.829 939.5,155.5C 932.377,148.776 924.711,142.776 916.5,137.5C 915.694,136.272 914.694,135.272 913.5,134.5C 930.009,134.83 946.342,134.496 962.5,133.5 Z"/></g>
<g><path style="opacity:1" fill="#848588" d="M 103.5,147.5 C 106.85,147.335 110.183,147.502 113.5,148C 112.205,151.786 112.205,155.62 113.5,159.5C 117.637,158.09 121.804,156.757 126,155.5C 139.307,156.141 152.474,156.807 165.5,157.5C 133.397,164.201 102.063,173.534 71.5,185.5C 70.479,184.998 70.3123,184.332 71,183.5C 80.6805,170.483 91.5139,158.483 103.5,147.5 Z"/></g>
<g><path style="opacity:1" fill="#636466" d="M 110.5,150.5 C 111.479,153.625 111.813,156.958 111.5,160.5C 108.801,160.466 106.301,161.133 104,162.5C 103.313,160.432 103.48,158.432 104.5,156.5C 106.854,154.812 108.854,152.812 110.5,150.5 Z"/></g>
<g><path style="opacity:1" fill="#3aaee3" d="M 293.5,165.5 C 301.984,164.507 310.651,164.174 319.5,164.5C 322.833,164.5 326.167,164.5 329.5,164.5C 329.567,165.959 329.234,167.292 328.5,168.5C 320.771,168.688 313.104,169.354 305.5,170.5C 305.5,168.833 305.5,167.167 305.5,165.5C 301.5,165.5 297.5,165.5 293.5,165.5 Z"/></g>
<g><path style="opacity:1" fill="#03a0de" d="M 319.5,164.5 C 336.678,163.263 354.011,163.263 371.5,164.5C 368.572,165.82 365.239,166.486 361.5,166.5C 350.475,166.957 339.475,167.624 328.5,168.5C 329.234,167.292 329.567,165.959 329.5,164.5C 326.167,164.5 322.833,164.5 319.5,164.5 Z"/></g>
<g><path style="opacity:0.94" fill="#0b96da" d="M 293.5,165.5 C 290.5,166.167 287.5,166.833 284.5,167.5C 270.594,168.765 256.927,170.765 243.5,173.5C 236.289,174.343 229.289,175.677 222.5,177.5C 215.803,178.184 209.469,179.85 203.5,182.5C 195.906,183.804 188.906,186.471 182.5,190.5C 179.911,191.419 177.911,193.086 176.5,195.5C 167.218,197.086 157.885,197.586 148.5,197C 145.085,195.857 144.751,194.19 147.5,192C 152.243,188.962 157.243,186.462 162.5,184.5C 164.565,184.047 166.232,183.047 167.5,181.5C 209.034,172.558 251.034,167.225 293.5,165.5 Z"/></g>
<g><path style="opacity:0.988" fill="#0395da" d="M 371.5,164.5 C 426.539,165.948 480.873,172.281 534.5,183.5C 477.17,184.187 419.837,184.687 362.5,185C 346.618,185.324 330.952,186.491 315.5,188.5C 309.291,189.021 303.291,190.021 297.5,191.5C 292.588,191.898 287.921,192.898 283.5,194.5C 280.557,194.98 277.89,195.98 275.5,197.5C 272.081,199.087 268.415,199.753 264.5,199.5C 245.517,198.24 226.517,197.24 207.5,196.5C 213.151,193.008 219.151,190.008 225.5,187.5C 232.327,184.708 239.327,182.375 246.5,180.5C 259.058,177.189 271.725,174.522 284.5,172.5C 291.492,171.751 298.492,171.084 305.5,170.5C 313.104,169.354 320.771,168.688 328.5,168.5C 339.475,167.624 350.475,166.957 361.5,166.5C 365.239,166.486 368.572,165.82 371.5,164.5 Z"/></g>
<g><path style="opacity:1" fill="#61b8e7" d="M 293.5,165.5 C 297.5,165.5 301.5,165.5 305.5,165.5C 305.5,167.167 305.5,168.833 305.5,170.5C 298.492,171.084 291.492,171.751 284.5,172.5C 284.5,170.833 284.5,169.167 284.5,167.5C 287.5,166.833 290.5,166.167 293.5,165.5 Z"/></g>
<g><path style="opacity:0.992" fill="#8a8c8f" d="M 984.5,154.5 C 989.801,159.971 994.967,165.638 1000,171.5C 1002.44,174.72 1004.6,178.053 1006.5,181.5C 993.01,182.496 979.344,182.829 965.5,182.5C 957.506,172.84 948.839,163.84 939.5,155.5C 954.676,155.829 969.676,155.496 984.5,154.5 Z"/></g>
<g><path style="opacity:1" fill="#94cbee" d="M 284.5,167.5 C 284.5,169.167 284.5,170.833 284.5,172.5C 271.725,174.522 259.058,177.189 246.5,180.5C 246.5,178.167 246.5,175.833 246.5,173.5C 245.5,173.5 244.5,173.5 243.5,173.5C 256.927,170.765 270.594,168.765 284.5,167.5 Z"/></g>
<g><path style="opacity:1" fill="#b3d8f3" d="M 243.5,173.5 C 244.5,173.5 245.5,173.5 246.5,173.5C 246.5,175.833 246.5,178.167 246.5,180.5C 239.327,182.375 232.327,184.708 225.5,187.5C 225.5,184.167 225.5,180.833 225.5,177.5C 224.5,177.5 223.5,177.5 222.5,177.5C 229.289,175.677 236.289,174.343 243.5,173.5 Z"/></g>
<g><path style="opacity:1" fill="#c7e1f6" d="M 222.5,177.5 C 223.5,177.5 224.5,177.5 225.5,177.5C 225.5,180.833 225.5,184.167 225.5,187.5C 219.151,190.008 213.151,193.008 207.5,196.5C 206.5,196.5 205.5,196.5 204.5,196.5C 204.819,191.637 204.486,186.97 203.5,182.5C 209.469,179.85 215.803,178.184 222.5,177.5 Z"/></g>
<g><path style="opacity:0.922" fill="#9ccdef" d="M 167.5,181.5 C 166.232,183.047 164.565,184.047 162.5,184.5C 162.158,183.662 161.492,183.328 160.5,183.5C 162.657,182.593 164.99,181.927 167.5,181.5 Z"/></g>
<g><path style="opacity:1" fill="#009adb" d="M 534.5,183.5 C 534.833,183.5 535.167,183.5 535.5,183.5C 536.635,185.213 538.302,185.88 540.5,185.5C 541.514,186.674 542.847,187.34 544.5,187.5C 468.335,188.499 392.002,188.833 315.5,188.5C 330.952,186.491 346.618,185.324 362.5,185C 419.837,184.687 477.17,184.187 534.5,183.5 Z"/></g>
<g><path style="opacity:1" fill="#f7f9fd" d="M 160.5,183.5 C 161.492,183.328 162.158,183.662 162.5,184.5C 157.243,186.462 152.243,188.962 147.5,192C 144.751,194.19 145.085,195.857 148.5,197C 157.885,197.586 167.218,197.086 176.5,195.5C 177.911,193.086 179.911,191.419 182.5,190.5C 183.461,192.265 183.795,194.265 183.5,196.5C 190.5,196.5 197.5,196.5 204.5,196.5C 205.5,196.5 206.5,196.5 207.5,196.5C 226.517,197.24 245.517,198.24 264.5,199.5C 266.607,200.468 268.941,200.802 271.5,200.5C 279.634,201.998 287.968,202.998 296.5,203.5C 303.301,204.948 310.301,205.948 317.5,206.5C 324.951,208.354 332.618,209.687 340.5,210.5C 344.942,211.99 349.609,212.99 354.5,213.5C 362.928,215.734 371.428,218.068 380,220.5C 385.082,219.363 390.249,219.196 395.5,220C 396.264,222.069 396.764,224.236 397,226.5C 398.223,217.478 399.223,217.811 400,227.5C 401.181,215.821 402.181,216.154 403,228.5C 403.175,224.789 403.675,221.122 404.5,217.5C 405.382,222.066 405.715,226.4 405.5,230.5C 406.167,225.833 406.833,221.167 407.5,216.5C 408.167,222.654 408.833,228.654 409.5,234.5C 409.919,237.325 408.919,239.491 406.5,241C 403.673,242.664 400.673,243.83 397.5,244.5C 398.511,242.598 398.678,240.598 398,238.5C 393.046,233.603 387.213,230.103 380.5,228C 358.354,220.463 335.687,215.13 312.5,212C 256.116,202.79 199.449,200.29 142.5,204.5C 140.833,204.5 139.167,204.5 137.5,204.5C 137.218,199.073 137.551,193.74 138.5,188.5C 145.759,186.519 153.093,184.852 160.5,183.5 Z"/></g>
<g><path style="opacity:1" fill="#d5e9f8" d="M 203.5,182.5 C 204.486,186.97 204.819,191.637 204.5,196.5C 197.5,196.5 190.5,196.5 183.5,196.5C 183.795,194.265 183.461,192.265 182.5,190.5C 188.906,186.471 195.906,183.804 203.5,182.5 Z"/></g>
<g><path style="opacity:0.686" fill="#a1cfef" d="M 535.5,183.5 C 538.428,183.565 541.095,184.232 543.5,185.5C 542.5,185.5 541.5,185.5 540.5,185.5C 538.302,185.88 536.635,185.213 535.5,183.5 Z"/></g>
<g><path style="opacity:1" fill="#f9fbfd" d="M 540.5,185.5 C 541.5,185.5 542.5,185.5 543.5,185.5C 576.708,191.793 609.375,200.127 641.5,210.5C 641.5,226.167 641.5,241.833 641.5,257.5C 635.016,258.117 628.683,259.117 622.5,260.5C 614.89,260.989 607.556,262.322 600.5,264.5C 593.238,265.087 586.238,266.42 579.5,268.5C 570.216,269.754 561.216,271.754 552.5,274.5C 545.573,275.565 538.906,277.232 532.5,279.5C 520.142,281.92 508.142,285.253 496.5,289.5C 489.557,290.898 482.891,292.898 476.5,295.5C 452.496,302.277 429.163,310.61 406.5,320.5C 391.25,326.25 376.25,332.583 361.5,339.5C 351.187,343.99 341.187,348.99 331.5,354.5C 315.212,362.31 299.212,370.644 283.5,379.5C 280.46,380.68 277.794,382.347 275.5,384.5C 269.995,386.749 264.995,389.749 260.5,393.5C 212.935,421.736 167.269,452.736 123.5,486.5C 105.326,486.83 87.3256,486.497 69.5,485.5C 78.3996,472.599 88.3996,460.599 99.5,449.5C 100.493,457.984 100.826,466.651 100.5,475.5C 103.881,475.54 107.214,475.207 110.5,474.5C 117.282,473.131 123.615,470.798 129.5,467.5C 132.485,466.674 135.151,465.341 137.5,463.5C 142.709,461.281 147.376,458.281 151.5,454.5C 154.81,452.518 157.81,450.185 160.5,447.5C 166.538,443.155 172.538,438.821 178.5,434.5C 181.709,432.735 184.709,430.735 187.5,428.5C 190.473,426.853 193.14,424.853 195.5,422.5C 201.104,419.555 206.438,416.221 211.5,412.5C 216.709,409.402 221.709,406.068 226.5,402.5C 231.767,399.89 236.767,396.89 241.5,393.5C 251.646,387.592 261.979,381.925 272.5,376.5C 274.001,375.248 275.668,374.248 277.5,373.5C 281.864,371.656 285.864,369.323 289.5,366.5C 292.622,365.439 295.622,364.105 298.5,362.5C 303.14,360.18 307.807,357.847 312.5,355.5C 313.48,352.914 313.813,350.247 313.5,347.5C 316.462,348.061 319.295,349.061 322,350.5C 331.768,345.699 341.602,341.033 351.5,336.5C 354.618,335.441 357.618,334.108 360.5,332.5C 369.71,328.363 378.71,324.696 387.5,321.5C 388.176,320.398 388.842,319.398 389.5,318.5C 390.15,318.804 390.817,319.137 391.5,319.5C 430.623,303.181 470.623,289.348 511.5,278C 545.991,269.436 580.657,261.769 615.5,255C 623.925,252.417 628.925,246.917 630.5,238.5C 627.825,228.488 621.825,221.154 612.5,216.5C 606.093,210.96 598.759,206.96 590.5,204.5C 587.48,202.323 584.147,200.657 580.5,199.5C 577.828,198.499 575.162,197.499 572.5,196.5C 569.574,195.302 566.574,194.302 563.5,193.5C 560.452,192.654 557.452,191.654 554.5,190.5C 551.15,189.497 547.817,188.497 544.5,187.5C 542.847,187.34 541.514,186.674 540.5,185.5 Z"/></g>
<g><path style="opacity:1" fill="#01a0de" d="M 544.5,187.5 C 547.817,188.497 551.15,189.497 554.5,190.5C 469.002,191.499 383.335,191.833 297.5,191.5C 303.291,190.021 309.291,189.021 315.5,188.5C 392.002,188.833 468.335,188.499 544.5,187.5 Z"/></g>
<g><path style="opacity:0.967" fill="#919396" d="M 1006.5,181.5 C 1045.37,234.017 1056.2,292.017 1039,355.5C 1027.36,393.548 1009.19,427.881 984.5,458.5C 980.366,457.515 976.032,457.182 971.5,457.5C 993.631,430.928 1011.46,401.595 1025,369.5C 1035.76,342.196 1040.76,313.862 1040,284.5C 1038.22,320.968 1028.39,354.968 1010.5,386.5C 1010.5,322.5 1010.5,258.5 1010.5,194.5C 998.833,194.5 987.167,194.5 975.5,194.5C 972.177,190.54 968.844,186.54 965.5,182.5C 979.344,182.829 993.01,182.496 1006.5,181.5 Z"/></g>
<g><path style="opacity:1" fill="#dcebf8" d="M 138.5,188.5 C 137.551,193.74 137.218,199.073 137.5,204.5C 139.167,204.5 140.833,204.5 142.5,204.5C 139.038,205.482 135.371,205.815 131.5,205.5C 131.5,200.5 131.5,195.5 131.5,190.5C 133.772,189.681 136.106,189.015 138.5,188.5 Z"/></g>
<g><path style="opacity:1" fill="#09a6e0" d="M 554.5,190.5 C 557.452,191.654 560.452,192.654 563.5,193.5C 470.335,194.499 377.001,194.833 283.5,194.5C 287.921,192.898 292.588,191.898 297.5,191.5C 383.335,191.833 469.002,191.499 554.5,190.5 Z"/></g>
<g><path style="opacity:1" fill="#b9dbf4" d="M 131.5,190.5 C 131.5,195.5 131.5,200.5 131.5,205.5C 129.735,206.461 127.735,206.795 125.5,206.5C 123.833,206.5 122.167,206.5 120.5,206.5C 120.5,202.167 120.5,197.833 120.5,193.5C 124.095,192.303 127.761,191.303 131.5,190.5 Z"/></g>
<g><path style="opacity:0.974" fill="#8e9093" d="M 909.5,139.5 C 911.772,140.441 913.772,141.774 915.5,143.5C 942.501,161.667 965.001,184.334 983,211.5C 988.135,220.103 992.468,229.103 996,238.5C 996.667,236.833 996.667,235.167 996,233.5C 990.713,219.588 983.88,206.588 975.5,194.5C 987.167,194.5 998.833,194.5 1010.5,194.5C 1010.5,258.5 1010.5,322.5 1010.5,386.5C 996.937,412.389 980.271,436.055 960.5,457.5C 940.833,457.5 921.167,457.5 901.5,457.5C 924.87,436.963 946.37,414.63 966,390.5C 978.561,372.384 987.561,352.717 993,331.5C 982.622,355.938 968.955,378.272 952,398.5C 933.261,420.407 912.761,440.407 890.5,458.5C 890.389,457.883 890.056,457.383 889.5,457C 886.635,456.817 883.969,456.317 881.5,455.5C 911.585,431.249 938.085,403.583 961,372.5C 1012.23,300.542 1006.06,234.042 942.5,173C 929.492,161.184 915.825,150.351 901.5,140.5C 904.385,140.806 907.052,140.473 909.5,139.5 Z"/></g>
<g><path style="opacity:1" fill="#2bade3" d="M 563.5,193.5 C 566.574,194.302 569.574,195.302 572.5,196.5C 473.668,197.499 374.668,197.833 275.5,197.5C 277.89,195.98 280.557,194.98 283.5,194.5C 377.001,194.833 470.335,194.499 563.5,193.5 Z"/></g>
<g><path style="opacity:1" fill="#8ec7ec" d="M 120.5,193.5 C 120.5,197.833 120.5,202.167 120.5,206.5C 122.167,206.5 123.833,206.5 125.5,206.5C 120.04,207.737 114.373,208.404 108.5,208.5C 108.5,204.833 108.5,201.167 108.5,197.5C 112.215,195.595 116.215,194.262 120.5,193.5 Z"/></g>
<g><path style="opacity:1" fill="#51b3e5" d="M 572.5,196.5 C 575.162,197.499 577.828,198.499 580.5,199.5C 477.668,200.499 374.668,200.833 271.5,200.5C 268.941,200.802 266.607,200.468 264.5,199.5C 268.415,199.753 272.081,199.087 275.5,197.5C 374.668,197.833 473.668,197.499 572.5,196.5 Z"/></g>
<g><path style="opacity:1" fill="#57b4e5" d="M 108.5,197.5 C 108.5,201.167 108.5,204.833 108.5,208.5C 104.642,209.294 100.642,209.96 96.5,210.5C 96.81,207.287 96.4767,204.287 95.5,201.5C 99.5015,199.411 103.835,198.078 108.5,197.5 Z"/></g>
<g><path style="opacity:1" fill="#2864b0" d="M 397.5,244.5 C 390.558,248.036 383.224,250.37 375.5,251.5C 344.474,236.739 311.807,227.239 277.5,223C 223.286,215.613 168.953,214.613 114.5,220C 99.1943,221.69 84.0276,224.19 69,227.5C 68.5,227.167 68,226.833 67.5,226.5C 70.0256,221.429 73.0256,216.762 76.5,212.5C 83.1969,212.115 89.8635,211.448 96.5,210.5C 100.642,209.96 104.642,209.294 108.5,208.5C 114.373,208.404 120.04,207.737 125.5,206.5C 127.735,206.795 129.735,206.461 131.5,205.5C 135.371,205.815 139.038,205.482 142.5,204.5C 199.449,200.29 256.116,202.79 312.5,212C 335.687,215.13 358.354,220.463 380.5,228C 387.213,230.103 393.046,233.603 398,238.5C 398.678,240.598 398.511,242.598 397.5,244.5 Z"/></g>
<g><path style="opacity:1" fill="#66b9e8" d="M 580.5,199.5 C 584.147,200.657 587.48,202.323 590.5,204.5C 582.208,203.593 573.875,203.26 565.5,203.5C 549.008,202.503 532.342,202.17 515.5,202.5C 515.5,207.833 515.5,213.167 515.5,218.5C 508.663,219.369 501.663,220.036 494.5,220.5C 494.807,214.907 494.473,209.407 493.5,204C 427.834,203.5 362.168,203.333 296.5,203.5C 287.968,202.998 279.634,201.998 271.5,200.5C 374.668,200.833 477.668,200.499 580.5,199.5 Z"/></g>
<g><path style="opacity:1" fill="#7ec1ea" d="M 296.5,203.5 C 362.168,203.333 427.834,203.5 493.5,204C 494.473,209.407 494.807,214.907 494.5,220.5C 490.5,220.833 486.5,221.167 482.5,221.5C 482.5,216.167 482.5,210.833 482.5,205.5C 477.807,205.54 473.141,205.873 468.5,206.5C 466.5,206.5 464.5,206.5 462.5,206.5C 414.167,206.5 365.833,206.5 317.5,206.5C 310.301,205.948 303.301,204.948 296.5,203.5 Z"/></g>
<g><path style="opacity:1" fill="#34ade3" d="M 565.5,203.5 C 561.833,203.5 558.167,203.5 554.5,203.5C 554.5,207.833 554.5,212.167 554.5,216.5C 541.52,217.42 528.52,218.086 515.5,218.5C 515.5,213.167 515.5,207.833 515.5,202.5C 532.342,202.17 549.008,202.503 565.5,203.5 Z"/></g>
<g><path style="opacity:1" fill="#06a0de" d="M 565.5,203.5 C 573.875,203.26 582.208,203.593 590.5,204.5C 598.759,206.96 606.093,210.96 612.5,216.5C 593.167,216.5 573.833,216.5 554.5,216.5C 554.5,212.167 554.5,207.833 554.5,203.5C 558.167,203.5 561.833,203.5 565.5,203.5 Z"/></g>
<g><path style="opacity:1" fill="#15a3de" d="M 95.5,201.5 C 96.4767,204.287 96.81,207.287 96.5,210.5C 89.8635,211.448 83.1969,212.115 76.5,212.5C 81.0573,206.046 87.3906,202.379 95.5,201.5 Z"/></g>
<g><path style="opacity:1" fill="#96cbee" d="M 482.5,221.5 C 477.436,221.795 472.436,222.462 467.5,223.5C 468.452,217.925 468.786,212.259 468.5,206.5C 473.141,205.873 477.807,205.54 482.5,205.5C 482.5,210.833 482.5,216.167 482.5,221.5 Z"/></g>
<g><path style="opacity:1" fill="#aed6f2" d="M 462.5,206.5 C 464.5,206.5 466.5,206.5 468.5,206.5C 468.786,212.259 468.452,217.925 467.5,223.5C 458.835,224.5 450.169,225.5 441.5,226.5C 441.5,220.833 441.5,215.167 441.5,209.5C 448.674,208.761 455.674,207.761 462.5,206.5 Z"/></g>
<g><path style="opacity:1" fill="#ececed" d="M 916.5,137.5 C 924.711,142.776 932.377,148.776 939.5,155.5C 948.839,163.84 957.506,172.84 965.5,182.5C 968.844,186.54 972.177,190.54 975.5,194.5C 983.88,206.588 990.713,219.588 996,233.5C 996.667,235.167 996.667,236.833 996,238.5C 992.468,229.103 988.135,220.103 983,211.5C 965.001,184.334 942.501,161.667 915.5,143.5C 915.205,141.265 915.539,139.265 916.5,137.5 Z"/></g>
<g><path style="opacity:1" fill="#9acdee" d="M 317.5,206.5 C 365.833,206.5 414.167,206.5 462.5,206.5C 455.674,207.761 448.674,208.761 441.5,209.5C 438.545,210.159 435.545,210.492 432.5,210.5C 401.833,210.5 371.167,210.5 340.5,210.5C 332.618,209.687 324.951,208.354 317.5,206.5 Z"/></g>
<g><path style="opacity:1" fill="#add6f2" d="M 340.5,210.5 C 371.167,210.5 401.833,210.5 432.5,210.5C 429.014,211.533 425.347,212.367 421.5,213C 399.169,213.5 376.836,213.667 354.5,213.5C 349.609,212.99 344.942,211.99 340.5,210.5 Z"/></g>
<g><path style="opacity:1" fill="#cde5f7" d="M 441.5,209.5 C 441.5,215.167 441.5,220.833 441.5,226.5C 431.211,228.661 420.878,230.828 410.5,233C 409.944,233.383 409.611,233.883 409.5,234.5C 408.833,228.654 408.167,222.654 407.5,216.5C 406.833,221.167 406.167,225.833 405.5,230.5C 405.715,226.4 405.382,222.066 404.5,217.5C 403.675,221.122 403.175,224.789 403,228.5C 402.181,216.154 401.181,215.821 400,227.5C 399.223,217.811 398.223,217.478 397,226.5C 396.764,224.236 396.264,222.069 395.5,220C 390.249,219.196 385.082,219.363 380,220.5C 371.428,218.068 362.928,215.734 354.5,213.5C 376.836,213.667 399.169,213.5 421.5,213C 425.347,212.367 429.014,211.533 432.5,210.5C 435.545,210.492 438.545,210.159 441.5,209.5 Z"/></g>
<g><path style="opacity:1" fill="#deedfa" d="M 641.5,210.5 C 643.579,210.971 645.579,211.637 647.5,212.5C 647.5,227.167 647.5,241.833 647.5,256.5C 646.209,256.263 645.209,256.596 644.5,257.5C 643.5,257.5 642.5,257.5 641.5,257.5C 641.5,241.833 641.5,226.167 641.5,210.5 Z"/></g>
<g><path style="opacity:1" fill="#cce4f7" d="M 647.5,212.5 C 649.579,212.971 651.579,213.637 653.5,214.5C 653.5,228.5 653.5,242.5 653.5,256.5C 650.482,256.704 647.482,257.037 644.5,257.5C 645.209,256.596 646.209,256.263 647.5,256.5C 647.5,241.833 647.5,227.167 647.5,212.5 Z"/></g>
<g><path style="opacity:0.996" fill="#0295da" d="M 554.5,216.5 C 573.833,216.5 593.167,216.5 612.5,216.5C 621.825,221.154 627.825,228.488 630.5,238.5C 628.925,246.917 623.925,252.417 615.5,255C 580.657,261.769 545.991,269.436 511.5,278C 470.623,289.348 430.623,303.181 391.5,319.5C 390.817,319.137 390.15,318.804 389.5,318.5C 381.291,313.526 372.291,310.86 362.5,310.5C 359.375,309.521 356.042,309.187 352.5,309.5C 345.687,308.509 338.687,308.175 331.5,308.5C 330.5,308.5 329.5,308.5 328.5,308.5C 321.151,308.549 313.817,308.882 306.5,309.5C 297.963,309.969 289.63,310.969 281.5,312.5C 272.382,313.088 263.382,314.422 254.5,316.5C 254.5,321.167 254.5,325.833 254.5,330.5C 263.706,330.081 272.706,329.081 281.5,327.5C 291.167,327.5 300.833,327.5 310.5,327.5C 312.5,327.5 314.5,327.5 316.5,327.5C 321.493,327.916 326.493,328.249 331.5,328.5C 334.417,329.417 337.417,330.084 340.5,330.5C 344.651,331.74 348.317,333.74 351.5,336.5C 341.602,341.033 331.768,345.699 322,350.5C 319.295,349.061 316.462,348.061 313.5,347.5C 309.298,346.033 304.965,345.033 300.5,344.5C 297.375,343.521 294.042,343.187 290.5,343.5C 286.366,342.515 282.032,342.182 277.5,342.5C 271.5,342.5 265.5,342.5 259.5,342.5C 255.143,342.586 250.81,342.92 246.5,343.5C 241.747,343.843 237.081,344.51 232.5,345.5C 224.739,346.319 217.073,347.652 209.5,349.5C 209.5,353.833 209.5,358.167 209.5,362.5C 207.585,362.216 205.919,362.549 204.5,363.5C 200.958,363.187 197.625,363.521 194.5,364.5C 191.615,364.194 188.948,364.527 186.5,365.5C 185.833,365.5 185.167,365.5 184.5,365.5C 241.024,316.07 304.69,278.07 375.5,251.5C 383.224,250.37 390.558,248.036 397.5,244.5C 400.673,243.83 403.673,242.664 406.5,241C 408.919,239.491 409.919,237.325 409.5,234.5C 409.611,233.883 409.944,233.383 410.5,233C 420.878,230.828 431.211,228.661 441.5,226.5C 450.169,225.5 458.835,224.5 467.5,223.5C 472.436,222.462 477.436,221.795 482.5,221.5C 486.5,221.167 490.5,220.833 494.5,220.5C 501.663,220.036 508.663,219.369 515.5,218.5C 528.52,218.086 541.52,217.42 554.5,216.5 Z"/></g>
<g><path style="opacity:1" fill="#b2d7f3" d="M 653.5,214.5 C 657.969,215.435 662.303,216.768 666.5,218.5C 665.521,230.42 665.188,242.42 665.5,254.5C 666.833,254.5 668.167,254.5 669.5,254.5C 666.375,255.479 663.042,255.813 659.5,255.5C 657.621,256.341 655.621,256.675 653.5,256.5C 653.5,242.5 653.5,228.5 653.5,214.5 Z"/></g>
<g><path style="opacity:0.913" fill="#1d4872" d="M 1357.5,222.5 C 1360.45,222.223 1363.28,222.556 1366,223.5C 1378.61,258.654 1391.61,293.654 1405,328.5C 1408.71,331.239 1412.88,332.906 1417.5,333.5C 1417.5,335.167 1417.5,336.833 1417.5,338.5C 1403.5,338.5 1389.5,338.5 1375.5,338.5C 1375.58,337.07 1375.25,335.736 1374.5,334.5C 1377.79,333.236 1381.12,332.07 1384.5,331C 1385.08,330.107 1385.41,329.107 1385.5,328C 1382.26,317.442 1378.92,306.942 1375.5,296.5C 1362.5,296.333 1349.5,296.5 1336.5,297C 1331.91,307.094 1327.91,317.428 1324.5,328C 1324.59,329.107 1324.92,330.107 1325.5,331C 1328.43,332.145 1331.43,332.978 1334.5,333.5C 1334.42,334.93 1334.75,336.264 1335.5,337.5C 1323.18,338.499 1310.85,338.832 1298.5,338.5C 1298.5,336.833 1298.5,335.167 1298.5,333.5C 1303.68,332.945 1308.18,330.945 1312,327.5C 1326.68,292.147 1341.85,257.147 1357.5,222.5 Z M 1356.5,246.5 C 1361.67,259.991 1366.67,273.658 1371.5,287.5C 1360.85,288.666 1350.18,288.832 1339.5,288C 1345.27,274.195 1350.93,260.362 1356.5,246.5 Z"/></g>
<g><path style="opacity:1" fill="#93caed" d="M 666.5,218.5 C 670.421,220.029 674.421,221.363 678.5,222.5C 677.525,232.751 677.192,243.085 677.5,253.5C 678.5,253.5 679.5,253.5 680.5,253.5C 677.038,254.482 673.371,254.815 669.5,254.5C 668.167,254.5 666.833,254.5 665.5,254.5C 665.188,242.42 665.521,230.42 666.5,218.5 Z"/></g>
<g><path style="opacity:0.927" fill="#1d4872" d="M 1119.5,223.5 C 1131.84,223.333 1144.17,223.5 1156.5,224C 1185.3,228.796 1199.63,245.796 1199.5,275C 1200.37,297.079 1192.37,315.079 1175.5,329C 1168.15,333.67 1160.15,336.67 1151.5,338C 1130.84,338.5 1110.17,338.667 1089.5,338.5C 1089.58,337.07 1089.25,335.736 1088.5,334.5C 1092.84,333.112 1097.01,331.445 1101,329.5C 1101.67,297.5 1101.67,265.5 1101,233.5C 1097.41,231.47 1093.58,230.137 1089.5,229.5C 1089.71,227.856 1089.38,226.356 1088.5,225C 1099.01,224.83 1109.34,224.33 1119.5,223.5 Z M 1118.5,231.5 C 1128.17,231.334 1137.84,231.5 1147.5,232C 1161.28,234.132 1170.78,241.632 1176,254.5C 1181.79,271.815 1181.79,289.148 1176,306.5C 1170.88,319.642 1161.38,327.476 1147.5,330C 1137.84,330.5 1128.17,330.666 1118.5,330.5C 1118.5,297.5 1118.5,264.5 1118.5,231.5 Z"/></g>
<g><path style="opacity:0.92" fill="#1d4872" d="M 1239.5,223.5 C 1250.17,223.333 1260.84,223.5 1271.5,224C 1291.02,228.215 1298.19,240.048 1293,259.5C 1289.41,267.421 1283.58,272.921 1275.5,276C 1298.91,283.523 1305.74,298.69 1296,321.5C 1290.43,329.392 1282.93,334.559 1273.5,337C 1253.88,338.438 1234.21,338.938 1214.5,338.5C 1214.58,337.07 1214.25,335.736 1213.5,334.5C 1217.84,333.112 1222.01,331.445 1226,329.5C 1226.67,297.5 1226.67,265.5 1226,233.5C 1222.41,231.47 1218.58,230.137 1214.5,229.5C 1214.71,227.856 1214.38,226.356 1213.5,225C 1222.34,224.83 1231.01,224.33 1239.5,223.5 Z M 1243.5,231.5 C 1249.51,231.334 1255.51,231.501 1261.5,232C 1272.06,234.435 1277.06,241.102 1276.5,252C 1276.9,262.863 1271.9,269.863 1261.5,273C 1255.51,273.499 1249.51,273.666 1243.5,273.5C 1243.5,259.5 1243.5,245.5 1243.5,231.5 Z M 1243.5,280.5 C 1251.62,280.24 1259.62,281.073 1267.5,283C 1275.23,286.279 1279.73,292.112 1281,300.5C 1283.52,315.646 1277.69,325.812 1263.5,331C 1256.92,331.81 1250.42,331.643 1244,330.5C 1243.5,313.837 1243.33,297.17 1243.5,280.5 Z"/></g>
<g><path style="opacity:0.93" fill="#1d4872" d="M 1462.5,225.5 C 1482,224.338 1501.66,224.171 1521.5,225C 1544.16,230.463 1552.33,244.63 1546,267.5C 1540.92,281.245 1531.08,289.078 1516.5,291C 1508.42,292.351 1500.42,292.518 1492.5,291.5C 1492.33,304.171 1492.5,316.838 1493,329.5C 1496.98,331.371 1501.15,332.704 1505.5,333.5C 1505.7,335.575 1505.87,337.575 1506,339.5C 1492,338.167 1478,338.167 1464,339.5C 1463.65,337.782 1463.15,336.115 1462.5,334.5C 1466.84,333.112 1471.01,331.445 1475,329.5C 1475.67,297.5 1475.67,265.5 1475,233.5C 1471.41,231.47 1467.58,230.137 1463.5,229.5C 1463.77,227.901 1463.43,226.568 1462.5,225.5 Z M 1492.5,232.5 C 1522.48,228.641 1533.98,241.308 1527,270.5C 1523.91,277.256 1518.74,281.423 1511.5,283C 1505.18,283.5 1498.84,283.666 1492.5,283.5C 1492.5,266.5 1492.5,249.5 1492.5,232.5 Z"/></g>
<g><path style="opacity:1" fill="#6dbbe8" d="M 678.5,222.5 C 682.734,223.795 686.734,225.461 690.5,227.5C 688.532,235.433 687.865,243.766 688.5,252.5C 691.833,252.5 695.167,252.5 698.5,252.5C 698.5,252.833 698.5,253.167 698.5,253.5C 695.833,253.5 693.167,253.5 690.5,253.5C 690.167,253.5 689.833,253.5 689.5,253.5C 686.5,253.5 683.5,253.5 680.5,253.5C 679.5,253.5 678.5,253.5 677.5,253.5C 677.192,243.085 677.525,232.751 678.5,222.5 Z"/></g>
<g><path style="opacity:1" fill="#3eafe3" d="M 690.5,227.5 C 694.383,228.459 698.05,229.792 701.5,231.5C 700.509,238.313 700.175,245.313 700.5,252.5C 699.833,252.5 699.167,252.5 698.5,252.5C 695.167,252.5 691.833,252.5 688.5,252.5C 687.865,243.766 688.532,235.433 690.5,227.5 Z"/></g>
<g><path style="opacity:1" fill="#17a3df" d="M 701.5,231.5 C 708.255,233.709 714.922,236.209 721.5,239C 723.996,240.331 725.996,242.164 727.5,244.5C 726.71,245.609 726.21,246.942 726,248.5C 720.447,250.892 714.614,252.225 708.5,252.5C 708.167,252.5 707.833,252.5 707.5,252.5C 705.833,252.5 704.167,252.5 702.5,252.5C 701.833,252.5 701.167,252.5 700.5,252.5C 700.175,245.313 700.509,238.313 701.5,231.5 Z"/></g>
<g><path style="opacity:1" fill="#e6eaf6" d="M 727.5,244.5 C 734.843,252.85 739.843,262.517 742.5,273.5C 733.182,274.183 723.849,274.517 714.5,274.5C 712.5,274.5 710.5,274.5 708.5,274.5C 708.5,267.167 708.5,259.833 708.5,252.5C 714.614,252.225 720.447,250.892 726,248.5C 726.21,246.942 726.71,245.609 727.5,244.5 Z"/></g>
<g><path style="opacity:1" fill="#dde2f2" d="M 702.5,252.5 C 704.167,252.5 705.833,252.5 707.5,252.5C 707.5,259.833 707.5,267.167 707.5,274.5C 705.585,274.216 703.919,274.549 702.5,275.5C 701.5,275.5 700.5,275.5 699.5,275.5C 699.5,268.167 699.5,260.833 699.5,253.5C 700.791,253.737 701.791,253.404 702.5,252.5 Z"/></g>
<g><path style="opacity:1" fill="#b9c5e5" d="M 707.5,252.5 C 707.833,252.5 708.167,252.5 708.5,252.5C 708.5,259.833 708.5,267.167 708.5,274.5C 710.5,274.5 712.5,274.5 714.5,274.5C 710.702,275.483 706.702,275.817 702.5,275.5C 703.919,274.549 705.585,274.216 707.5,274.5C 707.5,267.167 707.5,259.833 707.5,252.5 Z"/></g>
<g><path style="opacity:1" fill="#b5c2e3" d="M 698.5,252.5 C 699.167,252.5 699.833,252.5 700.5,252.5C 701.167,252.5 701.833,252.5 702.5,252.5C 701.791,253.404 700.791,253.737 699.5,253.5C 699.5,260.833 699.5,268.167 699.5,275.5C 696.375,276.479 693.042,276.813 689.5,276.5C 689.5,268.833 689.5,261.167 689.5,253.5C 689.833,253.5 690.167,253.5 690.5,253.5C 690.5,260.833 690.5,268.167 690.5,275.5C 693.167,275.5 695.833,275.5 698.5,275.5C 698.5,268.167 698.5,260.833 698.5,253.5C 698.5,253.167 698.5,252.833 698.5,252.5 Z"/></g>
<g><path style="opacity:1" fill="#d7dcef" d="M 690.5,253.5 C 693.167,253.5 695.833,253.5 698.5,253.5C 698.5,260.833 698.5,268.167 698.5,275.5C 695.833,275.5 693.167,275.5 690.5,275.5C 690.5,268.167 690.5,260.833 690.5,253.5 Z"/></g>
<g><path style="opacity:1" fill="#c7cee9" d="M 680.5,253.5 C 683.5,253.5 686.5,253.5 689.5,253.5C 689.5,261.167 689.5,268.833 689.5,276.5C 682.225,277.586 674.892,278.252 667.5,278.5C 664.833,278.5 662.167,278.5 659.5,278.5C 659.5,270.833 659.5,263.167 659.5,255.5C 663.042,255.813 666.375,255.479 669.5,254.5C 673.371,254.815 677.038,254.482 680.5,253.5 Z"/></g>
<g><path style="opacity:1" fill="#b5c0e2" d="M 659.5,255.5 C 659.5,263.167 659.5,270.833 659.5,278.5C 662.167,278.5 664.833,278.5 667.5,278.5C 659.366,279.998 651.032,280.998 642.5,281.5C 641.508,273.684 641.174,265.684 641.5,257.5C 642.5,257.5 643.5,257.5 644.5,257.5C 647.482,257.037 650.482,256.704 653.5,256.5C 655.621,256.675 657.621,256.341 659.5,255.5 Z"/></g>
<g><path style="opacity:1" fill="#abb7de" d="M 641.5,257.5 C 641.174,265.684 641.508,273.684 642.5,281.5C 637.71,282.725 632.71,283.392 627.5,283.5C 626.167,283.5 624.833,283.5 623.5,283.5C 623.825,275.648 623.492,267.982 622.5,260.5C 628.683,259.117 635.016,258.117 641.5,257.5 Z"/></g>
<g><path style="opacity:0.916" fill="#1d4872" d="M 1578.5,261.5 C 1580.5,261.5 1582.5,261.5 1584.5,261.5C 1584.34,264.187 1584.5,266.854 1585,269.5C 1593.98,263.675 1603.81,261.008 1614.5,261.5C 1612.96,269.859 1611.29,278.193 1609.5,286.5C 1607.99,287.747 1606.49,287.747 1605,286.5C 1603.89,281.105 1601.39,276.605 1597.5,273C 1592.84,272.241 1588.67,273.407 1585,276.5C 1584.33,294.5 1584.33,312.5 1585,330.5C 1588.83,332.721 1593,334.054 1597.5,334.5C 1597.66,336.199 1597.49,337.866 1597,339.5C 1584,338.167 1571,338.167 1558,339.5C 1556.73,338.095 1556.23,336.429 1556.5,334.5C 1560.74,334.252 1564.58,332.919 1568,330.5C 1568.67,311.833 1568.67,293.167 1568,274.5C 1564.48,273.243 1560.98,271.91 1557.5,270.5C 1556.75,269.264 1556.42,267.93 1556.5,266.5C 1564.15,265.751 1571.49,264.084 1578.5,261.5 Z"/></g>
<g><path style="opacity:0.91" fill="#1d4872" d="M 1650.5,261.5 C 1672.45,257.554 1687.95,265.554 1697,285.5C 1701.51,302.644 1698.01,317.81 1686.5,331C 1672.68,341.201 1657.68,343.534 1641.5,338C 1624.32,328.127 1617.48,313.293 1621,293.5C 1624.13,276.543 1633.96,265.876 1650.5,261.5 Z M 1652.5,268.5 C 1668.36,266.683 1677.52,273.683 1680,289.5C 1682.42,302.435 1680.75,314.768 1675,326.5C 1667.69,334.049 1659.19,335.549 1649.5,331C 1643.52,325.877 1640.02,319.377 1639,311.5C 1636.75,299.413 1638.08,287.747 1643,276.5C 1645.77,273.217 1648.94,270.55 1652.5,268.5 Z"/></g>
<g><path style="opacity:0.903" fill="#1d4872" d="M 1734.5,261.5 C 1752.14,262.55 1769.81,263.383 1787.5,264C 1788.34,265.011 1788.67,266.178 1788.5,267.5C 1782.39,268.481 1776.39,269.981 1770.5,272C 1776.4,280.585 1777.57,289.751 1774,299.5C 1767.53,311.493 1757.37,317.493 1743.5,317.5C 1738.87,316.97 1734.37,315.97 1730,314.5C 1728.09,317.826 1726.59,321.326 1725.5,325C 1725.82,326.653 1726.82,327.653 1728.5,328C 1741.83,328.333 1755.17,328.667 1768.5,329C 1781.49,330.986 1787.32,338.486 1786,351.5C 1784.73,359.865 1780.57,366.365 1773.5,371C 1756.67,379.941 1739.01,381.941 1720.5,377C 1707.94,371.399 1705.11,362.566 1712,350.5C 1714.48,347.051 1717.31,343.884 1720.5,341C 1714.2,338.575 1712.04,334.075 1714,327.5C 1716.63,321.728 1720.13,316.561 1724.5,312C 1713.6,304.646 1709.77,294.48 1713,281.5C 1716.72,271.067 1723.89,264.4 1734.5,261.5 Z M 1738.5,268.5 C 1749.4,266.589 1756.24,270.922 1759,281.5C 1760.36,289.529 1759.36,297.195 1756,304.5C 1754.46,306.378 1752.62,307.878 1750.5,309C 1738.68,311.841 1731.52,307.341 1729,295.5C 1727.74,287.82 1728.74,280.487 1732,273.5C 1733.97,271.45 1736.13,269.783 1738.5,268.5 Z M 1726.5,342.5 C 1739.57,342.057 1752.57,342.557 1765.5,344C 1771.17,346.815 1773,351.315 1771,357.5C 1767.94,364.227 1762.77,368.394 1755.5,370C 1747.49,371.962 1739.49,371.962 1731.5,370C 1725.53,367.695 1722.2,363.362 1721.5,357C 1722.47,351.903 1724.14,347.07 1726.5,342.5 Z"/></g>
<g><path style="opacity:0.916" fill="#1d4872" d="M 1814.5,261.5 C 1816.5,261.5 1818.5,261.5 1820.5,261.5C 1820.34,264.187 1820.5,266.854 1821,269.5C 1829.98,263.675 1839.81,261.008 1850.5,261.5C 1848.96,269.859 1847.29,278.193 1845.5,286.5C 1843.99,287.747 1842.49,287.747 1841,286.5C 1839.89,281.105 1837.39,276.605 1833.5,273C 1828.84,272.241 1824.67,273.407 1821,276.5C 1820.33,294.5 1820.33,312.5 1821,330.5C 1824.83,332.721 1829,334.054 1833.5,334.5C 1833.66,336.199 1833.49,337.866 1833,339.5C 1820,338.167 1807,338.167 1794,339.5C 1792.73,338.095 1792.23,336.429 1792.5,334.5C 1796.74,334.252 1800.58,332.919 1804,330.5C 1804.67,311.833 1804.67,293.167 1804,274.5C 1800.48,273.243 1796.98,271.91 1793.5,270.5C 1792.75,269.264 1792.42,267.93 1792.5,266.5C 1800.15,265.751 1807.49,264.084 1814.5,261.5 Z"/></g>
<g><path style="opacity:0.905" fill="#1d4872" d="M 1884.5,261.5 C 1912.92,258.251 1926.58,270.918 1925.5,299.5C 1908.17,299.5 1890.83,299.5 1873.5,299.5C 1872.72,315.537 1880.06,325.37 1895.5,329C 1905.19,329.693 1914.86,329.527 1924.5,328.5C 1924.79,330.288 1924.45,331.955 1923.5,333.5C 1911.68,340.097 1899.01,342.263 1885.5,340C 1862.2,333.268 1852.7,317.768 1857,293.5C 1859.92,277.243 1869.09,266.576 1884.5,261.5 Z M 1887.5,268.5 C 1897.79,265.884 1904.29,269.551 1907,279.5C 1907.5,283.51 1908,287.51 1908.5,291.5C 1896.83,291.5 1885.17,291.5 1873.5,291.5C 1874.39,281.365 1879.06,273.698 1887.5,268.5 Z"/></g>
<g><path style="opacity:0.899" fill="#1d4872" d="M 1956.5,261.5 C 1964.17,261.334 1971.84,261.5 1979.5,262C 1983.3,262.534 1986.97,263.534 1990.5,265C 1988.71,271.636 1987.04,278.303 1985.5,285C 1984.06,285.781 1982.72,285.614 1981.5,284.5C 1979.98,279.414 1977.98,274.58 1975.5,270C 1969.08,269.13 1962.75,269.464 1956.5,271C 1950.53,274.392 1949.03,279.226 1952,285.5C 1953.41,286.787 1954.91,287.954 1956.5,289C 1964.58,291.803 1972.58,294.803 1980.5,298C 1991.58,303.667 1995.42,312.501 1992,324.5C 1987.88,333.153 1981.05,338.32 1971.5,340C 1959.23,341.346 1947.23,340.179 1935.5,336.5C 1937.15,329.549 1938.65,322.549 1940,315.5C 1941.33,314.833 1942.67,314.167 1944,313.5C 1946.2,319.091 1948.2,324.758 1950,330.5C 1950.75,331.126 1951.58,331.626 1952.5,332C 1959.71,333.113 1966.71,332.446 1973.5,330C 1978.83,324.333 1978.83,318.667 1973.5,313C 1964.5,309.333 1955.5,305.667 1946.5,302C 1942.18,299.685 1939.35,296.185 1938,291.5C 1935.02,275.683 1941.18,265.683 1956.5,261.5 Z"/></g>
<g><path style="opacity:0.899" fill="#1d4872" d="M 2023.5,261.5 C 2031.17,261.334 2038.84,261.5 2046.5,262C 2050.3,262.534 2053.97,263.534 2057.5,265C 2055.71,271.636 2054.04,278.303 2052.5,285C 2051.06,285.781 2049.72,285.614 2048.5,284.5C 2046.98,279.414 2044.98,274.58 2042.5,270C 2036.08,269.13 2029.75,269.464 2023.5,271C 2017.53,274.392 2016.03,279.226 2019,285.5C 2020.41,286.787 2021.91,287.954 2023.5,289C 2031.58,291.803 2039.58,294.803 2047.5,298C 2058.58,303.667 2062.42,312.501 2059,324.5C 2054.88,333.153 2048.05,338.32 2038.5,340C 2026.23,341.346 2014.23,340.179 2002.5,336.5C 2004.15,329.549 2005.65,322.549 2007,315.5C 2008.33,314.833 2009.67,314.167 2011,313.5C 2013.2,319.091 2015.2,324.758 2017,330.5C 2017.75,331.126 2018.58,331.626 2019.5,332C 2026.71,333.113 2033.71,332.446 2040.5,330C 2045.83,324.333 2045.83,318.667 2040.5,313C 2031.5,309.333 2022.5,305.667 2013.5,302C 2009.18,299.685 2006.35,296.185 2005,291.5C 2002.02,275.683 2008.18,265.683 2023.5,261.5 Z"/></g>
<g><path style="opacity:1" fill="#a0aed9" d="M 622.5,260.5 C 623.492,267.982 623.825,275.648 623.5,283.5C 624.833,283.5 626.167,283.5 627.5,283.5C 619.383,285.376 611.05,286.709 602.5,287.5C 601.833,279.833 601.167,272.167 600.5,264.5C 607.556,262.322 614.89,260.989 622.5,260.5 Z"/></g>
<g><path style="opacity:1" fill="#95a5d4" d="M 600.5,264.5 C 601.167,272.167 601.833,279.833 602.5,287.5C 597.409,289.129 592.076,290.129 586.5,290.5C 585.5,290.5 584.5,290.5 583.5,290.5C 583.5,283.167 583.5,275.833 583.5,268.5C 582.167,268.5 580.833,268.5 579.5,268.5C 586.238,266.42 593.238,265.087 600.5,264.5 Z"/></g>
<g><path style="opacity:1" fill="#889bcf" d="M 579.5,268.5 C 580.833,268.5 582.167,268.5 583.5,268.5C 583.5,275.833 583.5,283.167 583.5,290.5C 584.5,290.5 585.5,290.5 586.5,290.5C 577.056,292.99 567.389,294.99 557.5,296.5C 556.508,289.352 556.175,282.019 556.5,274.5C 555.167,274.5 553.833,274.5 552.5,274.5C 561.216,271.754 570.216,269.754 579.5,268.5 Z"/></g>
<g><path style="opacity:1" fill="#7b91c9" d="M 552.5,274.5 C 553.833,274.5 555.167,274.5 556.5,274.5C 556.175,282.019 556.508,289.352 557.5,296.5C 553.385,297.943 549.052,298.943 544.5,299.5C 541.167,299.5 537.833,299.5 534.5,299.5C 535.126,292.416 534.459,285.75 532.5,279.5C 538.906,277.232 545.573,275.565 552.5,274.5 Z"/></g>
<g><path style="opacity:1" fill="#7088c5" d="M 532.5,279.5 C 534.459,285.75 535.126,292.416 534.5,299.5C 537.833,299.5 541.167,299.5 544.5,299.5C 543.081,300.451 541.415,300.784 539.5,300.5C 526.456,300.407 513.456,301.073 500.5,302.5C 499.167,298.167 497.833,293.833 496.5,289.5C 508.142,285.253 520.142,281.92 532.5,279.5 Z"/></g>
<g><path style="opacity:1" fill="#5d7dbe" d="M 496.5,289.5 C 497.833,293.833 499.167,298.167 500.5,302.5C 492.62,303.813 484.62,305.147 476.5,306.5C 476.5,302.833 476.5,299.167 476.5,295.5C 482.891,292.898 489.557,290.898 496.5,289.5 Z"/></g>
<g><path style="opacity:1" fill="#4c73b8" d="M 476.5,295.5 C 476.5,299.167 476.5,302.833 476.5,306.5C 453.203,310.759 429.869,315.426 406.5,320.5C 429.163,310.61 452.496,302.277 476.5,295.5 Z"/></g>
<g><path style="opacity:1" fill="#2364b0" d="M 539.5,300.5 C 509.026,308.706 478.693,317.706 448.5,327.5C 448.083,326.876 447.416,326.543 446.5,326.5C 438.843,327.61 431.176,328.61 423.5,329.5C 418.853,330.296 414.186,330.963 409.5,331.5C 403.54,332.715 397.54,333.715 391.5,334.5C 386.494,335.595 381.494,336.595 376.5,337.5C 371.726,337.988 367.06,338.988 362.5,340.5C 361.893,340.376 361.56,340.043 361.5,339.5C 376.25,332.583 391.25,326.25 406.5,320.5C 429.869,315.426 453.203,310.759 476.5,306.5C 484.62,305.147 492.62,303.813 500.5,302.5C 513.456,301.073 526.456,300.407 539.5,300.5 Z"/></g>
<g><path style="opacity:1" fill="#a4d2f0" d="M 331.5,308.5 C 338.687,308.175 345.687,308.509 352.5,309.5C 348.5,309.5 344.5,309.5 340.5,309.5C 340.5,316.5 340.5,323.5 340.5,330.5C 337.417,330.084 334.417,329.417 331.5,328.5C 331.5,321.833 331.5,315.167 331.5,308.5 Z"/></g>
<g><path style="opacity:1" fill="#7bc0ea" d="M 328.5,308.5 C 324.702,309.483 320.702,309.817 316.5,309.5C 316.5,315.5 316.5,321.5 316.5,327.5C 314.5,327.5 312.5,327.5 310.5,327.5C 309.081,326.549 307.415,326.216 305.5,326.5C 305.214,320.741 305.548,315.075 306.5,309.5C 313.817,308.882 321.151,308.549 328.5,308.5 Z"/></g>
<g><path style="opacity:1" fill="#90c9ed" d="M 328.5,308.5 C 329.5,308.5 330.5,308.5 331.5,308.5C 331.5,315.167 331.5,321.833 331.5,328.5C 326.493,328.249 321.493,327.916 316.5,327.5C 316.5,321.5 316.5,315.5 316.5,309.5C 320.702,309.817 324.702,309.483 328.5,308.5 Z"/></g>
<g><path style="opacity:1" fill="#c1dff5" d="M 352.5,309.5 C 356.042,309.187 359.375,309.521 362.5,310.5C 361.802,317.734 361.136,325.067 360.5,332.5C 357.618,334.108 354.618,335.441 351.5,336.5C 348.317,333.74 344.651,331.74 340.5,330.5C 340.5,323.5 340.5,316.5 340.5,309.5C 344.5,309.5 348.5,309.5 352.5,309.5 Z"/></g>
<g><path style="opacity:1" fill="#52b4e5" d="M 306.5,309.5 C 305.548,315.075 305.214,320.741 305.5,326.5C 307.415,326.216 309.081,326.549 310.5,327.5C 300.833,327.5 291.167,327.5 281.5,327.5C 281.5,322.5 281.5,317.5 281.5,312.5C 289.63,310.969 297.963,309.969 306.5,309.5 Z"/></g>
<g><path style="opacity:1" fill="#ddedf9" d="M 362.5,310.5 C 372.291,310.86 381.291,313.526 389.5,318.5C 388.842,319.398 388.176,320.398 387.5,321.5C 378.71,324.696 369.71,328.363 360.5,332.5C 361.136,325.067 361.802,317.734 362.5,310.5 Z"/></g>
<g><path style="opacity:1" fill="#13a7e0" d="M 281.5,312.5 C 281.5,317.5 281.5,322.5 281.5,327.5C 272.706,329.081 263.706,330.081 254.5,330.5C 254.5,325.833 254.5,321.167 254.5,316.5C 263.382,314.422 272.382,313.088 281.5,312.5 Z"/></g>
<g><path style="opacity:1" fill="#c0d9f1" d="M 448.5,327.5 C 440.458,331.071 432.125,334.071 423.5,336.5C 422.5,336.5 421.5,336.5 420.5,336.5C 420.5,334.5 420.5,332.5 420.5,330.5C 421.791,330.737 422.791,330.404 423.5,329.5C 431.176,328.61 438.843,327.61 446.5,326.5C 447.416,326.543 448.083,326.876 448.5,327.5 Z"/></g>
<g><path style="opacity:1" fill="#9dcaec" d="M 423.5,329.5 C 422.791,330.404 421.791,330.737 420.5,330.5C 420.5,332.5 420.5,334.5 420.5,336.5C 421.5,336.5 422.5,336.5 423.5,336.5C 419.466,338.737 415.132,340.404 410.5,341.5C 409.167,341.5 407.833,341.5 406.5,341.5C 406.5,338.5 406.5,335.5 406.5,332.5C 407.791,332.737 408.791,332.404 409.5,331.5C 414.186,330.963 418.853,330.296 423.5,329.5 Z"/></g>
<g><path style="opacity:1" fill="#86c0e9" d="M 409.5,331.5 C 408.791,332.404 407.791,332.737 406.5,332.5C 406.5,335.5 406.5,338.5 406.5,341.5C 407.833,341.5 409.167,341.5 410.5,341.5C 410.158,342.338 409.492,342.672 408.5,342.5C 403.493,342.751 398.493,343.084 393.5,343.5C 391.612,341.012 390.945,338.012 391.5,334.5C 397.54,333.715 403.54,332.715 409.5,331.5 Z"/></g>
<g><path style="opacity:1" fill="#60b3e4" d="M 391.5,334.5 C 390.945,338.012 391.612,341.012 393.5,343.5C 388.016,344.804 382.349,345.804 376.5,346.5C 376.5,343.5 376.5,340.5 376.5,337.5C 381.494,336.595 386.494,335.595 391.5,334.5 Z"/></g>
<g><path style="opacity:1" fill="#23a3dd" d="M 376.5,337.5 C 376.5,340.5 376.5,343.5 376.5,346.5C 361.564,349.315 346.564,351.981 331.5,354.5C 341.187,348.99 351.187,343.99 361.5,339.5C 361.56,340.043 361.893,340.376 362.5,340.5C 367.06,338.988 371.726,337.988 376.5,337.5 Z"/></g>
<g><path style="opacity:1" fill="#9ccdef" d="M 259.5,342.5 C 265.5,342.5 271.5,342.5 277.5,342.5C 277.5,352.833 277.5,363.167 277.5,373.5C 275.668,374.248 274.001,375.248 272.5,376.5C 268.473,373.602 264.14,371.268 259.5,369.5C 259.5,360.5 259.5,351.5 259.5,342.5 Z"/></g>
<g><path style="opacity:1" fill="#b1d7f2" d="M 277.5,342.5 C 282.032,342.182 286.366,342.515 290.5,343.5C 289.508,350.982 289.175,358.648 289.5,366.5C 285.864,369.323 281.864,371.656 277.5,373.5C 277.5,363.167 277.5,352.833 277.5,342.5 Z"/></g>
<g><path style="opacity:1" fill="#71bde9" d="M 259.5,342.5 C 259.5,351.5 259.5,360.5 259.5,369.5C 254.354,368.299 249.354,366.965 244.5,365.5C 243.924,357.889 244.59,350.556 246.5,343.5C 250.81,342.92 255.143,342.586 259.5,342.5 Z"/></g>
<g><path style="opacity:1" fill="#c1dff5" d="M 290.5,343.5 C 294.042,343.187 297.375,343.521 300.5,344.5C 298.547,350.074 297.88,356.074 298.5,362.5C 295.622,364.105 292.622,365.439 289.5,366.5C 289.175,358.648 289.508,350.982 290.5,343.5 Z"/></g>
<g><path style="opacity:1" fill="#2464b0" d="M 408.5,342.5 C 391.452,349.519 374.452,356.852 357.5,364.5C 349.474,364.49 341.474,365.824 333.5,368.5C 329.462,368.958 325.462,369.624 321.5,370.5C 315.312,371.877 309.312,373.544 303.5,375.5C 298.191,376.076 293.191,377.409 288.5,379.5C 286.666,380.494 284.999,380.494 283.5,379.5C 299.212,370.644 315.212,362.31 331.5,354.5C 346.564,351.981 361.564,349.315 376.5,346.5C 382.349,345.804 388.016,344.804 393.5,343.5C 398.493,343.084 403.493,342.751 408.5,342.5 Z"/></g>
<g><path style="opacity:1" fill="#4fb2e5" d="M 246.5,343.5 C 244.59,350.556 243.924,357.889 244.5,365.5C 243.167,365.5 241.833,365.5 240.5,365.5C 238.236,364.781 235.903,364.448 233.5,364.5C 232.542,358.256 232.209,351.923 232.5,345.5C 237.081,344.51 241.747,343.843 246.5,343.5 Z"/></g>
<g><path style="opacity:1" fill="#d5e9f8" d="M 300.5,344.5 C 304.965,345.033 309.298,346.033 313.5,347.5C 313.813,350.247 313.48,352.914 312.5,355.5C 307.807,357.847 303.14,360.18 298.5,362.5C 297.88,356.074 298.547,350.074 300.5,344.5 Z"/></g>
<g><path style="opacity:1" fill="#4ab2e5" d="M 194.5,364.5 C 197.625,363.521 200.958,363.187 204.5,363.5C 206.5,363.5 208.5,363.5 210.5,363.5C 210.17,380.009 210.504,396.342 211.5,412.5C 206.438,416.221 201.104,419.555 195.5,422.5C 195.83,402.993 195.497,383.659 194.5,364.5 Z"/></g>
<g><path style="opacity:1" fill="#27abe2" d="M 232.5,345.5 C 232.209,351.923 232.542,358.256 233.5,364.5C 230.904,363.735 228.237,363.401 225.5,363.5C 225.171,376.677 225.505,389.677 226.5,402.5C 221.709,406.068 216.709,409.402 211.5,412.5C 210.504,396.342 210.17,380.009 210.5,363.5C 208.5,363.5 206.5,363.5 204.5,363.5C 205.919,362.549 207.585,362.216 209.5,362.5C 209.5,358.167 209.5,353.833 209.5,349.5C 217.073,347.652 224.739,346.319 232.5,345.5 Z"/></g>
<g><path style="opacity:1" fill="#09a5e0" d="M 233.5,364.5 C 235.903,364.448 238.236,364.781 240.5,365.5C 240.173,375.015 240.506,384.348 241.5,393.5C 236.767,396.89 231.767,399.89 226.5,402.5C 225.505,389.677 225.171,376.677 225.5,363.5C 228.237,363.401 230.904,363.735 233.5,364.5 Z"/></g>
<g><path style="opacity:1" fill="#5fb7e7" d="M 194.5,364.5 C 195.497,383.659 195.83,402.993 195.5,422.5C 193.14,424.853 190.473,426.853 187.5,428.5C 186.503,407.673 186.169,386.673 186.5,365.5C 188.948,364.527 191.615,364.194 194.5,364.5 Z"/></g>
<g><path style="opacity:1" fill="#0a9ddd" d="M 240.5,365.5 C 241.833,365.5 243.167,365.5 244.5,365.5C 249.354,366.965 254.354,368.299 259.5,369.5C 264.14,371.268 268.473,373.602 272.5,376.5C 261.979,381.925 251.646,387.592 241.5,393.5C 240.506,384.348 240.173,375.015 240.5,365.5 Z"/></g>
<g><path style="opacity:1" fill="#bbc5e4" d="M 357.5,364.5 C 350.409,368.379 343.076,371.712 335.5,374.5C 333.692,373.082 333.025,371.082 333.5,368.5C 341.474,365.824 349.474,364.49 357.5,364.5 Z"/></g>
<g><path style="opacity:1" fill="#a8b5dc" d="M 333.5,368.5 C 333.025,371.082 333.692,373.082 335.5,374.5C 331.818,377.008 327.818,379.008 323.5,380.5C 321.598,377.663 320.931,374.329 321.5,370.5C 325.462,369.624 329.462,368.958 333.5,368.5 Z"/></g>
<g><path style="opacity:1" fill="#6fbbe8" d="M 184.5,365.5 C 185.167,365.5 185.833,365.5 186.5,365.5C 186.169,386.673 186.503,407.673 187.5,428.5C 184.709,430.735 181.709,432.735 178.5,434.5C 178.163,413.979 177.163,393.646 175.5,373.5C 178.271,370.608 181.271,367.942 184.5,365.5 Z"/></g>
<g><path style="opacity:1" fill="#899dd0" d="M 321.5,370.5 C 320.931,374.329 321.598,377.663 323.5,380.5C 317.649,384.594 311.315,387.927 304.5,390.5C 303.513,385.695 303.179,380.695 303.5,375.5C 309.312,373.544 315.312,371.877 321.5,370.5 Z"/></g>
<g><path style="opacity:1" fill="#86c4ec" d="M 175.5,373.5 C 177.163,393.646 178.163,413.979 178.5,434.5C 172.538,438.821 166.538,443.155 160.5,447.5C 160.163,427.978 159.163,408.645 157.5,389.5C 163.177,383.824 169.177,378.491 175.5,373.5 Z"/></g>
<g><path style="opacity:1" fill="#708ac5" d="M 303.5,375.5 C 303.179,380.695 303.513,385.695 304.5,390.5C 299.984,393.927 294.984,396.593 289.5,398.5C 288.51,392.355 288.177,386.022 288.5,379.5C 293.191,377.409 298.191,376.076 303.5,375.5 Z"/></g>
<g><path style="opacity:1" fill="#5d7dbe" d="M 283.5,379.5 C 284.999,380.494 286.666,380.494 288.5,379.5C 288.177,386.022 288.51,392.355 289.5,398.5C 285.836,401.335 281.836,403.668 277.5,405.5C 276.833,398.5 276.167,391.5 275.5,384.5C 277.794,382.347 280.46,380.68 283.5,379.5 Z"/></g>
<g><path style="opacity:0.807" fill="#1d4872" d="M 1225.5,385.5 C 1227,385.415 1228,386.081 1228.5,387.5C 1223.61,391.69 1223.27,396.19 1227.5,401C 1225.84,404.297 1223.18,405.297 1219.5,404C 1217.65,401.421 1217.15,398.588 1218,395.5C 1219.92,391.746 1222.42,388.412 1225.5,385.5 Z"/></g>
<g><path style="opacity:0.807" fill="#1d4872" d="M 1237.5,385.5 C 1239,385.415 1240,386.081 1240.5,387.5C 1235.61,391.69 1235.27,396.19 1239.5,401C 1237.84,404.297 1235.18,405.297 1231.5,404C 1229.65,401.421 1229.15,398.588 1230,395.5C 1231.92,391.746 1234.42,388.412 1237.5,385.5 Z"/></g>
<g><path style="opacity:0.901" fill="#1d4872" d="M 1916.5,386.5 C 1918.17,386.5 1919.83,386.5 1921.5,386.5C 1920.49,400.819 1920.32,415.152 1921,429.5C 1921.27,432.272 1922.77,433.938 1925.5,434.5C 1923.46,436.013 1921.13,436.679 1918.5,436.5C 1915.36,436.949 1912.86,435.949 1911,433.5C 1908.52,435.917 1905.52,436.917 1902,436.5C 1892.33,436.327 1887.5,431.327 1887.5,421.5C 1889.1,407.923 1896.77,402.256 1910.5,404.5C 1910.5,400.5 1910.5,396.5 1910.5,392.5C 1909.13,392.657 1907.79,392.49 1906.5,392C 1905.55,391.282 1905.38,390.449 1906,389.5C 1909.66,388.76 1913.16,387.76 1916.5,386.5 Z M 1905.5,407.5 C 1907.14,407.286 1908.64,407.62 1910,408.5C 1910.83,415.856 1910.66,423.189 1909.5,430.5C 1906.21,431.969 1903.37,431.302 1901,428.5C 1897.73,422.528 1897.73,416.528 1901,410.5C 1902.41,409.219 1903.91,408.219 1905.5,407.5 Z"/></g>
<g><path style="opacity:0.808" fill="#1d4872" d="M 1932.5,386.5 C 1937.77,385.139 1940.43,387.139 1940.5,392.5C 1939.46,398.203 1936.46,402.537 1931.5,405.5C 1930.5,405.167 1929.83,404.5 1929.5,403.5C 1931.79,401.387 1933.45,398.887 1934.5,396C 1933.15,393.99 1931.82,391.99 1930.5,390C 1930.98,388.697 1931.64,387.531 1932.5,386.5 Z"/></g>
<g><path style="opacity:0.808" fill="#1d4872" d="M 1944.5,386.5 C 1949.77,385.139 1952.43,387.139 1952.5,392.5C 1951.46,398.203 1948.46,402.537 1943.5,405.5C 1942.5,405.167 1941.83,404.5 1941.5,403.5C 1943.79,401.387 1945.45,398.887 1946.5,396C 1945.15,393.99 1943.82,391.99 1942.5,390C 1942.98,388.697 1943.64,387.531 1944.5,386.5 Z"/></g>
<g><path style="opacity:0.865" fill="#1d4872" d="M 1558.5,388.5 C 1566.49,387.998 1568.49,391.165 1564.5,398C 1559.64,399.753 1556.64,398.253 1555.5,393.5C 1555.76,391.308 1556.76,389.641 1558.5,388.5 Z"/></g>
<g><path style="opacity:0.923" fill="#1d4872" d="M 1244.5,389.5 C 1251.53,389.17 1258.53,389.503 1265.5,390.5C 1264.34,391.95 1262.84,392.95 1261,393.5C 1260.33,399.833 1260.33,406.167 1261,412.5C 1266.69,406.314 1272.19,399.981 1277.5,393.5C 1275.85,392.852 1274.52,391.852 1273.5,390.5C 1279.17,389.167 1284.83,389.167 1290.5,390.5C 1287.92,391.999 1285.25,393.499 1282.5,395C 1278.69,399.649 1274.69,404.149 1270.5,408.5C 1274.67,414.833 1278.83,421.167 1283,427.5C 1285.23,430.68 1288.06,433.013 1291.5,434.5C 1286.2,435.663 1280.86,435.829 1275.5,435C 1270.79,427.747 1265.96,420.58 1261,413.5C 1260.33,419.5 1260.33,425.5 1261,431.5C 1262.84,432.05 1264.34,433.05 1265.5,434.5C 1258.86,435.664 1252.19,435.831 1245.5,435C 1244.17,434.333 1244.17,433.667 1245.5,433C 1247.1,432.727 1248.6,432.227 1250,431.5C 1250.67,418.833 1250.67,406.167 1250,393.5C 1248.6,392.773 1247.1,392.273 1245.5,392C 1244.75,391.329 1244.41,390.496 1244.5,389.5 Z"/></g>
<g><path style="opacity:0.89" fill="#1d4872" d="M 1418.5,389.5 C 1424.17,389.5 1429.83,389.5 1435.5,389.5C 1439.03,399.582 1442.86,409.582 1447,419.5C 1451.45,409.991 1455.62,400.324 1459.5,390.5C 1465.17,389.167 1470.83,389.167 1476.5,390.5C 1475.34,391.95 1473.84,392.95 1472,393.5C 1471.33,406.167 1471.33,418.833 1472,431.5C 1473.84,432.05 1475.34,433.05 1476.5,434.5C 1469.87,435.497 1463.2,435.83 1456.5,435.5C 1456.5,434.5 1456.5,433.5 1456.5,432.5C 1457.83,432.5 1459.17,432.5 1460.5,432.5C 1460.67,422.494 1460.5,412.494 1460,402.5C 1455.47,413.086 1451.14,423.753 1447,434.5C 1445.67,435.167 1444.33,435.833 1443,436.5C 1438.33,425.167 1433.67,413.833 1429,402.5C 1428.33,412.167 1428.33,421.833 1429,431.5C 1430.84,432.05 1432.34,433.05 1433.5,434.5C 1428.5,435.833 1423.5,435.833 1418.5,434.5C 1419.66,433.05 1421.16,432.05 1423,431.5C 1423.67,418.833 1423.67,406.167 1423,393.5C 1421.93,392.809 1420.77,392.309 1419.5,392C 1418.75,391.329 1418.41,390.496 1418.5,389.5 Z"/></g>
<g><path style="opacity:0.937" fill="#1d4872" d="M 1669.5,389.5 C 1681.17,389.5 1692.83,389.5 1704.5,389.5C 1703.83,393.5 1703.17,397.5 1702.5,401.5C 1701.5,401.5 1700.5,401.5 1699.5,401.5C 1699.38,398.52 1698.71,395.687 1697.5,393C 1693.51,392.501 1689.51,392.334 1685.5,392.5C 1685.5,398.833 1685.5,405.167 1685.5,411.5C 1688.19,411.664 1690.85,411.497 1693.5,411C 1694.23,409.601 1694.73,408.101 1695,406.5C 1696.01,405.663 1697.18,405.33 1698.5,405.5C 1698.5,410.5 1698.5,415.5 1698.5,420.5C 1697.18,420.67 1696.01,420.337 1695,419.5C 1694.73,417.899 1694.23,416.399 1693.5,415C 1690.85,414.503 1688.19,414.336 1685.5,414.5C 1685.17,420.206 1685.5,425.872 1686.5,431.5C 1688.57,431.953 1690.23,432.953 1691.5,434.5C 1688,434.833 1684.5,435.167 1681,435.5C 1676.99,435.634 1673.15,435.134 1669.5,434C 1671.22,432.943 1673.05,432.11 1675,431.5C 1675.67,418.833 1675.67,406.167 1675,393.5C 1673.6,392.773 1672.1,392.273 1670.5,392C 1669.75,391.329 1669.41,390.496 1669.5,389.5 Z"/></g>
<g><path style="opacity:1" fill="#436fb6" d="M 275.5,384.5 C 276.167,391.5 276.833,398.5 277.5,405.5C 273.167,408.669 268.5,411.336 263.5,413.5C 261.85,407.062 260.85,400.395 260.5,393.5C 264.995,389.749 269.995,386.749 275.5,384.5 Z"/></g>
<g><path style="opacity:1" fill="#9bcdee" d="M 157.5,389.5 C 159.163,408.645 160.163,427.978 160.5,447.5C 157.81,450.185 154.81,452.518 151.5,454.5C 150.833,435.5 150.167,416.5 149.5,397.5C 151.833,394.5 154.5,391.833 157.5,389.5 Z"/></g>
<g><path style="opacity:1" fill="#2263b0" d="M 260.5,393.5 C 260.85,400.395 261.85,407.062 263.5,413.5C 180.496,463.978 102.663,521.644 30,586.5C 26.6717,574.88 25.8383,563.214 27.5,551.5C 28.0717,554.244 29.7383,555.077 32.5,554C 41.5846,549.47 49.9179,543.97 57.5,537.5C 62.5687,534.305 67.2354,530.638 71.5,526.5C 75.8962,523.975 79.8962,520.975 83.5,517.5C 86.8103,515.518 89.8103,513.185 92.5,510.5C 95.4323,509.2 97.7656,507.2 99.5,504.5C 102.533,502.984 105.2,500.984 107.5,498.5C 110.473,496.853 113.14,494.853 115.5,492.5C 118.473,490.853 121.14,488.853 123.5,486.5C 167.269,452.736 212.935,421.736 260.5,393.5 Z"/></g>
<g><path style="opacity:0.895" fill="#1d4872" d="M 1303.5,404.5 C 1309.11,403.908 1314.44,404.741 1319.5,407C 1322.53,410.592 1323.86,414.758 1323.5,419.5C 1316.5,419.5 1309.5,419.5 1302.5,419.5C 1302.99,427.817 1307.49,431.817 1316,431.5C 1318.5,431.083 1321,430.749 1323.5,430.5C 1323.67,431.822 1323.34,432.989 1322.5,434C 1312.8,437.999 1303.63,437.165 1295,431.5C 1288.52,419.441 1291.35,410.441 1303.5,404.5 Z M 1307.5,407.5 C 1311.92,408.78 1313.59,411.78 1312.5,416.5C 1309.1,416.82 1305.77,416.487 1302.5,415.5C 1303.19,412.09 1304.86,409.423 1307.5,407.5 Z"/></g>
<g><path style="opacity:0.895" fill="#1d4872" d="M 1339.5,404.5 C 1345.11,403.908 1350.44,404.741 1355.5,407C 1358.53,410.592 1359.86,414.758 1359.5,419.5C 1352.5,419.5 1345.5,419.5 1338.5,419.5C 1338.99,427.817 1343.49,431.817 1352,431.5C 1354.5,431.083 1357,430.749 1359.5,430.5C 1359.67,431.822 1359.34,432.989 1358.5,434C 1348.8,437.999 1339.63,437.165 1331,431.5C 1324.52,419.441 1327.35,410.441 1339.5,404.5 Z M 1343.5,407.5 C 1347.92,408.78 1349.59,411.78 1348.5,416.5C 1345.1,416.82 1341.77,416.487 1338.5,415.5C 1339.19,412.09 1340.86,409.423 1343.5,407.5 Z"/></g>
<g><path style="opacity:0.881" fill="#1d4872" d="M 1372.5,404.5 C 1374.77,404.141 1376.6,404.808 1378,406.5C 1393.73,401.36 1401.06,407.027 1400,423.5C 1398.5,430.333 1394.33,434.5 1387.5,436C 1384.18,436.498 1380.85,436.665 1377.5,436.5C 1377.5,440.5 1377.5,444.5 1377.5,448.5C 1379.66,448.116 1381.33,448.783 1382.5,450.5C 1375.86,451.664 1369.19,451.831 1362.5,451C 1361.17,450.333 1361.17,449.667 1362.5,449C 1363.79,448.51 1365.13,448.343 1366.5,448.5C 1366.5,435.833 1366.5,423.167 1366.5,410.5C 1364.32,410.716 1362.65,409.883 1361.5,408C 1365.29,406.886 1368.96,405.72 1372.5,404.5 Z M 1379.5,409.5 C 1386.52,410.027 1389.86,413.861 1389.5,421C 1390,427.872 1387,432.039 1380.5,433.5C 1379.56,433.392 1378.72,433.059 1378,432.5C 1376.92,424.565 1377.42,416.898 1379.5,409.5 Z"/></g>
<g><path style="opacity:0.885" fill="#1d4872" d="M 1491.5,404.5 C 1511.25,402.402 1518.42,410.736 1513,429.5C 1506.89,436.092 1499.39,438.258 1490.5,436C 1481.92,432.342 1478.42,425.842 1480,416.5C 1482.02,410.65 1485.85,406.65 1491.5,404.5 Z M 1495.5,407.5 C 1498.1,407.549 1500.27,408.549 1502,410.5C 1505.39,417.762 1505.22,424.929 1501.5,432C 1498.28,434.045 1495.45,433.545 1493,430.5C 1489.06,422.121 1489.89,414.454 1495.5,407.5 Z"/></g>
<g><path style="opacity:0.893" fill="#1d4872" d="M 1562.5,404.5 C 1563.83,404.5 1565.17,404.5 1566.5,404.5C 1566.33,413.506 1566.5,422.506 1567,431.5C 1568.84,432.05 1570.34,433.05 1571.5,434.5C 1564.83,435.833 1558.17,435.833 1551.5,434.5C 1552.67,432.783 1554.34,432.116 1556.5,432.5C 1556.5,425.167 1556.5,417.833 1556.5,410.5C 1553.91,410.604 1551.58,409.937 1549.5,408.5C 1548.83,408.833 1548.17,409.167 1547.5,409.5C 1543.64,417.75 1539.97,426.084 1536.5,434.5C 1534.7,435.768 1532.7,436.435 1530.5,436.5C 1527.3,427.418 1523.8,418.418 1520,409.5C 1518.16,408.95 1516.66,407.95 1515.5,406.5C 1521.46,405.504 1527.46,405.171 1533.5,405.5C 1533.5,406.5 1533.5,407.5 1533.5,408.5C 1532.45,408.351 1531.45,408.517 1530.5,409C 1532.4,413.534 1534.4,418.034 1536.5,422.5C 1538.76,418.317 1540.76,413.984 1542.5,409.5C 1541.26,408.719 1540.26,407.719 1539.5,406.5C 1544.83,405.319 1550.16,405.319 1555.5,406.5C 1558.08,406.276 1560.41,405.609 1562.5,404.5 Z"/></g>
<g><path style="opacity:0.919" fill="#1d4872" d="M 1584.5,404.5 C 1585.83,404.5 1587.17,404.5 1588.5,404.5C 1588.35,405.552 1588.52,406.552 1589,407.5C 1593.78,404.637 1598.95,403.804 1604.5,405C 1606.67,405.833 1608.17,407.333 1609,409.5C 1609.33,416.833 1609.67,424.167 1610,431.5C 1611.84,432.05 1613.34,433.05 1614.5,434.5C 1608.17,435.833 1601.83,435.833 1595.5,434.5C 1596.32,432.889 1597.65,432.222 1599.5,432.5C 1599.67,425.825 1599.5,419.158 1599,412.5C 1595.98,409.371 1592.48,408.704 1588.5,410.5C 1588.33,417.508 1588.5,424.508 1589,431.5C 1590.84,432.05 1592.34,433.05 1593.5,434.5C 1586.83,435.833 1580.17,435.833 1573.5,434.5C 1574.67,432.783 1576.34,432.116 1578.5,432.5C 1578.5,425.167 1578.5,417.833 1578.5,410.5C 1577.13,410.657 1575.79,410.49 1574.5,410C 1573.55,409.282 1573.38,408.449 1574,407.5C 1577.66,406.76 1581.16,405.76 1584.5,404.5 Z"/></g>
<g><path style="opacity:0.888" fill="#1d4872" d="M 1626.5,404.5 C 1635.23,404.409 1643.89,405.076 1652.5,406.5C 1649.94,407.641 1647.27,408.474 1644.5,409C 1647.78,415.071 1646.78,420.404 1641.5,425C 1636.26,426.339 1630.93,426.839 1625.5,426.5C 1625.33,427.822 1625.66,428.989 1626.5,430C 1632.83,430.333 1639.17,430.667 1645.5,431C 1652.89,436.03 1653.22,441.697 1646.5,448C 1639.4,452.204 1631.74,453.537 1623.5,452C 1615.33,448.815 1614.33,443.982 1620.5,437.5C 1617.77,432.796 1618.43,428.462 1622.5,424.5C 1616.2,416.207 1617.53,409.54 1626.5,404.5 Z M 1631.5,407.5 C 1635.81,408.607 1637.48,411.44 1636.5,416C 1637.3,419.782 1635.97,422.282 1632.5,423.5C 1629.43,421.531 1628.1,418.698 1628.5,415C 1628.11,411.832 1629.11,409.332 1631.5,407.5 Z M 1625.5,437.5 C 1631.26,437.149 1636.93,437.649 1642.5,439C 1643.93,444.621 1641.59,447.954 1635.5,449C 1625.67,450.352 1622.33,446.519 1625.5,437.5 Z"/></g>
<g><path style="opacity:0.885" fill="#1d4872" d="M 1717.5,404.5 C 1737.25,402.402 1744.42,410.736 1739,429.5C 1732.89,436.092 1725.39,438.258 1716.5,436C 1707.92,432.342 1704.42,425.842 1706,416.5C 1708.02,410.65 1711.85,406.65 1717.5,404.5 Z M 1721.5,407.5 C 1724.1,407.549 1726.27,408.549 1728,410.5C 1731.39,417.762 1731.22,424.929 1727.5,432C 1724.28,434.045 1721.45,433.545 1719,430.5C 1715.06,422.121 1715.89,414.454 1721.5,407.5 Z"/></g>
<g><path style="opacity:0.881" fill="#1d4872" d="M 1755.5,404.5 C 1756.83,404.5 1758.17,404.5 1759.5,404.5C 1759.35,405.552 1759.52,406.552 1760,407.5C 1762.57,405.808 1765.41,404.808 1768.5,404.5C 1775.51,405.056 1782.51,405.723 1789.5,406.5C 1788.51,407.665 1787.51,408.832 1786.5,410C 1787.8,414.243 1789.3,418.41 1791,422.5C 1793.65,417.401 1795.81,412.068 1797.5,406.5C 1799.05,405.548 1800.71,405.215 1802.5,405.5C 1803.83,411.314 1805.66,416.981 1808,422.5C 1810.23,418.54 1812.06,414.373 1813.5,410C 1812.49,408.832 1811.49,407.665 1810.5,406.5C 1814.83,405.167 1819.17,405.167 1823.5,406.5C 1822.34,407.95 1820.84,408.95 1819,409.5C 1815.21,417.711 1811.71,426.045 1808.5,434.5C 1806.7,435.768 1804.7,436.435 1802.5,436.5C 1800.78,430.832 1798.94,425.165 1797,419.5C 1794.87,424.759 1793.03,430.092 1791.5,435.5C 1789.4,436.231 1787.4,436.231 1785.5,435.5C 1782.24,427.54 1779.07,419.54 1776,411.5C 1775.65,409.82 1774.65,408.82 1773,408.5C 1771.32,411.095 1769.82,413.762 1768.5,416.5C 1766.9,414.573 1765.56,412.406 1764.5,410C 1763.1,409.405 1761.77,409.572 1760.5,410.5C 1759.34,417.476 1759.17,424.476 1760,431.5C 1762.18,431.988 1764.01,432.988 1765.5,434.5C 1758.5,435.833 1751.5,435.833 1744.5,434.5C 1745.67,432.783 1747.34,432.116 1749.5,432.5C 1749.5,425.167 1749.5,417.833 1749.5,410.5C 1748.13,410.657 1746.79,410.49 1745.5,410C 1744.55,409.282 1744.38,408.449 1745,407.5C 1748.66,406.76 1752.16,405.76 1755.5,404.5 Z"/></g>
<g><path style="opacity:0.894" fill="#1d4872" d="M 1833.5,404.5 C 1837.85,404.334 1842.18,404.501 1846.5,405C 1848.94,405.774 1850.77,407.274 1852,409.5C 1852.33,416.833 1852.67,424.167 1853,431.5C 1854.31,432.772 1855.81,433.772 1857.5,434.5C 1852.63,437.138 1847.79,437.138 1843,434.5C 1836.46,437.714 1830.46,437.047 1825,432.5C 1822.63,428.001 1823.47,424.168 1827.5,421C 1832.28,418.968 1837.28,418.134 1842.5,418.5C 1842.41,410.434 1838.41,407.767 1830.5,410.5C 1828.71,410.304 1827.38,409.471 1826.5,408C 1828.93,406.787 1831.26,405.621 1833.5,404.5 Z M 1839.5,421.5 C 1840.5,421.5 1841.5,421.5 1842.5,421.5C 1842.66,424.518 1842.5,427.518 1842,430.5C 1836.43,432.219 1834.1,430.219 1835,424.5C 1836.41,423.219 1837.91,422.219 1839.5,421.5 Z"/></g>
<g><path style="opacity:0.901" fill="#1d4872" d="M 1869.5,404.5 C 1870.83,404.5 1872.17,404.5 1873.5,404.5C 1873.35,405.552 1873.52,406.552 1874,407.5C 1877.47,405.177 1881.31,404.177 1885.5,404.5C 1885.53,408.484 1884.86,412.317 1883.5,416C 1882.55,416.617 1881.72,416.451 1881,415.5C 1880.55,413.481 1879.72,411.648 1878.5,410C 1877.1,409.405 1875.77,409.572 1874.5,410.5C 1873.34,417.476 1873.17,424.476 1874,431.5C 1876.18,431.988 1878.01,432.988 1879.5,434.5C 1872.5,435.833 1865.5,435.833 1858.5,434.5C 1859.67,432.783 1861.34,432.116 1863.5,432.5C 1863.5,425.167 1863.5,417.833 1863.5,410.5C 1862.13,410.657 1860.79,410.49 1859.5,410C 1858.55,409.282 1858.38,408.449 1859,407.5C 1862.66,406.76 1866.16,405.76 1869.5,404.5 Z"/></g>
<g><path style="opacity:1" fill="#b1d7f2" d="M 149.5,397.5 C 150.167,416.5 150.833,435.5 151.5,454.5C 147.376,458.281 142.709,461.281 137.5,463.5C 136.668,446.338 136.168,429.005 136,411.5C 135.184,412.823 134.017,413.489 132.5,413.5C 137.557,407.441 143.224,402.107 149.5,397.5 Z"/></g>
<g><path style="opacity:1" fill="#c1dff5" d="M 137.5,463.5 C 135.151,465.341 132.485,466.674 129.5,467.5C 127.679,452.199 126.845,436.532 127,420.5C 126.184,421.823 125.017,422.489 123.5,422.5C 126.167,419.167 129.167,416.167 132.5,413.5C 134.017,413.489 135.184,412.823 136,411.5C 136.168,429.005 136.668,446.338 137.5,463.5 Z"/></g>
<g><path style="opacity:1" fill="#eff0f0" d="M 971.5,457.5 C 960.277,472.062 947.943,485.729 934.5,498.5C 934.5,494.833 934.5,491.167 934.5,487.5C 943.54,477.795 952.207,467.795 960.5,457.5C 980.271,436.055 996.937,412.389 1010.5,386.5C 1028.39,354.968 1038.22,320.968 1040,284.5C 1040.76,313.862 1035.76,342.196 1025,369.5C 1011.46,401.595 993.631,430.928 971.5,457.5 Z"/></g>
<g><path style="opacity:1" fill="#d5e9f8" d="M 129.5,467.5 C 123.615,470.798 117.282,473.131 110.5,474.5C 109.688,462.909 109.188,451.242 109,439.5C 108.617,440.056 108.117,440.389 107.5,440.5C 112.468,434.197 117.802,428.197 123.5,422.5C 125.017,422.489 126.184,421.823 127,420.5C 126.845,436.532 127.679,452.199 129.5,467.5 Z"/></g>
<g><path style="opacity:1" fill="#898b8e" d="M 297.5,462.5 C 296.509,469.313 296.175,476.313 296.5,483.5C 293.941,483.198 291.607,483.532 289.5,484.5C 287.525,467.606 289.192,450.939 294.5,434.5C 294.167,434.167 293.833,433.833 293.5,433.5C 280.139,441.511 266.806,449.511 253.5,457.5C 249.5,456.833 245.5,456.167 241.5,455.5C 262.857,441.061 285.023,427.728 308,415.5C 303.413,430.854 299.913,446.52 297.5,462.5 Z"/></g>
<g><path style="opacity:1" fill="#e7f2fb" d="M 110.5,474.5 C 107.214,475.207 103.881,475.54 100.5,475.5C 100.826,466.651 100.493,457.984 99.5,449.5C 101.43,445.9 104.097,442.9 107.5,440.5C 108.117,440.389 108.617,440.056 109,439.5C 109.188,451.242 109.688,462.909 110.5,474.5 Z"/></g>
<g><path style="opacity:1" fill="#ececed" d="M 901.5,457.5 C 886.745,470.592 871.411,482.926 855.5,494.5C 854.527,492.052 854.194,489.385 854.5,486.5C 866.862,477.65 878.862,468.317 890.5,458.5C 912.761,440.407 933.261,420.407 952,398.5C 968.955,378.272 982.622,355.938 993,331.5C 987.561,352.717 978.561,372.384 966,390.5C 946.37,414.63 924.87,436.963 901.5,457.5 Z"/></g>
<g><path style="opacity:1" fill="#848588" d="M 241.5,455.5 C 245.5,456.167 249.5,456.833 253.5,457.5C 246.833,461.833 240.167,466.167 233.5,470.5C 217.314,480.425 201.647,491.091 186.5,502.5C 183.023,501.677 179.356,501.177 175.5,501C 176.056,500.617 176.389,500.117 176.5,499.5C 197.294,483.599 218.96,468.932 241.5,455.5 Z"/></g>
<g><path style="opacity:0.975" fill="#858689" d="M 881.5,455.5 C 883.969,456.317 886.635,456.817 889.5,457C 890.056,457.383 890.389,457.883 890.5,458.5C 878.862,468.317 866.862,477.65 854.5,486.5C 843.502,494.001 832.168,501.001 820.5,507.5C 815.695,506.513 810.695,506.179 805.5,506.5C 831.901,491.101 857.234,474.101 881.5,455.5 Z"/></g>
<g><path style="opacity:1" fill="#848588" d="M 901.5,457.5 C 921.167,457.5 940.833,457.5 960.5,457.5C 952.207,467.795 943.54,477.795 934.5,487.5C 927.5,494.167 920.5,500.833 913.5,507.5C 889.339,506.502 865.006,506.169 840.5,506.5C 845.5,502.5 850.5,498.5 855.5,494.5C 871.411,482.926 886.745,470.592 901.5,457.5 Z"/></g>
<g><path style="opacity:1" fill="#848689" d="M 971.5,457.5 C 976.032,457.182 980.366,457.515 984.5,458.5C 977.907,467.605 971.074,476.605 964,485.5C 957.3,493.03 950.467,500.364 943.5,507.5C 938.695,506.513 933.695,506.179 928.5,506.5C 930.909,504.098 932.909,501.431 934.5,498.5C 947.943,485.729 960.277,472.062 971.5,457.5 Z"/></g>
<g><path style="opacity:1" fill="#989a9d" d="M 233.5,470.5 C 233.5,487.833 233.5,505.167 233.5,522.5C 215.56,509.142 196.227,506.976 175.5,516C 168.391,518.72 161.725,522.22 155.5,526.5C 154.707,525.645 155.04,524.811 156.5,524C 166.379,516.615 176.379,509.448 186.5,502.5C 201.647,491.091 217.314,480.425 233.5,470.5 Z"/></g>
<g><path style="opacity:1" fill="#deedfa" d="M 69.5,485.5 C 87.3256,486.497 105.326,486.83 123.5,486.5C 121.14,488.853 118.473,490.853 115.5,492.5C 98.4665,493.152 81.7998,492.485 65.5,490.5C 66.1237,488.246 67.457,486.579 69.5,485.5 Z"/></g>
<g><path style="opacity:1" fill="#cae3f6" d="M 65.5,490.5 C 81.7998,492.485 98.4665,493.152 115.5,492.5C 113.14,494.853 110.473,496.853 107.5,498.5C 91.6578,498.83 75.9911,498.496 60.5,497.5C 61.7859,494.883 63.4525,492.55 65.5,490.5 Z"/></g>
<g><path style="opacity:1" fill="#e4e5e5" d="M 934.5,487.5 C 934.5,491.167 934.5,494.833 934.5,498.5C 932.909,501.431 930.909,504.098 928.5,506.5C 914.141,519.861 899.807,533.195 885.5,546.5C 882.482,548.526 879.482,550.526 876.5,552.5C 876.5,548.833 876.5,545.167 876.5,541.5C 882.177,535.824 888.177,530.491 894.5,525.5C 901.066,519.722 907.4,513.722 913.5,507.5C 920.5,500.833 927.5,494.167 934.5,487.5 Z"/></g>
<g><path style="opacity:0.999" fill="#b5d8f3" d="M 60.5,497.5 C 75.9911,498.496 91.6578,498.83 107.5,498.5C 105.2,500.984 102.533,502.984 99.5,504.5C 84.7943,505.15 70.461,504.483 56.5,502.5C 57.604,500.611 58.9373,498.945 60.5,497.5 Z"/></g>
<g><path style="opacity:1" fill="#a0a2a5" d="M 289.5,484.5 C 290.392,499.405 294.392,513.405 301.5,526.5C 300.503,548.327 300.169,570.327 300.5,592.5C 289.366,585.931 279.366,577.931 270.5,568.5C 262.59,558.345 254.923,548.012 247.5,537.5C 243.511,531.845 238.844,526.845 233.5,522.5C 233.5,505.167 233.5,487.833 233.5,470.5C 240.167,466.167 246.833,461.833 253.5,457.5C 266.806,449.511 280.139,441.511 293.5,433.5C 293.833,433.833 294.167,434.167 294.5,434.5C 289.192,450.939 287.525,467.606 289.5,484.5 Z"/></g>
<g><path style="opacity:1" fill="#7e7f82" d="M 840.5,506.5 C 865.006,506.169 889.339,506.502 913.5,507.5C 907.4,513.722 901.066,519.722 894.5,525.5C 867.338,524.502 840.005,524.169 812.5,524.5C 821.825,518.503 831.159,512.503 840.5,506.5 Z"/></g>
<g><path style="opacity:1" fill="#a1d0ef" d="M 56.5,502.5 C 70.461,504.483 84.7943,505.15 99.5,504.5C 97.7656,507.2 95.4323,509.2 92.5,510.5C 78.6565,510.829 64.9898,510.496 51.5,509.5C 52.9336,506.953 54.6002,504.619 56.5,502.5 Z"/></g>
<g><path style="opacity:0.994" fill="#8cc6ec" d="M 51.5,509.5 C 64.9898,510.496 78.6565,510.829 92.5,510.5C 89.8103,513.185 86.8103,515.518 83.5,517.5C 71.2647,516.18 58.9313,516.18 46.5,517.5C 47.6693,514.489 49.336,511.822 51.5,509.5 Z"/></g>
<g><path style="opacity:1" fill="#72bde9" d="M 83.5,517.5 C 79.8962,520.975 75.8962,523.975 71.5,526.5C 61.6806,525.506 51.6806,525.173 41.5,525.5C 42.6693,522.489 44.336,519.822 46.5,517.5C 58.9313,516.18 71.2647,516.18 83.5,517.5 Z"/></g>
<g><path style="opacity:1" fill="#7b7c7f" d="M 176.5,499.5 C 176.389,500.117 176.056,500.617 175.5,501C 179.356,501.177 183.023,501.677 186.5,502.5C 176.379,509.448 166.379,516.615 156.5,524C 155.04,524.811 154.707,525.645 155.5,526.5C 161.725,522.22 168.391,518.72 175.5,516C 196.227,506.976 215.56,509.142 233.5,522.5C 238.844,526.845 243.511,531.845 247.5,537.5C 219.833,537.5 192.167,537.5 164.5,537.5C 165.82,534.86 167.153,532.193 168.5,529.5C 166.048,528.686 163.715,529.186 161.5,531C 150.339,539.333 139.339,547.833 128.5,556.5C 121.011,555.671 113.344,555.171 105.5,555C 106.381,554.292 107.047,553.458 107.5,552.5C 129.64,533.691 152.64,516.025 176.5,499.5 Z"/></g>
<g><path style="opacity:0.994" fill="#7c7d80" d="M 805.5,506.5 C 810.695,506.179 815.695,506.513 820.5,507.5C 804.116,516.692 787.45,525.359 770.5,533.5C 759.611,538.445 748.611,543.112 737.5,547.5C 730.687,546.509 723.687,546.175 716.5,546.5C 746.958,535.108 776.624,521.775 805.5,506.5 Z"/></g>
<g><path style="opacity:1" fill="#7a7b7e" d="M 812.5,524.5 C 840.005,524.169 867.338,524.502 894.5,525.5C 888.177,530.491 882.177,535.824 876.5,541.5C 869.833,546.5 863.167,551.5 856.5,556.5C 823.338,555.502 790.004,555.168 756.5,555.5C 761.167,552.833 765.833,550.167 770.5,547.5C 784.99,540.665 798.99,532.998 812.5,524.5 Z"/></g>
<g><path style="opacity:1" fill="#7c7d80" d="M 928.5,506.5 C 933.695,506.179 938.695,506.513 943.5,507.5C 931.132,522.202 917.465,535.536 902.5,547.5C 897.025,546.511 891.358,546.178 885.5,546.5C 899.807,533.195 914.141,519.861 928.5,506.5 Z"/></g>
<g><path style="opacity:1" fill="#dfe0e1" d="M 854.5,486.5 C 854.194,489.385 854.527,492.052 855.5,494.5C 850.5,498.5 845.5,502.5 840.5,506.5C 831.159,512.503 821.825,518.503 812.5,524.5C 798.99,532.998 784.99,540.665 770.5,547.5C 769.203,542.934 769.203,538.267 770.5,533.5C 787.45,525.359 804.116,516.692 820.5,507.5C 832.168,501.001 843.502,494.001 854.5,486.5 Z"/></g>
<g><path style="opacity:1" fill="#3cafe3" d="M 41.5,525.5 C 51.6806,525.173 61.6806,525.506 71.5,526.5C 67.2354,530.638 62.5687,534.305 57.5,537.5C 49.8333,537.5 42.1667,537.5 34.5,537.5C 36.0435,532.976 38.3768,528.976 41.5,525.5 Z"/></g>
<g><path style="opacity:1" fill="#16a3de" d="M 34.5,537.5 C 42.1667,537.5 49.8333,537.5 57.5,537.5C 49.9179,543.97 41.5846,549.47 32.5,554C 29.7383,555.077 28.0717,554.244 27.5,551.5C 28.7986,546.236 31.1319,541.569 34.5,537.5 Z"/></g>
<g><path style="opacity:1" fill="#7a7c7f" d="M 297.5,462.5 C 294.333,497.358 305.666,526.358 331.5,549.5C 328.167,550.167 324.833,550.833 321.5,551.5C 313.344,544.345 306.677,536.012 301.5,526.5C 294.392,513.405 290.392,499.405 289.5,484.5C 291.607,483.532 293.941,483.198 296.5,483.5C 296.175,476.313 296.509,469.313 297.5,462.5 Z"/></g>
<g><path style="opacity:1" fill="#a5a7aa" d="M 301.5,526.5 C 306.677,536.012 313.344,544.345 321.5,551.5C 323.833,553.167 325.833,555.167 327.5,557.5C 327.5,573.167 327.5,588.833 327.5,604.5C 326.833,604.5 326.167,604.5 325.5,604.5C 317.079,600.79 308.746,596.79 300.5,592.5C 300.169,570.327 300.503,548.327 301.5,526.5 Z"/></g>
<g><path style="opacity:1" fill="#757679" d="M 164.5,537.5 C 192.167,537.5 219.833,537.5 247.5,537.5C 254.923,548.012 262.59,558.345 270.5,568.5C 228.5,568.5 186.5,568.5 144.5,568.5C 150.931,557.96 157.598,547.627 164.5,537.5 Z"/></g>
<g><path style="opacity:1" fill="#d7d8d9" d="M 770.5,533.5 C 769.203,538.267 769.203,542.934 770.5,547.5C 765.833,550.167 761.167,552.833 756.5,555.5C 738.923,563.805 720.923,571.138 702.5,577.5C 702.211,571.409 702.545,565.409 703.5,559.5C 714.882,555.706 726.215,551.706 737.5,547.5C 748.611,543.112 759.611,538.445 770.5,533.5 Z"/></g>
<g><path style="opacity:1" fill="#737477" d="M 107.5,552.5 C 107.047,553.458 106.381,554.292 105.5,555C 113.344,555.171 121.011,555.671 128.5,556.5C 123.848,559.821 119.515,563.487 115.5,567.5C 106.752,573.216 98.7522,579.883 91.5,587.5C 91.1667,587.5 90.8333,587.5 90.5,587.5C 83.3448,586.671 76.0115,586.171 68.5,586C 69.7101,584.961 70.7101,583.794 71.5,582.5C 82.7521,571.549 94.7521,561.549 107.5,552.5 Z"/></g>
<g><path style="opacity:1" fill="#dbdcdd" d="M 876.5,541.5 C 876.5,545.167 876.5,548.833 876.5,552.5C 858.793,568.523 839.793,582.856 819.5,595.5C 818.517,591.702 818.183,587.702 818.5,583.5C 831.723,575.277 844.389,566.277 856.5,556.5C 863.167,551.5 869.833,546.5 876.5,541.5 Z"/></g>
<g><path style="opacity:1" fill="#aaacaf" d="M 327.5,557.5 C 350.505,573.914 375.838,584.914 403.5,590.5C 403.192,600.915 403.525,611.249 404.5,621.5C 377.895,619.515 352.228,613.848 327.5,604.5C 327.5,588.833 327.5,573.167 327.5,557.5 Z"/></g>
<g><path style="opacity:1" fill="#ededee" d="M 115.5,567.5 C 115.832,607.004 115.499,646.337 114.5,685.5C 109.5,682.833 104.5,680.167 99.5,677.5C 96.319,675.408 93.319,673.075 90.5,670.5C 91.4979,643.005 91.8313,615.338 91.5,587.5C 98.7522,579.883 106.752,573.216 115.5,567.5 Z"/></g>
<g><path style="opacity:1" fill="#cccdcf" d="M 703.5,559.5 C 702.545,565.409 702.211,571.409 702.5,577.5C 694.279,581.11 685.946,584.443 677.5,587.5C 656.517,593.943 635.517,599.943 614.5,605.5C 612.194,605.993 609.861,606.326 607.5,606.5C 606.5,606.5 605.5,606.5 604.5,606.5C 604.5,599.167 604.5,591.833 604.5,584.5C 638.035,578.2 671.035,569.866 703.5,559.5 Z"/></g>
<g><path style="opacity:1" fill="#727376" d="M 756.5,555.5 C 790.004,555.168 823.338,555.502 856.5,556.5C 844.389,566.277 831.723,575.277 818.5,583.5C 816.343,585.412 814.009,587.079 811.5,588.5C 767.003,587.501 722.336,587.168 677.5,587.5C 685.946,584.443 694.279,581.11 702.5,577.5C 720.923,571.138 738.923,563.805 756.5,555.5 Z"/></g>
<g><path style="opacity:1" fill="#6f7072" d="M 144.5,568.5 C 186.5,568.5 228.5,568.5 270.5,568.5C 279.366,577.931 289.366,585.931 300.5,592.5C 308.746,596.79 317.079,600.79 325.5,604.5C 258.833,604.5 192.167,604.5 125.5,604.5C 130.294,591.575 136.627,579.575 144.5,568.5 Z"/></g>
<g><path style="opacity:0.988" fill="#717275" d="M 716.5,546.5 C 723.687,546.175 730.687,546.509 737.5,547.5C 726.215,551.706 714.882,555.706 703.5,559.5C 671.035,569.866 638.035,578.2 604.5,584.5C 586.512,587.567 568.512,590.233 550.5,592.5C 519.887,595.146 489.221,596.813 458.5,597.5C 440.206,595.921 421.873,593.588 403.5,590.5C 375.838,584.914 350.505,573.914 327.5,557.5C 325.833,555.167 323.833,553.167 321.5,551.5C 324.833,550.833 328.167,550.167 331.5,549.5C 361.058,570.415 394.058,582.581 430.5,586C 528.397,591.562 623.731,578.396 716.5,546.5 Z"/></g>
<g><path style="opacity:1" fill="#727376" d="M 885.5,546.5 C 891.358,546.178 897.025,546.511 902.5,547.5C 883.304,566.033 862.638,582.7 840.5,597.5C 833.687,596.509 826.687,596.175 819.5,596.5C 819.5,596.167 819.5,595.833 819.5,595.5C 839.793,582.856 858.793,568.523 876.5,552.5C 879.482,550.526 882.482,548.526 885.5,546.5 Z"/></g>
<g><path style="opacity:1" fill="#c5c6c8" d="M 604.5,584.5 C 604.5,591.833 604.5,599.167 604.5,606.5C 605.5,606.5 606.5,606.5 607.5,606.5C 588.892,611.352 569.892,614.685 550.5,616.5C 550.5,608.5 550.5,600.5 550.5,592.5C 568.512,590.233 586.512,587.567 604.5,584.5 Z"/></g>
<g><path style="opacity:1" fill="#b1b3b6" d="M 403.5,590.5 C 421.873,593.588 440.206,595.921 458.5,597.5C 456.5,597.5 454.5,597.5 452.5,597.5C 452.5,606.167 452.5,614.833 452.5,623.5C 436.445,623.862 420.445,623.195 404.5,621.5C 403.525,611.249 403.192,600.915 403.5,590.5 Z"/></g>
<g><path style="opacity:1" fill="#6e6f71" d="M 677.5,587.5 C 722.336,587.168 767.003,587.501 811.5,588.5C 801.5,594.5 791.5,600.5 781.5,606.5C 726.002,605.501 670.336,605.168 614.5,605.5C 635.517,599.943 656.517,593.943 677.5,587.5 Z"/></g>
<g><path style="opacity:1" fill="#bbbdbf" d="M 550.5,592.5 C 550.5,600.5 550.5,608.5 550.5,616.5C 518.067,621.379 485.4,623.713 452.5,623.5C 452.5,614.833 452.5,606.167 452.5,597.5C 454.5,597.5 456.5,597.5 458.5,597.5C 489.221,596.813 519.887,595.146 550.5,592.5 Z"/></g>
<g><path style="opacity:1" fill="#f2f3f3" d="M 90.5,587.5 C 90.8333,587.5 91.1667,587.5 91.5,587.5C 91.8313,615.338 91.4979,643.005 90.5,670.5C 79.1204,664.381 69.6204,656.047 62,645.5C 60.8551,642.568 60.0218,639.568 59.5,636.5C 58.5418,628.913 60.0418,621.913 64,615.5C 71.2932,604.707 80.1265,595.374 90.5,587.5 Z"/></g>
<g><path style="opacity:1" fill="#d2d3d5" d="M 818.5,583.5 C 818.183,587.702 818.517,591.702 819.5,595.5C 819.5,595.833 819.5,596.167 819.5,596.5C 800.328,608.922 780.662,620.589 760.5,631.5C 760.5,627.167 760.5,622.833 760.5,618.5C 767.663,614.753 774.663,610.753 781.5,606.5C 791.5,600.5 801.5,594.5 811.5,588.5C 814.009,587.079 816.343,585.412 818.5,583.5 Z"/></g>
<g><path style="opacity:1" fill="#696a6c" d="M 125.5,604.5 C 192.167,604.5 258.833,604.5 325.5,604.5C 326.167,604.5 326.833,604.5 327.5,604.5C 352.228,613.848 377.895,619.515 404.5,621.5C 420.445,623.195 436.445,623.862 452.5,623.5C 485.4,623.713 518.067,621.379 550.5,616.5C 569.892,614.685 588.892,611.352 607.5,606.5C 609.861,606.326 612.194,605.993 614.5,605.5C 670.336,605.168 726.002,605.501 781.5,606.5C 774.663,610.753 767.663,614.753 760.5,618.5C 754.325,622.088 747.991,625.422 741.5,628.5C 534.334,627.5 327.001,627.167 119.5,627.5C 119.5,630.5 119.5,633.5 119.5,636.5C 118.268,625.319 120.268,614.652 125.5,604.5 Z"/></g>
<g><path style="opacity:1" fill="#6a6b6e" d="M 71.5,582.5 C 70.7101,583.794 69.7101,584.961 68.5,586C 76.0115,586.171 83.3448,586.671 90.5,587.5C 80.1265,595.374 71.2932,604.707 64,615.5C 60.0418,621.913 58.5418,628.913 59.5,636.5C 58.5233,633.713 58.19,630.713 58.5,627.5C 46.1622,627.667 33.8288,627.5 21.5,627C 22.3805,626.292 23.0472,625.458 23.5,624.5C 38.7417,609.56 54.7417,595.56 71.5,582.5 Z"/></g>
<g><path style="opacity:1" fill="#696a6c" d="M 819.5,596.5 C 826.687,596.175 833.687,596.509 840.5,597.5C 810.676,619.591 779.009,638.925 745.5,655.5C 736.014,654.506 726.348,654.173 716.5,654.5C 731.482,647.343 746.148,639.677 760.5,631.5C 780.662,620.589 800.328,608.922 819.5,596.5 Z"/></g>
<g><path style="opacity:1" fill="#636466" d="M 23.5,624.5 C 23.0472,625.458 22.3805,626.292 21.5,627C 33.8288,627.5 46.1622,627.667 58.5,627.5C 58.19,630.713 58.5233,633.713 59.5,636.5C 60.0218,639.568 60.8551,642.568 62,645.5C 69.6204,656.047 79.1204,664.381 90.5,670.5C 93.319,673.075 96.319,675.408 99.5,677.5C 89.8333,677.5 80.1667,677.5 70.5,677.5C 50.8119,663.983 33.4786,647.816 18.5,629C 19.3988,626.599 21.0655,625.099 23.5,624.5 Z"/></g>
<g><path style="opacity:1" fill="#666769" d="M 741.5,628.5 C 729.076,635.046 716.409,641.046 703.5,646.5C 510.001,645.5 316.334,645.167 122.5,645.5C 120.69,642.855 119.69,639.855 119.5,636.5C 119.5,633.5 119.5,630.5 119.5,627.5C 327.001,627.167 534.334,627.5 741.5,628.5 Z"/></g>
<g><path style="opacity:1" fill="#cacbcd" d="M 760.5,618.5 C 760.5,622.833 760.5,627.167 760.5,631.5C 746.148,639.677 731.482,647.343 716.5,654.5C 712.245,656.363 707.912,658.03 703.5,659.5C 702.517,655.702 702.183,651.702 702.5,647.5C 702.5,646.833 702.833,646.5 703.5,646.5C 716.409,641.046 729.076,635.046 741.5,628.5C 747.991,625.422 754.325,622.088 760.5,618.5 Z"/></g>
<g><path style="opacity:1" fill="#e1e2e2" d="M 164.5,537.5 C 157.598,547.627 150.931,557.96 144.5,568.5C 136.627,579.575 130.294,591.575 125.5,604.5C 120.268,614.652 118.268,625.319 119.5,636.5C 119.69,639.855 120.69,642.855 122.5,645.5C 124,649.173 126,652.506 128.5,655.5C 134.858,663.189 142.191,669.856 150.5,675.5C 150.5,684.5 150.5,693.5 150.5,702.5C 137.958,697.895 125.958,692.228 114.5,685.5C 115.499,646.337 115.832,607.004 115.5,567.5C 119.515,563.487 123.848,559.821 128.5,556.5C 139.339,547.833 150.339,539.333 161.5,531C 163.715,529.186 166.048,528.686 168.5,529.5C 167.153,532.193 165.82,534.86 164.5,537.5 Z"/></g>
<g><path style="opacity:1" fill="#636466" d="M 122.5,645.5 C 316.334,645.167 510.001,645.5 703.5,646.5C 702.833,646.5 702.5,646.833 702.5,647.5C 695.829,650.169 689.162,652.836 682.5,655.5C 497.833,654.167 313.167,654.167 128.5,655.5C 126,652.506 124,649.173 122.5,645.5 Z"/></g>
<g><path style="opacity:1" fill="#606062" d="M 682.5,655.5 C 671.579,660.029 660.579,664.363 649.5,668.5C 640.679,671.107 632.012,674.107 623.5,677.5C 466.833,676.167 310.167,676.167 153.5,677.5C 152.5,676.833 151.5,676.167 150.5,675.5C 142.191,669.856 134.858,663.189 128.5,655.5C 313.167,654.167 497.833,654.167 682.5,655.5 Z"/></g>
<g><path style="opacity:1" fill="#626264" d="M 716.5,654.5 C 726.348,654.173 736.014,654.506 745.5,655.5C 730.056,664.221 714.056,671.888 697.5,678.5C 697.611,677.883 697.944,677.383 698.5,677C 687.172,676.5 675.838,676.333 664.5,676.5C 677.748,671.417 690.748,665.75 703.5,659.5C 707.912,658.03 712.245,656.363 716.5,654.5 Z"/></g>
<g><path style="opacity:1" fill="#c2c3c5" d="M 702.5,647.5 C 702.183,651.702 702.517,655.702 703.5,659.5C 690.748,665.75 677.748,671.417 664.5,676.5C 659.574,678.364 654.574,680.031 649.5,681.5C 648.206,677.267 648.206,672.934 649.5,668.5C 660.579,664.363 671.579,660.029 682.5,655.5C 689.162,652.836 695.829,650.169 702.5,647.5 Z"/></g>
<g><path style="opacity:1" fill="#5c5d5f" d="M 153.5,677.5 C 310.167,676.167 466.833,676.167 623.5,677.5C 612.438,680.681 601.438,684.015 590.5,687.5C 450.5,686.167 310.5,686.167 170.5,687.5C 164.669,684.419 159.002,681.085 153.5,677.5 Z"/></g>
<g><path style="opacity:1" fill="#b9bbbd" d="M 649.5,668.5 C 648.206,672.934 648.206,677.267 649.5,681.5C 630.287,688.792 610.621,695.125 590.5,700.5C 590.5,696.167 590.5,691.833 590.5,687.5C 601.438,684.015 612.438,680.681 623.5,677.5C 632.012,674.107 640.679,671.107 649.5,668.5 Z"/></g>
<g><path style="opacity:0.999" fill="#5a5a5c" d="M 70.5,677.5 C 80.1667,677.5 89.8333,677.5 99.5,677.5C 104.5,680.167 109.5,682.833 114.5,685.5C 125.958,692.228 137.958,697.895 150.5,702.5C 150.5,702.833 150.5,703.167 150.5,703.5C 137.833,703.5 125.167,703.5 112.5,703.5C 97.4862,696.334 83.4862,687.667 70.5,677.5 Z"/></g>
<g><path style="opacity:1" fill="#59595b" d="M 170.5,687.5 C 310.5,686.167 450.5,686.167 590.5,687.5C 571.233,692.483 551.9,697.15 532.5,701.5C 527.752,702.249 523.085,703.249 518.5,704.5C 415.5,703.167 312.5,703.167 209.5,704.5C 203.689,702.425 198.022,700.092 192.5,697.5C 184.955,694.729 177.621,691.396 170.5,687.5 Z"/></g>
<g><path style="opacity:1" fill="#cbccce" d="M 150.5,675.5 C 151.5,676.167 152.5,676.833 153.5,677.5C 159.002,681.085 164.669,684.419 170.5,687.5C 177.621,691.396 184.955,694.729 192.5,697.5C 192.5,704.167 192.5,710.833 192.5,717.5C 178.301,713.434 164.301,708.767 150.5,703.5C 150.5,703.167 150.5,702.833 150.5,702.5C 150.5,693.5 150.5,684.5 150.5,675.5 Z"/></g>
<g><path style="opacity:1" fill="#b1b2b5" d="M 590.5,687.5 C 590.5,691.833 590.5,696.167 590.5,700.5C 571.949,706.585 552.949,711.252 533.5,714.5C 532.515,710.366 532.182,706.032 532.5,701.5C 551.9,697.15 571.233,692.483 590.5,687.5 Z"/></g>
<g><path style="opacity:1" fill="#555658" d="M 209.5,704.5 C 312.5,703.167 415.5,703.167 518.5,704.5C 504.507,706.833 490.507,709.166 476.5,711.5C 456.565,714.313 436.565,716.646 416.5,718.5C 387.224,720.871 357.89,722.038 328.5,722C 334.565,723.708 340.565,725.208 346.5,726.5C 328.326,726.17 310.326,726.503 292.5,727.5C 277.32,724.622 262.32,720.955 247.5,716.5C 234.653,712.871 221.986,708.871 209.5,704.5 Z"/></g>
<g><path style="opacity:1" fill="#bdbfc1" d="M 192.5,697.5 C 198.022,700.092 203.689,702.425 209.5,704.5C 221.986,708.871 234.653,712.871 247.5,716.5C 248.794,720.934 248.794,725.267 247.5,729.5C 228.677,727.207 210.344,723.207 192.5,717.5C 192.5,710.833 192.5,704.167 192.5,697.5 Z"/></g>
<g><path style="opacity:1" fill="#a8aaad" d="M 532.5,701.5 C 532.182,706.032 532.515,710.366 533.5,714.5C 514.157,719.217 494.49,722.884 474.5,725.5C 473.985,720.52 474.652,715.854 476.5,711.5C 490.507,709.166 504.507,706.833 518.5,704.5C 523.085,703.249 527.752,702.249 532.5,701.5 Z"/></g>
<g><path style="opacity:1" fill="#58585a" d="M 664.5,676.5 C 675.838,676.333 687.172,676.5 698.5,677C 697.944,677.383 697.611,677.883 697.5,678.5C 649.112,699.629 599.112,715.962 547.5,727.5C 522.005,726.502 496.339,726.169 470.5,726.5C 471.568,725.566 472.901,725.232 474.5,725.5C 494.49,722.884 514.157,719.217 533.5,714.5C 552.949,711.252 571.949,706.585 590.5,700.5C 610.621,695.125 630.287,688.792 649.5,681.5C 654.574,680.031 659.574,678.364 664.5,676.5 Z"/></g>
<g><path style="opacity:1" fill="#a1a3a6" d="M 476.5,711.5 C 474.652,715.854 473.985,720.52 474.5,725.5C 472.901,725.232 471.568,725.566 470.5,726.5C 452.557,728.448 434.557,729.448 416.5,729.5C 416.5,725.833 416.5,722.167 416.5,718.5C 436.565,716.646 456.565,714.313 476.5,711.5 Z"/></g>
<g><path style="opacity:1" fill="#abadb0" d="M 247.5,716.5 C 262.32,720.955 277.32,724.622 292.5,727.5C 298.461,728.716 304.461,729.716 310.5,730.5C 311.234,731.708 311.567,733.041 311.5,734.5C 305.833,734.5 300.167,734.5 294.5,734.5C 278.627,733.547 262.961,731.88 247.5,729.5C 248.794,725.267 248.794,720.934 247.5,716.5 Z"/></g>
<g><path style="opacity:1" fill="#97999c" d="M 416.5,718.5 C 416.5,722.167 416.5,725.833 416.5,729.5C 393.089,730.027 369.755,729.027 346.5,726.5C 340.565,725.208 334.565,723.708 328.5,722C 357.89,722.038 387.224,720.871 416.5,718.5 Z"/></g>
<g><path style="opacity:1" fill="#525355" d="M 112.5,703.5 C 125.167,703.5 137.833,703.5 150.5,703.5C 164.301,708.767 178.301,713.434 192.5,717.5C 210.344,723.207 228.677,727.207 247.5,729.5C 262.961,731.88 278.627,733.547 294.5,734.5C 294.5,734.833 294.5,735.167 294.5,735.5C 262.329,735.168 230.329,735.502 198.5,736.5C 168.394,729.024 139.727,718.024 112.5,703.5 Z"/></g>
<g><path style="opacity:1" fill="#929497" d="M 310.5,730.5 C 323.717,732.808 337.051,734.308 350.5,735C 331.836,735.5 313.17,735.667 294.5,735.5C 294.5,735.167 294.5,734.833 294.5,734.5C 300.167,734.5 305.833,734.5 311.5,734.5C 311.567,733.041 311.234,731.708 310.5,730.5 Z"/></g>
<g><path style="opacity:1" fill="#4f4f51" d="M 292.5,727.5 C 310.326,726.503 328.326,726.17 346.5,726.5C 369.755,729.027 393.089,730.027 416.5,729.5C 434.557,729.448 452.557,728.448 470.5,726.5C 496.339,726.169 522.005,726.502 547.5,727.5C 457.42,748.673 366.086,756.173 273.5,750C 248.069,747.651 223.069,743.151 198.5,736.5C 230.329,735.502 262.329,735.168 294.5,735.5C 313.17,735.667 331.836,735.5 350.5,735C 337.051,734.308 323.717,732.808 310.5,730.5C 304.461,729.716 298.461,728.716 292.5,727.5 Z"/></g>
</svg>
