<?xml version="1.0" encoding="UTF-8"?>
<!DOCTYPE svg PUBLIC "-//W3C//DTD SVG 1.1//EN" "http://www.w3.org/Graphics/SVG/1.1/DTD/svg11.dtd">
<svg xmlns="http://www.w3.org/2000/svg" version="1.1" width="1080px" height="780px" style="shape-rendering:geometricPrecision; text-rendering:geometricPrecision; image-rendering:optimizeQuality; fill-rule:evenodd; clip-rule:evenodd" xmlns:xlink="http://www.w3.org/1999/xlink">
<g><path style="opacity:1" fill="#515254" d="M 542.5,-0.5 C 547.167,-0.5 551.833,-0.5 556.5,-0.5C 609.076,0.243056 661.409,4.90972 713.5,13.5C 621.5,14.8333 529.5,14.8333 437.5,13.5C 443.511,12.9269 449.511,12.2603 455.5,11.5C 474.059,8.61041 492.725,6.44375 511.5,5C 491.936,4.64958 472.602,5.81625 453.5,8.5C 439.02,9.26864 424.687,10.9353 410.5,13.5C 406.176,13.9272 401.842,14.2605 397.5,14.5C 394.287,14.81 391.287,14.4767 388.5,13.5C 439.473,4.75233 490.806,0.085659 542.5,-0.5 Z"/></g>
<g><path style="opacity:1" fill="#9fa1a4" d="M 455.5,11.5 C 455.715,9.82124 455.048,8.82124 453.5,8.5C 472.602,5.81625 491.936,4.64958 511.5,5C 492.725,6.44375 474.059,8.61041 455.5,11.5 Z"/></g>
<g><path style="opacity:1" fill="#b1b3b6" d="M 453.5,8.5 C 455.048,8.82124 455.715,9.82124 455.5,11.5C 449.511,12.2603 443.511,12.9269 437.5,13.5C 429.168,15.0561 420.834,16.7228 412.5,18.5C 411.032,17.2209 410.365,15.5542 410.5,13.5C 424.687,10.9353 439.02,9.26864 453.5,8.5 Z"/></g>
<g><path style="opacity:1" fill="#c5c6c8" d="M 410.5,13.5 C 410.365,15.5542 411.032,17.2209 412.5,18.5C 396.354,21.5365 380.354,25.2032 364.5,29.5C 364.5,26.8333 364.5,24.1667 364.5,21.5C 375.576,19.067 386.576,16.7337 397.5,14.5C 401.842,14.2605 406.176,13.9272 410.5,13.5 Z"/></g>
<g><path style="opacity:1" fill="#565658" d="M 437.5,13.5 C 529.5,14.8333 621.5,14.8333 713.5,13.5C 742.73,17.8104 771.397,24.1437 799.5,32.5C 760.337,33.4986 721.004,33.8319 681.5,33.5C 679.5,33.5 677.5,33.5 675.5,33.5C 649.445,29.6992 623.112,27.3658 596.5,26.5C 556.864,24.4692 517.198,25.8025 477.5,30.5C 467.48,31.3359 457.48,32.3359 447.5,33.5C 415.662,33.8315 383.996,33.4982 352.5,32.5C 356.584,31.8124 360.584,30.8124 364.5,29.5C 380.354,25.2032 396.354,21.5365 412.5,18.5C 420.834,16.7228 429.168,15.0561 437.5,13.5 Z"/></g>
<g><path style="opacity:0.991" fill="#5c5c5e" d="M 388.5,13.5 C 391.287,14.4767 394.287,14.81 397.5,14.5C 386.576,16.7337 375.576,19.067 364.5,21.5C 347.792,24.4274 331.459,28.4274 315.5,33.5C 302.169,36.7234 289.169,40.7234 276.5,45.5C 264.103,49.6324 251.77,53.9658 239.5,58.5C 235.833,58.5 232.167,58.5 228.5,58.5C 279.875,36.9858 333.209,21.9858 388.5,13.5 Z"/></g>
<g><path style="opacity:1" fill="#96989b" d="M 596.5,26.5 C 586.5,26.5 576.5,26.5 566.5,26.5C 566.5,29.5 566.5,32.5 566.5,35.5C 536.744,36.2297 507.077,38.2297 477.5,41.5C 477.5,37.8333 477.5,34.1667 477.5,30.5C 517.198,25.8025 556.864,24.4692 596.5,26.5 Z"/></g>
<g><path style="opacity:1" fill="#aaabae" d="M 596.5,26.5 C 623.112,27.3658 649.445,29.6992 675.5,33.5C 673.156,35.7179 672.823,38.3846 674.5,41.5C 638.642,37.1239 602.642,35.1239 566.5,35.5C 566.5,32.5 566.5,29.5 566.5,26.5C 576.5,26.5 586.5,26.5 596.5,26.5 Z"/></g>
<g><path style="opacity:1" fill="#d8d9da" d="M 364.5,21.5 C 364.5,24.1667 364.5,26.8333 364.5,29.5C 360.584,30.8124 356.584,31.8124 352.5,32.5C 340.909,36.3633 329.243,40.0299 317.5,43.5C 318.069,39.6707 317.402,36.3373 315.5,33.5C 331.459,28.4274 347.792,24.4274 364.5,21.5 Z"/></g>
<g><path style="opacity:1" fill="#eaebeb" d="M 315.5,33.5 C 317.402,36.3373 318.069,39.6707 317.5,43.5C 307.672,47.1094 298.005,51.1094 288.5,55.5C 284.687,56.4375 281.021,57.7709 277.5,59.5C 277.819,54.6367 277.486,49.97 276.5,45.5C 289.169,40.7234 302.169,36.7234 315.5,33.5 Z"/></g>
<g><path style="opacity:1" fill="#888a8d" d="M 477.5,30.5 C 477.5,34.1667 477.5,37.8333 477.5,41.5C 450.999,45.3694 424.666,50.7027 398.5,57.5C 397.203,52.9335 397.203,48.2669 398.5,43.5C 414.917,39.9737 431.25,36.6403 447.5,33.5C 457.48,32.3359 467.48,31.3359 477.5,30.5 Z"/></g>
<g><path style="opacity:1" fill="#616264" d="M 566.5,35.5 C 602.642,35.1239 638.642,37.1239 674.5,41.5C 703.166,45.1658 731.5,50.4991 759.5,57.5C 754.025,58.4889 748.358,58.8222 742.5,58.5C 656.161,40.2791 569.161,36.4458 481.5,47C 447.275,50.8899 413.942,58.5566 381.5,70C 371.175,74.1591 361.509,79.3258 352.5,85.5C 350.369,84.6862 348.036,84.1862 345.5,84C 351.705,78.1262 358.705,73.4596 366.5,70C 377.154,65.4953 387.82,61.3286 398.5,57.5C 424.666,50.7027 450.999,45.3694 477.5,41.5C 507.077,38.2297 536.744,36.2297 566.5,35.5 Z"/></g>
<g><path style="opacity:1" fill="#5f5f61" d="M 352.5,32.5 C 383.996,33.4982 415.662,33.8315 447.5,33.5C 431.25,36.6403 414.917,39.9737 398.5,43.5C 385.003,46.8873 371.67,50.8873 358.5,55.5C 335.167,55.5 311.833,55.5 288.5,55.5C 298.005,51.1094 307.672,47.1094 317.5,43.5C 329.243,40.0299 340.909,36.3633 352.5,32.5 Z"/></g>
<g><path style="opacity:1" fill="#bbbdbf" d="M 675.5,33.5 C 677.5,33.5 679.5,33.5 681.5,33.5C 709.172,38.0004 736.505,44.0004 763.5,51.5C 762.532,53.6074 762.198,55.9407 762.5,58.5C 761.391,58.4431 760.391,58.1098 759.5,57.5C 731.5,50.4991 703.166,45.1658 674.5,41.5C 672.823,38.3846 673.156,35.7179 675.5,33.5 Z"/></g>
<g><path style="opacity:1" fill="#606062" d="M 799.5,32.5 C 821.287,37.872 842.287,45.2053 862.5,54.5C 835.005,55.4979 807.338,55.8313 779.5,55.5C 774.167,54.1667 768.833,52.8333 763.5,51.5C 736.505,44.0004 709.172,38.0004 681.5,33.5C 721.004,33.8319 760.337,33.4986 799.5,32.5 Z"/></g>
<g><path style="opacity:1" fill="#f6f6f7" d="M 276.5,45.5 C 277.486,49.97 277.819,54.6367 277.5,59.5C 264.597,64.6178 251.93,70.2845 239.5,76.5C 238.511,71.0247 238.178,65.358 238.5,59.5C 239.167,59.5 239.5,59.1667 239.5,58.5C 251.77,53.9658 264.103,49.6324 276.5,45.5 Z"/></g>
<g><path style="opacity:0.993" fill="#68696b" d="M 228.5,58.5 C 232.167,58.5 235.833,58.5 239.5,58.5C 239.5,59.1667 239.167,59.5 238.5,59.5C 234.495,61.1679 230.495,62.8346 226.5,64.5C 221.982,66.2611 217.649,68.2611 213.5,70.5C 204.687,74.0718 196.354,78.4051 188.5,83.5C 182.009,86.5785 175.675,89.9118 169.5,93.5C 166.167,93.5 162.833,93.5 159.5,93.5C 181.183,79.4909 204.183,67.8242 228.5,58.5 Z"/></g>
<g><path style="opacity:1" fill="#7a7b7e" d="M 398.5,43.5 C 397.203,48.2669 397.203,52.9335 398.5,57.5C 387.82,61.3286 377.154,65.4953 366.5,70C 358.705,73.4596 351.705,78.1262 345.5,84C 348.036,84.1862 350.369,84.6862 352.5,85.5C 348.392,89.1135 345.225,93.4469 343,98.5C 340.267,106.56 341.6,113.893 347,120.5C 353.092,127.431 359.926,133.431 367.5,138.5C 333.169,138.489 298.836,139.489 264.5,141.5C 252.345,140.505 240.011,140.171 227.5,140.5C 253.885,136.661 280.552,134.327 307.5,133.5C 307.317,117.151 307.65,100.818 308.5,84.5C 323.334,71.7472 340.001,62.0805 358.5,55.5C 371.67,50.8873 385.003,46.8873 398.5,43.5 Z"/></g>
<g><path style="opacity:1" fill="#e4e5e5" d="M 238.5,59.5 C 238.178,65.358 238.511,71.0247 239.5,76.5C 235.836,79.3346 231.836,81.668 227.5,83.5C 226.51,77.3554 226.177,71.0221 226.5,64.5C 230.495,62.8346 234.495,61.1679 238.5,59.5 Z"/></g>
<g><path style="opacity:1" fill="#cacbcd" d="M 763.5,51.5 C 768.833,52.8333 774.167,54.1667 779.5,55.5C 798.367,61.4311 816.7,68.7644 834.5,77.5C 833.539,79.2646 833.205,81.2646 833.5,83.5C 810.546,73.177 786.879,64.8437 762.5,58.5C 762.198,55.9407 762.532,53.6074 763.5,51.5 Z"/></g>
<g><path style="opacity:1" fill="#d7d8da" d="M 226.5,64.5 C 226.177,71.0221 226.51,77.3554 227.5,83.5C 227.5,83.8333 227.5,84.1667 227.5,84.5C 223.034,86.5665 218.701,88.8998 214.5,91.5C 213.509,84.6866 213.175,77.6866 213.5,70.5C 217.649,68.2611 221.982,66.2611 226.5,64.5 Z"/></g>
<g><path style="opacity:1" fill="#68696b" d="M 862.5,54.5 C 882.492,61.9969 901.492,71.3302 919.5,82.5C 896.673,83.4975 873.673,83.8308 850.5,83.5C 845.167,81.5 839.833,79.5 834.5,77.5C 816.7,68.7644 798.367,61.4311 779.5,55.5C 807.338,55.8313 835.005,55.4979 862.5,54.5 Z"/></g>
<g><path style="opacity:1" fill="#696a6c" d="M 288.5,55.5 C 311.833,55.5 335.167,55.5 358.5,55.5C 340.001,62.0805 323.334,71.7472 308.5,84.5C 281.5,84.5 254.5,84.5 227.5,84.5C 227.5,84.1667 227.5,83.8333 227.5,83.5C 231.836,81.668 235.836,79.3346 239.5,76.5C 251.93,70.2845 264.597,64.6178 277.5,59.5C 281.021,57.7709 284.687,56.4375 288.5,55.5 Z"/></g>
<g><path style="opacity:1" fill="#6e6f71" d="M 759.5,57.5 C 760.391,58.1098 761.391,58.4431 762.5,58.5C 786.879,64.8437 810.546,73.177 833.5,83.5C 850.41,90.9548 867.077,98.9548 883.5,107.5C 880.375,108.479 877.042,108.813 873.5,108.5C 844.048,93.6257 813.714,80.7924 782.5,70C 769.049,66.1416 755.716,62.3083 742.5,58.5C 748.358,58.8222 754.025,58.4889 759.5,57.5 Z"/></g>
<g><path style="opacity:1" fill="#c3c4c6" d="M 213.5,70.5 C 213.175,77.6866 213.509,84.6866 214.5,91.5C 205.842,97.1637 197.175,102.83 188.5,108.5C 188.5,100.167 188.5,91.8333 188.5,83.5C 196.354,78.4051 204.687,74.0718 213.5,70.5 Z"/></g>
<g><path style="opacity:1" fill="#717275" d="M 227.5,84.5 C 254.5,84.5 281.5,84.5 308.5,84.5C 307.65,100.818 307.317,117.151 307.5,133.5C 280.552,134.327 253.885,136.661 227.5,140.5C 223.293,140.885 219.293,140.885 215.5,140.5C 235.873,134.431 255.873,127.264 275.5,119C 278.87,117.545 281.87,115.545 284.5,113C 251.331,112.832 218.331,112.332 185.5,111.5C 186.833,110.833 187.833,109.833 188.5,108.5C 197.175,102.83 205.842,97.1637 214.5,91.5C 218.701,88.8998 223.034,86.5665 227.5,84.5 Z"/></g>
<g><path style="opacity:1" fill="#abadb0" d="M 188.5,83.5 C 188.5,91.8333 188.5,100.167 188.5,108.5C 187.833,109.833 186.833,110.833 185.5,111.5C 177.346,118.076 169.013,124.409 160.5,130.5C 160.5,120.5 160.5,110.5 160.5,100.5C 163.319,97.925 166.319,95.5917 169.5,93.5C 175.675,89.9118 182.009,86.5785 188.5,83.5 Z"/></g>
<g><path style="opacity:1" fill="#717275" d="M 919.5,82.5 C 933.011,89.6801 946.011,97.6801 958.5,106.5C 939.195,108.488 919.528,109.154 899.5,108.5C 883.288,99.8944 866.955,91.561 850.5,83.5C 873.673,83.8308 896.673,83.4975 919.5,82.5 Z"/></g>
<g><path style="opacity:1" fill="#919396" d="M 160.5,100.5 C 160.5,110.5 160.5,120.5 160.5,130.5C 156.86,133.473 153.527,136.806 150.5,140.5C 146.709,143.118 143.043,145.951 139.5,149C 138.207,149.49 136.873,149.657 135.5,149.5C 135.828,138.986 135.494,128.653 134.5,118.5C 142.461,111.516 151.128,105.516 160.5,100.5 Z"/></g>
<g><path style="opacity:1" fill="#dddedf" d="M 834.5,77.5 C 839.833,79.5 845.167,81.5 850.5,83.5C 866.955,91.561 883.288,99.8944 899.5,108.5C 916.015,118.011 932.015,128.345 947.5,139.5C 948.833,140.833 950.167,142.167 951.5,143.5C 950.539,145.265 950.205,147.265 950.5,149.5C 946.833,146.833 943.167,144.167 939.5,141.5C 921.623,128.975 902.956,117.642 883.5,107.5C 867.077,98.9548 850.41,90.9548 833.5,83.5C 833.205,81.2646 833.539,79.2646 834.5,77.5 Z"/></g>
<g><path style="opacity:1" fill="#7b7c7f" d="M 958.5,106.5 C 972.106,116.441 985.106,127.107 997.5,138.5C 981.008,139.497 964.342,139.83 947.5,139.5C 932.015,128.345 916.015,118.011 899.5,108.5C 919.528,109.154 939.195,108.488 958.5,106.5 Z"/></g>
<g><path style="opacity:1" fill="#797a7d" d="M 159.5,93.5 C 162.833,93.5 166.167,93.5 169.5,93.5C 166.319,95.5917 163.319,97.925 160.5,100.5C 151.128,105.516 142.461,111.516 134.5,118.5C 131.714,120.113 129.047,121.946 126.5,124C 127.449,124.617 128.282,124.451 129,123.5C 129.667,132.5 129.667,141.5 129,150.5C 126.313,151.713 123.48,152.38 120.5,152.5C 120.831,144.804 120.497,137.138 119.5,129.5C 119.75,137.347 119.417,145.347 118.5,153.5C 117.669,146.189 117.169,138.856 117,131.5C 116.5,132 116,132.5 115.5,133C 116.48,140.079 116.813,147.245 116.5,154.5C 114.5,154.833 112.5,155.167 110.5,155.5C 110.666,149.824 110.499,144.157 110,138.5C 107.963,140.706 105.797,142.706 103.5,144.5C 99.633,143.274 95.633,143.274 91.5,144.5C 111.899,124.429 134.565,107.429 159.5,93.5 Z"/></g>
<g><path style="opacity:1" fill="#7b7c7f" d="M 185.5,111.5 C 218.331,112.332 251.331,112.832 284.5,113C 281.87,115.545 278.87,117.545 275.5,119C 255.873,127.264 235.873,134.431 215.5,140.5C 193.833,140.5 172.167,140.5 150.5,140.5C 153.527,136.806 156.86,133.473 160.5,130.5C 169.013,124.409 177.346,118.076 185.5,111.5 Z"/></g>
<g><path style="opacity:0.998" fill="#7e7f82" d="M 883.5,107.5 C 902.956,117.642 921.623,128.975 939.5,141.5C 936.713,142.477 933.713,142.81 930.5,142.5C 911.96,130.397 892.96,119.063 873.5,108.5C 877.042,108.813 880.375,108.479 883.5,107.5 Z"/></g>
<g><path style="opacity:0.999" fill="#848689" d="M 997.5,138.5 C 1007.2,147.199 1016.2,156.533 1024.5,166.5C 1009.68,167.496 994.676,167.829 979.5,167.5C 970.461,159.126 961.128,151.126 951.5,143.5C 950.167,142.167 948.833,140.833 947.5,139.5C 964.342,139.83 981.008,139.497 997.5,138.5 Z"/></g>
<g><path style="opacity:1" fill="#67686a" d="M 110.5,155.5 C 105.948,157.149 101.281,158.816 96.5,160.5C 95.3452,157.554 95.1786,154.554 96,151.5C 98.3697,148.961 100.87,146.628 103.5,144.5C 105.797,142.706 107.963,140.706 110,138.5C 110.499,144.157 110.666,149.824 110.5,155.5 Z"/></g>
<g><path style="opacity:1" fill="#838588" d="M 134.5,118.5 C 135.494,128.653 135.828,138.986 135.5,149.5C 136.873,149.657 138.207,149.49 139.5,149C 143.043,145.951 146.709,143.118 150.5,140.5C 172.167,140.5 193.833,140.5 215.5,140.5C 219.293,140.885 223.293,140.885 227.5,140.5C 240.011,140.171 252.345,140.505 264.5,141.5C 202.931,146.514 142.597,158.014 83.5,176C 74.004,178.72 64.8374,182.22 56,186.5C 55.6848,185.092 56.0181,183.759 57,182.5C 67.627,169.04 79.127,156.373 91.5,144.5C 95.633,143.274 99.633,143.274 103.5,144.5C 100.87,146.628 98.3697,148.961 96,151.5C 95.1786,154.554 95.3452,157.554 96.5,160.5C 101.281,158.816 105.948,157.149 110.5,155.5C 112.5,155.167 114.5,154.833 116.5,154.5C 116.813,147.245 116.48,140.079 115.5,133C 116,132.5 116.5,132 117,131.5C 117.169,138.856 117.669,146.189 118.5,153.5C 119.417,145.347 119.75,137.347 119.5,129.5C 120.497,137.138 120.831,144.804 120.5,152.5C 123.48,152.38 126.313,151.713 129,150.5C 129.667,141.5 129.667,132.5 129,123.5C 128.282,124.451 127.449,124.617 126.5,124C 129.047,121.946 131.714,120.113 134.5,118.5 Z"/></g>
<g><path style="opacity:1" fill="#5f6062" d="M 93.5,153.5 C 94.8143,155.895 94.8143,158.395 93.5,161C 89.8737,162.488 86.2071,163.488 82.5,164C 86.0622,160.268 89.7288,156.768 93.5,153.5 Z"/></g>
<g><path style="opacity:1" fill="#35ade2" d="M 319.5,164.5 C 329.167,164.5 338.833,164.5 348.5,164.5C 348.5,165.5 348.5,166.5 348.5,167.5C 333.776,167.742 319.109,168.742 304.5,170.5C 304.5,168.833 304.5,167.167 304.5,165.5C 299.473,165.503 294.473,165.836 289.5,166.5C 289.5,166.167 289.5,165.833 289.5,165.5C 299.448,164.55 309.448,164.216 319.5,164.5 Z"/></g>
<g><path style="opacity:0.944" fill="#0696da" d="M 289.5,165.5 C 289.5,165.833 289.5,166.167 289.5,166.5C 283.64,166.717 277.973,167.383 272.5,168.5C 263.375,169.265 254.375,170.598 245.5,172.5C 235.93,173.538 226.597,175.205 217.5,177.5C 209.169,178.628 201.169,180.628 193.5,183.5C 187.538,184.709 181.871,186.709 176.5,189.5C 175.833,189.833 175.167,190.167 174.5,190.5C 171.176,192.167 168.176,194.334 165.5,197C 162.635,197.183 159.969,197.683 157.5,198.5C 149.913,198.814 142.413,198.481 135,197.5C 134.37,195.097 135.203,193.263 137.5,192C 142.068,189.548 146.735,187.382 151.5,185.5C 153.565,185.047 155.232,184.047 156.5,182.5C 200.331,173.001 244.664,167.334 289.5,165.5 Z"/></g>
<g><path style="opacity:0.988" fill="#0295da" d="M 319.5,164.5 C 394.241,162.567 468.241,169.234 541.5,184.5C 481.503,185.172 421.503,185.672 361.5,186C 344.959,186.402 328.626,187.569 312.5,189.5C 306.302,190.071 300.302,191.071 294.5,192.5C 289.23,192.763 284.23,193.763 279.5,195.5C 276.514,195.903 273.848,196.903 271.5,198.5C 269.447,198.402 267.78,199.069 266.5,200.5C 264.236,201.219 261.903,201.552 259.5,201.5C 240.535,199.935 221.535,198.935 202.5,198.5C 201.737,197.732 200.737,197.232 199.5,197C 206.284,193.273 213.284,190.106 220.5,187.5C 228.71,184.43 237.043,181.763 245.5,179.5C 254.738,177.319 264.071,175.652 273.5,174.5C 283.734,172.448 294.067,171.115 304.5,170.5C 319.109,168.742 333.776,167.742 348.5,167.5C 348.5,166.5 348.5,165.5 348.5,164.5C 338.833,164.5 329.167,164.5 319.5,164.5 Z"/></g>
<g><path style="opacity:1" fill="#65b9e7" d="M 304.5,170.5 C 294.067,171.115 283.734,172.448 273.5,174.5C 273.795,172.265 273.461,170.265 272.5,168.5C 277.973,167.383 283.64,166.717 289.5,166.5C 294.473,165.836 299.473,165.503 304.5,165.5C 304.5,167.167 304.5,168.833 304.5,170.5 Z"/></g>
<g><path style="opacity:1" fill="#8bc7ec" d="M 272.5,168.5 C 273.461,170.265 273.795,172.265 273.5,174.5C 264.071,175.652 254.738,177.319 245.5,179.5C 245.5,177.167 245.5,174.833 245.5,172.5C 254.375,170.598 263.375,169.265 272.5,168.5 Z"/></g>
<g><path style="opacity:1" fill="#ededee" d="M 951.5,143.5 C 961.128,151.126 970.461,159.126 979.5,167.5C 988.236,176.897 996.57,186.564 1004.5,196.5C 1013.47,209.446 1020.64,223.446 1026,238.5C 1026.67,239.833 1026.67,241.167 1026,242.5C 1014.95,215.583 998.779,192.083 977.5,172C 968.627,164.289 959.627,156.789 950.5,149.5C 950.205,147.265 950.539,145.265 951.5,143.5 Z"/></g>
<g><path style="opacity:1" fill="#abd5f1" d="M 245.5,172.5 C 245.5,174.833 245.5,177.167 245.5,179.5C 237.043,181.763 228.71,184.43 220.5,187.5C 220.5,184.167 220.5,180.833 220.5,177.5C 219.5,177.5 218.5,177.5 217.5,177.5C 226.597,175.205 235.93,173.538 245.5,172.5 Z"/></g>
<g><path style="opacity:1" fill="#c7e2f6" d="M 217.5,177.5 C 218.5,177.5 219.5,177.5 220.5,177.5C 220.5,180.833 220.5,184.167 220.5,187.5C 213.284,190.106 206.284,193.273 199.5,197C 200.737,197.232 201.737,197.732 202.5,198.5C 198.833,198.5 195.167,198.5 191.5,198.5C 192.568,197.566 193.901,197.232 195.5,197.5C 196.103,192.381 195.436,187.715 193.5,183.5C 201.169,180.628 209.169,178.628 217.5,177.5 Z"/></g>
<g><path style="opacity:1" fill="#a6d2f0" d="M 156.5,182.5 C 155.232,184.047 153.565,185.047 151.5,185.5C 151.158,184.662 150.492,184.328 149.5,184.5C 151.657,183.593 153.99,182.927 156.5,182.5 Z"/></g>
<g><path style="opacity:1" fill="#019adb" d="M 541.5,184.5 C 541.833,184.5 542.167,184.5 542.5,184.5C 545.261,186.205 548.261,187.538 551.5,188.5C 472.002,189.499 392.335,189.833 312.5,189.5C 328.626,187.569 344.959,186.402 361.5,186C 421.503,185.672 481.503,185.172 541.5,184.5 Z"/></g>
<g><path style="opacity:1" fill="#f9fbfd" d="M 149.5,184.5 C 150.492,184.328 151.158,184.662 151.5,185.5C 146.735,187.382 142.068,189.548 137.5,192C 135.203,193.263 134.37,195.097 135,197.5C 142.413,198.481 149.913,198.814 157.5,198.5C 162.844,198.666 168.177,198.499 173.5,198C 174.435,195.619 174.768,193.119 174.5,190.5C 175.167,190.167 175.833,189.833 176.5,189.5C 176.5,192.167 176.5,194.833 176.5,197.5C 181.595,197.221 186.595,197.555 191.5,198.5C 195.167,198.5 198.833,198.5 202.5,198.5C 221.535,198.935 240.535,199.935 259.5,201.5C 265.288,202.81 271.288,203.477 277.5,203.5C 284.971,204.947 292.638,205.947 300.5,206.5C 306.953,208.042 313.62,209.042 320.5,209.5C 331.713,211.818 343.047,214.151 354.5,216.5C 355.609,216.557 356.609,216.89 357.5,217.5C 362.842,218.504 368.175,219.504 373.5,220.5C 379.131,223.575 385.131,224.741 391.5,224C 393.274,224.881 393.94,226.047 393.5,227.5C 395.755,220.754 396.921,221.088 397,228.5C 401.926,230.938 406.426,233.938 410.5,237.5C 410.896,240.044 410.229,242.211 408.5,244C 405.039,246.066 401.373,247.566 397.5,248.5C 398.909,246.695 399.409,244.695 399,242.5C 395.464,237.98 390.964,234.814 385.5,233C 362.154,224.497 338.154,218.497 313.5,215C 251.801,204.685 189.801,201.851 127.5,206.5C 126.836,204.022 126.503,201.355 126.5,198.5C 126.604,195.231 127.27,192.231 128.5,189.5C 135.207,187.074 142.207,185.408 149.5,184.5 Z"/></g>
<g><path style="opacity:1" fill="#e2f0fa" d="M 193.5,183.5 C 195.436,187.715 196.103,192.381 195.5,197.5C 193.901,197.232 192.568,197.566 191.5,198.5C 186.595,197.555 181.595,197.221 176.5,197.5C 176.5,194.833 176.5,192.167 176.5,189.5C 181.871,186.709 187.538,184.709 193.5,183.5 Z"/></g>
<g><path style="opacity:1" fill="#f9fbfd" d="M 542.5,184.5 C 580.041,191.802 617.041,201.135 653.5,212.5C 653.5,228.833 653.5,245.167 653.5,261.5C 652.209,261.263 651.209,261.596 650.5,262.5C 647.287,262.19 644.287,262.523 641.5,263.5C 631.954,264.678 622.621,266.345 613.5,268.5C 604.57,269.42 595.904,271.087 587.5,273.5C 576.883,275.074 566.549,277.407 556.5,280.5C 545.578,282.564 534.911,285.23 524.5,288.5C 514.889,290.566 505.555,293.233 496.5,296.5C 483.813,299.73 471.479,303.73 459.5,308.5C 441.643,313.672 424.31,320.005 407.5,327.5C 392.005,333.443 376.672,339.776 361.5,346.5C 349.854,351.657 338.52,357.323 327.5,363.5C 311.212,371.31 295.212,379.644 279.5,388.5C 274.963,390.93 270.63,393.597 266.5,396.5C 260.835,398.997 255.502,401.997 250.5,405.5C 202.074,434.702 155.407,466.369 110.5,500.5C 91.6592,500.83 72.9925,500.497 54.5,499.5C 65.0012,483.991 77.0012,469.658 90.5,456.5C 91.1174,456.389 91.6174,456.056 92,455.5C 92.4998,466.495 92.6665,477.495 92.5,488.5C 87.6133,490.058 89.9466,489.891 99.5,488C 103.109,487.299 106.442,486.132 109.5,484.5C 113.497,483.397 117.164,481.731 120.5,479.5C 128.3,476.347 135.3,472.014 141.5,466.5C 143.389,465.396 145.055,464.063 146.5,462.5C 149.473,460.853 152.14,458.853 154.5,456.5C 160.38,452.733 166.046,448.733 171.5,444.5C 178.87,439.487 186.204,434.487 193.5,429.5C 197.054,428.231 200.054,426.231 202.5,423.5C 213.511,417.331 224.178,410.664 234.5,403.5C 245.498,398.003 256.165,392.003 266.5,385.5C 268.819,385.008 270.819,384.008 272.5,382.5C 275.696,381.071 278.696,379.405 281.5,377.5C 289.342,373.321 297.342,369.321 305.5,365.5C 306.489,361.893 306.823,358.226 306.5,354.5C 310.47,355.813 314.47,357.146 318.5,358.5C 328.973,354.096 339.306,349.429 349.5,344.5C 350.167,344.5 350.5,344.167 350.5,343.5C 356.136,341.678 361.469,339.345 366.5,336.5C 375.371,333.888 383.038,330.221 389.5,325.5C 390.15,325.804 390.817,326.137 391.5,326.5C 462.648,296.594 536.315,275.427 612.5,263C 621.596,261.416 629.93,258.083 637.5,253C 644.197,245.14 644.031,237.307 637,229.5C 632.928,225.226 628.428,221.56 623.5,218.5C 616.142,213.151 608.142,208.818 599.5,205.5C 597.351,204.264 595.018,203.264 592.5,202.5C 590.321,201.323 587.987,200.323 585.5,199.5C 583.5,198.833 581.5,198.167 579.5,197.5C 576.457,196.655 573.457,195.655 570.5,194.5C 567.421,193.696 564.421,192.696 561.5,191.5C 558.27,190.192 554.936,189.192 551.5,188.5C 548.261,187.538 545.261,186.205 542.5,184.5 Z"/></g>
<g><path style="opacity:1" fill="#03a0de" d="M 551.5,188.5 C 554.936,189.192 558.27,190.192 561.5,191.5C 472.668,192.499 383.668,192.833 294.5,192.5C 300.302,191.071 306.302,190.071 312.5,189.5C 392.335,189.833 472.002,189.499 551.5,188.5 Z"/></g>
<g><path style="opacity:0.968" fill="#909295" d="M 1024.5,166.5 C 1084.39,238.56 1094.89,317.56 1056,403.5C 1044.34,427.935 1030.18,450.602 1013.5,471.5C 1009.37,470.515 1005.03,470.182 1000.5,470.5C 1021.85,443.832 1039.68,414.832 1054,383.5C 1065.22,356.947 1070.89,329.28 1071,300.5C 1068.19,328.739 1060.86,355.739 1049,381.5C 1046.65,386.887 1043.81,391.887 1040.5,396.5C 1040.5,329.5 1040.5,262.5 1040.5,195.5C 1028.32,195.172 1016.32,195.505 1004.5,196.5C 996.57,186.564 988.236,176.897 979.5,167.5C 994.676,167.829 1009.68,167.496 1024.5,166.5 Z"/></g>
<g><path style="opacity:1" fill="#ddedf9" d="M 174.5,190.5 C 174.768,193.119 174.435,195.619 173.5,198C 168.177,198.499 162.844,198.666 157.5,198.5C 159.969,197.683 162.635,197.183 165.5,197C 168.176,194.334 171.176,192.167 174.5,190.5 Z"/></g>
<g><path style="opacity:1" fill="#d6e9f8" d="M 128.5,189.5 C 127.27,192.231 126.604,195.231 126.5,198.5C 126.503,201.355 126.836,204.022 127.5,206.5C 125.393,207.468 123.059,207.802 120.5,207.5C 119.167,207.5 117.833,207.5 116.5,207.5C 116.5,202.5 116.5,197.5 116.5,192.5C 120.322,190.878 124.322,189.878 128.5,189.5 Z"/></g>
<g><path style="opacity:1" fill="#03a5df" d="M 561.5,191.5 C 564.421,192.696 567.421,193.696 570.5,194.5C 473.668,195.499 376.668,195.833 279.5,195.5C 284.23,193.763 289.23,192.763 294.5,192.5C 383.668,192.833 472.668,192.499 561.5,191.5 Z"/></g>
<g><path style="opacity:1" fill="#b5d9f3" d="M 116.5,192.5 C 116.5,197.5 116.5,202.5 116.5,207.5C 117.833,207.5 119.167,207.5 120.5,207.5C 118.052,208.473 115.385,208.806 112.5,208.5C 110.833,208.5 109.167,208.5 107.5,208.5C 107.226,203.737 107.559,199.07 108.5,194.5C 111.112,193.629 113.779,192.963 116.5,192.5 Z"/></g>
<g><path style="opacity:1" fill="#21abe2" d="M 570.5,194.5 C 573.457,195.655 576.457,196.655 579.5,197.5C 477.001,198.499 374.335,198.833 271.5,198.5C 273.848,196.903 276.514,195.903 279.5,195.5C 376.668,195.833 473.668,195.499 570.5,194.5 Z"/></g>
<g><path style="opacity:0.975" fill="#8e9093" d="M 939.5,141.5 C 943.167,144.167 946.833,146.833 950.5,149.5C 959.627,156.789 968.627,164.289 977.5,172C 998.779,192.083 1014.95,215.583 1026,242.5C 1026.67,241.167 1026.67,239.833 1026,238.5C 1020.64,223.446 1013.47,209.446 1004.5,196.5C 1016.32,195.505 1028.32,195.172 1040.5,195.5C 1040.5,262.5 1040.5,329.5 1040.5,396.5C 1034.99,407.52 1028.82,418.187 1022,428.5C 1011.54,443.117 1000.37,457.117 988.5,470.5C 967.833,470.5 947.167,470.5 926.5,470.5C 948.468,450.699 969.301,429.699 989,407.5C 1005.18,386.472 1016.51,363.138 1023,337.5C 1012.36,364.098 997.698,388.098 979,409.5C 959.595,432.073 938.428,452.74 915.5,471.5C 911.702,470.517 907.702,470.183 903.5,470.5C 934.543,444.957 962.376,416.29 987,384.5C 1043.89,305.85 1036.39,234.017 964.5,169C 953.553,159.539 942.22,150.706 930.5,142.5C 933.713,142.81 936.713,142.477 939.5,141.5 Z"/></g>
<g><path style="opacity:1" fill="#8ec7ec" d="M 108.5,194.5 C 107.559,199.07 107.226,203.737 107.5,208.5C 109.167,208.5 110.833,208.5 112.5,208.5C 107.367,209.665 102.034,210.332 96.5,210.5C 95.9952,195.848 95.1619,195.848 94,210.5C 93.5014,206.848 93.3347,203.182 93.5,199.5C 98.2546,197.387 103.255,195.721 108.5,194.5 Z"/></g>
<g><path style="opacity:1" fill="#3eafe4" d="M 579.5,197.5 C 581.5,198.167 583.5,198.833 585.5,199.5C 479.335,200.499 373.001,200.833 266.5,200.5C 267.78,199.069 269.447,198.402 271.5,198.5C 374.335,198.833 477.001,198.499 579.5,197.5 Z"/></g>
<g><path style="opacity:1" fill="#5db5e6" d="M 93.5,199.5 C 93.3347,203.182 93.5014,206.848 94,210.5C 95.1619,195.848 95.9952,195.848 96.5,210.5C 91.9035,211.382 87.2368,212.049 82.5,212.5C 83.0545,208.988 82.3878,205.988 80.5,203.5C 84.5021,201.39 88.8354,200.057 93.5,199.5 Z"/></g>
<g><path style="opacity:1" fill="#5cb7e7" d="M 585.5,199.5 C 587.987,200.323 590.321,201.323 592.5,202.5C 487.668,203.499 382.668,203.833 277.5,203.5C 271.288,203.477 265.288,202.81 259.5,201.5C 261.903,201.552 264.236,201.219 266.5,200.5C 373.001,200.833 479.335,200.499 585.5,199.5 Z"/></g>
<g><path style="opacity:1" fill="#2865b0" d="M 397.5,248.5 C 390.46,251.624 383.127,253.957 375.5,255.5C 338.682,238.461 300.015,227.961 259.5,224C 205.537,217.16 151.537,216.826 97.5,223C 82.6539,224.53 67.9873,227.03 53.5,230.5C 52.4173,229.635 52.2506,228.635 53,227.5C 55.2746,223.268 57.7746,219.268 60.5,215.5C 67.7983,214.338 75.1316,213.338 82.5,212.5C 87.2368,212.049 91.9035,211.382 96.5,210.5C 102.034,210.332 107.367,209.665 112.5,208.5C 115.385,208.806 118.052,208.473 120.5,207.5C 123.059,207.802 125.393,207.468 127.5,206.5C 189.801,201.851 251.801,204.685 313.5,215C 338.154,218.497 362.154,224.497 385.5,233C 390.964,234.814 395.464,237.98 399,242.5C 399.409,244.695 398.909,246.695 397.5,248.5 Z"/></g>
<g><path style="opacity:1" fill="#74bee9" d="M 592.5,202.5 C 595.018,203.264 597.351,204.264 599.5,205.5C 593.5,205.5 587.5,205.5 581.5,205.5C 567.882,204.535 554.216,204.202 540.5,204.5C 531.134,204.279 521.801,204.613 512.5,205.5C 512.5,210.833 512.5,216.167 512.5,221.5C 503.862,222.499 495.195,223.499 486.5,224.5C 487.452,218.925 487.786,213.259 487.5,207.5C 425.185,206.518 362.852,206.185 300.5,206.5C 292.638,205.947 284.971,204.947 277.5,203.5C 382.668,203.833 487.668,203.499 592.5,202.5 Z"/></g>
<g><path style="opacity:1" fill="#59b5e6" d="M 540.5,204.5 C 541.037,210.135 540.37,215.468 538.5,220.5C 529.833,220.833 521.167,221.167 512.5,221.5C 512.5,216.167 512.5,210.833 512.5,205.5C 521.801,204.613 531.134,204.279 540.5,204.5 Z"/></g>
<g><path style="opacity:1" fill="#19a7e0" d="M 540.5,204.5 C 554.216,204.202 567.882,204.535 581.5,205.5C 581.5,209.833 581.5,214.167 581.5,218.5C 578.287,218.19 575.287,218.523 572.5,219.5C 561.14,219.283 549.807,219.616 538.5,220.5C 540.37,215.468 541.037,210.135 540.5,204.5 Z"/></g>
<g><path style="opacity:1" fill="#0d9ddc" d="M 581.5,205.5 C 587.5,205.5 593.5,205.5 599.5,205.5C 608.142,208.818 616.142,213.151 623.5,218.5C 606.717,218.282 589.717,218.615 572.5,219.5C 575.287,218.523 578.287,218.19 581.5,218.5C 581.5,214.167 581.5,209.833 581.5,205.5 Z"/></g>
<g><path style="opacity:1" fill="#8ec8ed" d="M 300.5,206.5 C 362.852,206.185 425.185,206.518 487.5,207.5C 487.786,213.259 487.452,218.925 486.5,224.5C 478.088,224.958 469.755,225.958 461.5,227.5C 462.455,221.591 462.789,215.591 462.5,209.5C 415.167,209.5 367.833,209.5 320.5,209.5C 313.62,209.042 306.953,208.042 300.5,206.5 Z"/></g>
<g><path style="opacity:1" fill="#a8d3f1" d="M 320.5,209.5 C 367.833,209.5 415.167,209.5 462.5,209.5C 462.789,215.591 462.455,221.591 461.5,227.5C 453.505,228.499 445.505,229.499 437.5,230.5C 437.829,224.463 437.496,218.463 436.5,212.5C 432.144,213.393 427.811,214.393 423.5,215.5C 422.504,221.463 422.171,227.463 422.5,233.5C 422.158,234.338 421.492,234.672 420.5,234.5C 421.458,228.256 421.791,221.923 421.5,215.5C 398.994,215.169 376.66,215.503 354.5,216.5C 343.047,214.151 331.713,211.818 320.5,209.5 Z"/></g>
<g><path style="opacity:1" fill="#1ba2de" d="M 80.5,203.5 C 82.3878,205.988 83.0545,208.988 82.5,212.5C 75.1316,213.338 67.7983,214.338 60.5,215.5C 65.202,208.472 71.8687,204.472 80.5,203.5 Z"/></g>
<g><path style="opacity:1" fill="#cce4f7" d="M 437.5,230.5 C 432.647,231.604 427.647,232.604 422.5,233.5C 422.171,227.463 422.504,221.463 423.5,215.5C 427.811,214.393 432.144,213.393 436.5,212.5C 437.496,218.463 437.829,224.463 437.5,230.5 Z"/></g>
<g><path style="opacity:1" fill="#ddedfa" d="M 653.5,212.5 C 655.579,212.971 657.579,213.637 659.5,214.5C 659.817,230.244 659.484,245.911 658.5,261.5C 655.833,261.833 653.167,262.167 650.5,262.5C 651.209,261.596 652.209,261.263 653.5,261.5C 653.5,245.167 653.5,228.833 653.5,212.5 Z"/></g>
<g><path style="opacity:1" fill="#cbe4f7" d="M 354.5,216.5 C 376.66,215.503 398.994,215.169 421.5,215.5C 421.791,221.923 421.458,228.256 420.5,234.5C 417.402,234.756 414.402,235.422 411.5,236.5C 412.458,230.256 412.791,223.923 412.5,217.5C 394.167,216.167 375.833,216.167 357.5,217.5C 356.609,216.89 355.609,216.557 354.5,216.5 Z"/></g>
<g><path style="opacity:1" fill="#cce4f7" d="M 659.5,214.5 C 661.833,215.167 664.167,215.833 666.5,216.5C 665.85,231.206 666.517,245.539 668.5,259.5C 668.5,260.167 668.167,260.5 667.5,260.5C 664.518,260.963 661.518,261.296 658.5,261.5C 659.484,245.911 659.817,230.244 659.5,214.5 Z"/></g>
<g><path style="opacity:1" fill="#e7f2fb" d="M 412.5,217.5 C 412.791,223.923 412.458,230.256 411.5,236.5C 410.833,236.5 410.5,236.833 410.5,237.5C 406.426,233.938 401.926,230.938 397,228.5C 396.921,221.088 395.755,220.754 393.5,227.5C 393.94,226.047 393.274,224.881 391.5,224C 385.131,224.741 379.131,223.575 373.5,220.5C 383.839,220.666 394.172,220.5 404.5,220C 407.202,219.16 409.868,218.327 412.5,217.5 Z"/></g>
<g><path style="opacity:1" fill="#c3e0f5" d="M 357.5,217.5 C 375.833,216.167 394.167,216.167 412.5,217.5C 409.868,218.327 407.202,219.16 404.5,220C 394.172,220.5 383.839,220.666 373.5,220.5C 368.175,219.504 362.842,218.504 357.5,217.5 Z"/></g>
<g><path style="opacity:0.996" fill="#0295da" d="M 623.5,218.5 C 628.428,221.56 632.928,225.226 637,229.5C 644.031,237.307 644.197,245.14 637.5,253C 629.93,258.083 621.596,261.416 612.5,263C 536.315,275.427 462.648,296.594 391.5,326.5C 390.817,326.137 390.15,325.804 389.5,325.5C 382.476,321.268 374.809,318.602 366.5,317.5C 362.202,316.8 357.869,316.467 353.5,316.5C 349.702,315.517 345.702,315.183 341.5,315.5C 337.167,315.5 332.833,315.5 328.5,315.5C 323.5,315.5 318.5,315.5 313.5,315.5C 304.476,315.891 295.476,316.558 286.5,317.5C 281.141,318.003 275.807,318.67 270.5,319.5C 260.773,320.843 251.107,322.51 241.5,324.5C 283.032,295.732 327.699,272.732 375.5,255.5C 383.127,253.957 390.46,251.624 397.5,248.5C 401.373,247.566 405.039,246.066 408.5,244C 410.229,242.211 410.896,240.044 410.5,237.5C 410.5,236.833 410.833,236.5 411.5,236.5C 414.402,235.422 417.402,234.756 420.5,234.5C 421.492,234.672 422.158,234.338 422.5,233.5C 427.647,232.604 432.647,231.604 437.5,230.5C 445.505,229.499 453.505,228.499 461.5,227.5C 469.755,225.958 478.088,224.958 486.5,224.5C 495.195,223.499 503.862,222.499 512.5,221.5C 521.167,221.167 529.833,220.833 538.5,220.5C 549.807,219.616 561.14,219.283 572.5,219.5C 589.717,218.615 606.717,218.282 623.5,218.5 Z"/></g>
<g><path style="opacity:1" fill="#bcdcf4" d="M 666.5,216.5 C 668.421,217.363 670.421,218.029 672.5,218.5C 672.5,232.167 672.5,245.833 672.5,259.5C 671.167,259.5 669.833,259.5 668.5,259.5C 666.517,245.539 665.85,231.206 666.5,216.5 Z"/></g>
<g><path style="opacity:0.999" fill="#acd5f2" d="M 672.5,218.5 C 674.421,219.363 676.421,220.029 678.5,220.5C 678.5,233.167 678.5,245.833 678.5,258.5C 679.5,258.5 680.5,258.5 681.5,258.5C 678.713,259.477 675.713,259.81 672.5,259.5C 672.5,245.833 672.5,232.167 672.5,218.5 Z"/></g>
<g><path style="opacity:1" fill="#9accee" d="M 678.5,220.5 C 680.421,221.363 682.421,222.029 684.5,222.5C 684.5,234.5 684.5,246.5 684.5,258.5C 683.5,258.5 682.5,258.5 681.5,258.5C 680.5,258.5 679.5,258.5 678.5,258.5C 678.5,245.833 678.5,233.167 678.5,220.5 Z"/></g>
<g><path style="opacity:1" fill="#88c6ec" d="M 684.5,222.5 C 689.73,224.128 694.73,226.128 699.5,228.5C 697.527,237.775 696.86,247.442 697.5,257.5C 695.565,258.15 693.565,258.483 691.5,258.5C 691.167,258.5 690.833,258.5 690.5,258.5C 689.167,258.5 687.833,258.5 686.5,258.5C 686.167,258.5 685.833,258.5 685.5,258.5C 685.167,258.5 684.833,258.5 684.5,258.5C 684.5,246.5 684.5,234.5 684.5,222.5 Z"/></g>
<g><path style="opacity:1" fill="#67b9e8" d="M 699.5,228.5 C 702.785,228.928 705.785,229.928 708.5,231.5C 707.5,231.5 706.5,231.5 705.5,231.5C 705.5,239.833 705.5,248.167 705.5,256.5C 708.167,256.5 710.833,256.5 713.5,256.5C 708.36,257.488 703.026,257.821 697.5,257.5C 696.86,247.442 697.527,237.775 699.5,228.5 Z"/></g>
<g><path style="opacity:1" fill="#2cabe2" d="M 708.5,231.5 C 715.482,233.6 722.148,236.267 728.5,239.5C 728.5,244.833 728.5,250.167 728.5,255.5C 728.5,255.833 728.5,256.167 728.5,256.5C 728.167,256.5 727.833,256.5 727.5,256.5C 724.833,256.5 722.167,256.5 719.5,256.5C 719.167,256.5 718.833,256.5 718.5,256.5C 716.833,256.5 715.167,256.5 713.5,256.5C 710.833,256.5 708.167,256.5 705.5,256.5C 705.5,248.167 705.5,239.833 705.5,231.5C 706.5,231.5 707.5,231.5 708.5,231.5 Z"/></g>
<g><path style="opacity:1" fill="#1a9ddc" d="M 728.5,239.5 C 734.547,240.355 739.547,243.021 743.5,247.5C 742.776,249.218 742.109,251.052 741.5,253C 738.92,254.144 736.253,254.978 733.5,255.5C 733.167,255.5 732.833,255.5 732.5,255.5C 731.167,255.5 729.833,255.5 728.5,255.5C 728.5,250.167 728.5,244.833 728.5,239.5 Z"/></g>
<g><path style="opacity:1" fill="#eceff8" d="M 743.5,247.5 C 744.974,248.436 745.974,249.77 746.5,251.5C 746.5,260.5 746.5,269.5 746.5,278.5C 742.167,278.5 737.833,278.5 733.5,278.5C 733.5,270.833 733.5,263.167 733.5,255.5C 736.253,254.978 738.92,254.144 741.5,253C 742.109,251.052 742.776,249.218 743.5,247.5 Z"/></g>
<g><path style="opacity:1" fill="#e7e9f5" d="M 728.5,255.5 C 729.833,255.5 731.167,255.5 732.5,255.5C 732.5,263.5 732.5,271.5 732.5,279.5C 731.833,279.5 731.167,279.5 730.5,279.5C 728.535,272.24 727.868,264.573 728.5,256.5C 728.5,256.167 728.5,255.833 728.5,255.5 Z"/></g>
<g><path style="opacity:1" fill="#c1cce8" d="M 746.5,251.5 C 747.906,251.973 748.573,252.973 748.5,254.5C 747.834,258.319 747.501,262.319 747.5,266.5C 747.509,270.893 748.176,274.893 749.5,278.5C 744.025,279.489 738.358,279.822 732.5,279.5C 732.5,271.5 732.5,263.5 732.5,255.5C 732.833,255.5 733.167,255.5 733.5,255.5C 733.5,263.167 733.5,270.833 733.5,278.5C 737.833,278.5 742.167,278.5 746.5,278.5C 746.5,269.5 746.5,260.5 746.5,251.5 Z"/></g>
<g><path style="opacity:1" fill="#bbc7e5" d="M 718.5,256.5 C 718.833,256.5 719.167,256.5 719.5,256.5C 719.5,264.167 719.5,271.833 719.5,279.5C 722.167,279.5 724.833,279.5 727.5,279.5C 727.5,271.833 727.5,264.167 727.5,256.5C 727.833,256.5 728.167,256.5 728.5,256.5C 727.868,264.573 728.535,272.24 730.5,279.5C 726.702,280.483 722.702,280.817 718.5,280.5C 718.5,272.5 718.5,264.5 718.5,256.5 Z"/></g>
<g><path style="opacity:1" fill="#e2e5f3" d="M 719.5,256.5 C 722.167,256.5 724.833,256.5 727.5,256.5C 727.5,264.167 727.5,271.833 727.5,279.5C 724.833,279.5 722.167,279.5 719.5,279.5C 719.5,271.833 719.5,264.167 719.5,256.5 Z"/></g>
<g><path style="opacity:1" fill="#acbadf" d="M 685.5,258.5 C 685.833,258.5 686.167,258.5 686.5,258.5C 686.5,266.5 686.5,274.5 686.5,282.5C 687.833,282.5 689.167,282.5 690.5,282.5C 690.5,274.5 690.5,266.5 690.5,258.5C 690.833,258.5 691.167,258.5 691.5,258.5C 691.174,266.684 691.508,274.684 692.5,282.5C 690.052,283.473 687.385,283.806 684.5,283.5C 685.469,275.252 685.802,266.918 685.5,258.5 Z"/></g>
<g><path style="opacity:1" fill="#c9d0e8" d="M 686.5,258.5 C 687.833,258.5 689.167,258.5 690.5,258.5C 690.5,266.5 690.5,274.5 690.5,282.5C 689.167,282.5 687.833,282.5 686.5,282.5C 686.5,274.5 686.5,266.5 686.5,258.5 Z"/></g>
<g><path style="opacity:1" fill="#ced5ec" d="M 713.5,256.5 C 715.167,256.5 716.833,256.5 718.5,256.5C 718.5,264.5 718.5,272.5 718.5,280.5C 709.879,281.607 701.212,282.274 692.5,282.5C 691.508,274.684 691.174,266.684 691.5,258.5C 693.565,258.483 695.565,258.15 697.5,257.5C 703.026,257.821 708.36,257.488 713.5,256.5 Z"/></g>
<g><path style="opacity:1" fill="#c2cbe7" d="M 681.5,258.5 C 682.5,258.5 683.5,258.5 684.5,258.5C 684.833,258.5 685.167,258.5 685.5,258.5C 685.802,266.918 685.469,275.252 684.5,283.5C 680.901,284.344 677.234,284.677 673.5,284.5C 672.671,276.677 672.171,268.677 672,260.5C 671.5,268.493 671.334,276.493 671.5,284.5C 670.167,284.5 668.833,284.5 667.5,284.5C 667.5,276.5 667.5,268.5 667.5,260.5C 668.167,260.5 668.5,260.167 668.5,259.5C 669.833,259.5 671.167,259.5 672.5,259.5C 675.713,259.81 678.713,259.477 681.5,258.5 Z"/></g>
<g><path style="opacity:1" fill="#eceff8" d="M 748.5,254.5 C 753.761,261.694 757.428,269.694 759.5,278.5C 756.167,278.5 752.833,278.5 749.5,278.5C 748.176,274.893 747.509,270.893 747.5,266.5C 747.501,262.319 747.834,258.319 748.5,254.5 Z"/></g>
<g><path style="opacity:1" fill="#b3bee1" d="M 667.5,260.5 C 667.5,268.5 667.5,276.5 667.5,284.5C 668.833,284.5 670.167,284.5 671.5,284.5C 671.334,276.493 671.5,268.493 672,260.5C 672.171,268.677 672.671,276.677 673.5,284.5C 665.698,285.975 657.698,286.975 649.5,287.5C 647.833,287.5 646.167,287.5 644.5,287.5C 644.5,279.5 644.5,271.5 644.5,263.5C 643.5,263.5 642.5,263.5 641.5,263.5C 644.287,262.523 647.287,262.19 650.5,262.5C 653.167,262.167 655.833,261.833 658.5,261.5C 661.518,261.296 664.518,260.963 667.5,260.5 Z"/></g>
<g><path style="opacity:1" fill="#a3b1da" d="M 641.5,263.5 C 642.5,263.5 643.5,263.5 644.5,263.5C 644.5,271.5 644.5,279.5 644.5,287.5C 646.167,287.5 647.833,287.5 649.5,287.5C 638.7,289.615 627.7,291.282 616.5,292.5C 616.5,284.5 616.5,276.5 616.5,268.5C 615.5,268.5 614.5,268.5 613.5,268.5C 622.621,266.345 631.954,264.678 641.5,263.5 Z"/></g>
<g><path style="opacity:1" fill="#95a5d4" d="M 613.5,268.5 C 614.5,268.5 615.5,268.5 616.5,268.5C 616.5,276.5 616.5,284.5 616.5,292.5C 609.405,294.45 602.071,295.784 594.5,296.5C 593.5,296.5 592.5,296.5 591.5,296.5C 591.5,288.833 591.5,281.167 591.5,273.5C 590.167,273.5 588.833,273.5 587.5,273.5C 595.904,271.087 604.57,269.42 613.5,268.5 Z"/></g>
<g><path style="opacity:1" fill="#879bcf" d="M 587.5,273.5 C 588.833,273.5 590.167,273.5 591.5,273.5C 591.5,281.167 591.5,288.833 591.5,296.5C 592.5,296.5 593.5,296.5 594.5,296.5C 583.385,299.324 572.052,301.657 560.5,303.5C 559.508,296.018 559.175,288.352 559.5,280.5C 558.5,280.5 557.5,280.5 556.5,280.5C 566.549,277.407 576.883,275.074 587.5,273.5 Z"/></g>
<g><path style="opacity:1" fill="#788fc8" d="M 556.5,280.5 C 557.5,280.5 558.5,280.5 559.5,280.5C 559.175,288.352 559.508,296.018 560.5,303.5C 556.453,305.26 552.12,306.26 547.5,306.5C 541.5,306.5 535.5,306.5 529.5,306.5C 527.547,300.926 526.88,294.926 527.5,288.5C 526.5,288.5 525.5,288.5 524.5,288.5C 534.911,285.23 545.578,282.564 556.5,280.5 Z"/></g>
<g><path style="opacity:1" fill="#6883c1" d="M 524.5,288.5 C 525.5,288.5 526.5,288.5 527.5,288.5C 526.88,294.926 527.547,300.926 529.5,306.5C 520.015,307.877 510.349,308.877 500.5,309.5C 499.167,305.167 497.833,300.833 496.5,296.5C 505.555,293.233 514.889,290.566 524.5,288.5 Z"/></g>
<g><path style="opacity:1" fill="#5779bc" d="M 496.5,296.5 C 497.833,300.833 499.167,305.167 500.5,309.5C 487.686,312.137 474.686,314.471 461.5,316.5C 462.036,313.302 461.369,310.635 459.5,308.5C 471.479,303.73 483.813,299.73 496.5,296.5 Z"/></g>
<g><path style="opacity:1" fill="#2364b0" d="M 529.5,306.5 C 535.5,306.5 541.5,306.5 547.5,306.5C 514.934,315.062 482.601,324.729 450.5,335.5C 441.26,335.003 431.927,335.67 422.5,337.5C 417.814,338.037 413.147,338.704 408.5,339.5C 404.147,340.059 399.814,340.725 395.5,341.5C 390.661,342.266 385.994,343.266 381.5,344.5C 376.185,344.508 371.185,345.508 366.5,347.5C 364.585,347.784 362.919,347.451 361.5,346.5C 376.672,339.776 392.005,333.443 407.5,327.5C 425.663,324.033 443.663,320.366 461.5,316.5C 474.686,314.471 487.686,312.137 500.5,309.5C 510.349,308.877 520.015,307.877 529.5,306.5 Z"/></g>
<g><path style="opacity:1" fill="#93caed" d="M 313.5,315.5 C 318.5,315.5 323.5,315.5 328.5,315.5C 328.5,322.5 328.5,329.5 328.5,336.5C 323.53,335.647 318.53,334.98 313.5,334.5C 313.5,328.167 313.5,321.833 313.5,315.5 Z"/></g>
<g><path style="opacity:1" fill="#a5d2f0" d="M 328.5,315.5 C 332.833,315.5 337.167,315.5 341.5,315.5C 341.5,323.5 341.5,331.5 341.5,339.5C 337.213,338.293 332.88,337.293 328.5,336.5C 328.5,329.5 328.5,322.5 328.5,315.5 Z"/></g>
<g><path style="opacity:1" fill="#b7daf3" d="M 341.5,315.5 C 345.702,315.183 349.702,315.517 353.5,316.5C 352.5,316.5 351.5,316.5 350.5,316.5C 350.5,325.5 350.5,334.5 350.5,343.5C 350.5,344.167 350.167,344.5 349.5,344.5C 347.368,342.045 344.701,340.379 341.5,339.5C 341.5,331.5 341.5,323.5 341.5,315.5 Z"/></g>
<g><path style="opacity:1" fill="#c6e1f6" d="M 353.5,316.5 C 357.869,316.467 362.202,316.8 366.5,317.5C 366.5,323.833 366.5,330.167 366.5,336.5C 361.469,339.345 356.136,341.678 350.5,343.5C 350.5,334.5 350.5,325.5 350.5,316.5C 351.5,316.5 352.5,316.5 353.5,316.5 Z"/></g>
<g><path style="opacity:1" fill="#68bae8" d="M 313.5,315.5 C 313.5,321.833 313.5,328.167 313.5,334.5C 304.167,334.5 294.833,334.5 285.5,334.5C 285.214,328.741 285.548,323.075 286.5,317.5C 295.476,316.558 304.476,315.891 313.5,315.5 Z"/></g>
<g><path style="opacity:1" fill="#4470b6" d="M 459.5,308.5 C 461.369,310.635 462.036,313.302 461.5,316.5C 443.663,320.366 425.663,324.033 407.5,327.5C 424.31,320.005 441.643,313.672 459.5,308.5 Z"/></g>
<g><path style="opacity:1" fill="#3aafe3" d="M 286.5,317.5 C 285.548,323.075 285.214,328.741 285.5,334.5C 280.203,335.275 274.87,335.608 269.5,335.5C 269.218,330.073 269.551,324.74 270.5,319.5C 275.807,318.67 281.141,318.003 286.5,317.5 Z"/></g>
<g><path style="opacity:1" fill="#e4f1fb" d="M 366.5,317.5 C 374.809,318.602 382.476,321.268 389.5,325.5C 383.038,330.221 375.371,333.888 366.5,336.5C 366.5,330.167 366.5,323.833 366.5,317.5 Z"/></g>
<g><path style="opacity:1" fill="#05a3df" d="M 270.5,319.5 C 269.551,324.74 269.218,330.073 269.5,335.5C 259.34,337.153 249.006,338.486 238.5,339.5C 238.5,335.167 238.5,330.833 238.5,326.5C 238.973,325.094 239.973,324.427 241.5,324.5C 251.107,322.51 260.773,320.843 270.5,319.5 Z"/></g>
<g><path style="opacity:0.993" fill="#0496da" d="M 238.5,326.5 C 238.5,330.833 238.5,335.167 238.5,339.5C 249.006,338.486 259.34,337.153 269.5,335.5C 274.87,335.608 280.203,335.275 285.5,334.5C 294.833,334.5 304.167,334.5 313.5,334.5C 318.53,334.98 323.53,335.647 328.5,336.5C 332.88,337.293 337.213,338.293 341.5,339.5C 344.701,340.379 347.368,342.045 349.5,344.5C 339.306,349.429 328.973,354.096 318.5,358.5C 314.47,357.146 310.47,355.813 306.5,354.5C 299.297,352.683 291.964,351.683 284.5,351.5C 280.702,350.517 276.702,350.183 272.5,350.5C 266.167,350.5 259.833,350.5 253.5,350.5C 248.819,350.669 244.152,351.002 239.5,351.5C 234.798,352.004 230.131,352.671 225.5,353.5C 216.89,354.431 208.556,356.098 200.5,358.5C 198.194,358.993 195.861,359.326 193.5,359.5C 207.652,347.348 222.652,336.348 238.5,326.5 Z"/></g>
<g><path style="opacity:1" fill="#bbd6ef" d="M 450.5,335.5 C 441.976,338.897 433.31,341.897 424.5,344.5C 422.656,342.721 421.99,340.388 422.5,337.5C 431.927,335.67 441.26,335.003 450.5,335.5 Z"/></g>
<g><path style="opacity:1" fill="#9dcaec" d="M 422.5,337.5 C 421.99,340.388 422.656,342.721 424.5,344.5C 420.466,346.737 416.132,348.404 411.5,349.5C 409.833,349.5 408.167,349.5 406.5,349.5C 406.06,345.821 406.727,342.488 408.5,339.5C 413.147,338.704 417.814,338.037 422.5,337.5 Z"/></g>
<g><path style="opacity:1" fill="#85c1e9" d="M 408.5,339.5 C 406.727,342.488 406.06,345.821 406.5,349.5C 408.167,349.5 409.833,349.5 411.5,349.5C 411.158,350.338 410.492,350.672 409.5,350.5C 404.493,350.751 399.493,351.084 394.5,351.5C 394.253,348.061 394.586,344.728 395.5,341.5C 399.814,340.725 404.147,340.059 408.5,339.5 Z"/></g>
<g><path style="opacity:1" fill="#67b7e6" d="M 395.5,341.5 C 394.586,344.728 394.253,348.061 394.5,351.5C 390.705,352.617 386.705,353.283 382.5,353.5C 381.523,350.713 381.19,347.713 381.5,344.5C 385.994,343.266 390.661,342.266 395.5,341.5 Z"/></g>
<g><path style="opacity:1" fill="#40aee3" d="M 381.5,344.5 C 381.19,347.713 381.523,350.713 382.5,353.5C 378.057,354.801 373.391,355.468 368.5,355.5C 366.631,353.365 365.964,350.698 366.5,347.5C 371.185,345.508 376.185,344.508 381.5,344.5 Z"/></g>
<g><path style="opacity:1" fill="#1ba1dc" d="M 361.5,346.5 C 362.919,347.451 364.585,347.784 366.5,347.5C 365.964,350.698 366.631,353.365 368.5,355.5C 355.049,358.656 341.382,361.323 327.5,363.5C 338.52,357.323 349.854,351.657 361.5,346.5 Z"/></g>
<g><path style="opacity:1" fill="#9bcdef" d="M 253.5,350.5 C 259.833,350.5 266.167,350.5 272.5,350.5C 272.5,361.167 272.5,371.833 272.5,382.5C 270.819,384.008 268.819,385.008 266.5,385.5C 262.584,382.743 258.25,380.743 253.5,379.5C 253.5,369.833 253.5,360.167 253.5,350.5 Z"/></g>
<g><path style="opacity:1" fill="#acd5f2" d="M 272.5,350.5 C 276.702,350.183 280.702,350.517 284.5,351.5C 283.5,351.5 282.5,351.5 281.5,351.5C 281.5,360.167 281.5,368.833 281.5,377.5C 278.696,379.405 275.696,381.071 272.5,382.5C 272.5,371.833 272.5,361.167 272.5,350.5 Z"/></g>
<g><path style="opacity:1" fill="#6fbce9" d="M 253.5,350.5 C 253.5,360.167 253.5,369.833 253.5,379.5C 248.067,377.814 242.733,376.148 237.5,374.5C 236.919,366.559 237.586,358.892 239.5,351.5C 244.152,351.002 248.819,350.669 253.5,350.5 Z"/></g>
<g><path style="opacity:1" fill="#2464b0" d="M 409.5,350.5 C 392.235,357.794 374.901,365.127 357.5,372.5C 357.565,372.062 357.399,371.728 357,371.5C 350.885,372.992 344.718,374.326 338.5,375.5C 330.799,377.04 323.132,378.707 315.5,380.5C 309.181,382.296 302.848,383.963 296.5,385.5C 291.163,386.836 285.83,388.169 280.5,389.5C 279.833,389.5 279.5,389.167 279.5,388.5C 295.212,379.644 311.212,371.31 327.5,363.5C 341.382,361.323 355.049,358.656 368.5,355.5C 373.391,355.468 378.057,354.801 382.5,353.5C 386.705,353.283 390.705,352.617 394.5,351.5C 399.493,351.084 404.493,350.751 409.5,350.5 Z"/></g>
<g><path style="opacity:1" fill="#cce4f7" d="M 284.5,351.5 C 291.964,351.683 299.297,352.683 306.5,354.5C 306.823,358.226 306.489,361.893 305.5,365.5C 297.342,369.321 289.342,373.321 281.5,377.5C 281.5,368.833 281.5,360.167 281.5,351.5C 282.5,351.5 283.5,351.5 284.5,351.5 Z"/></g>
<g><path style="opacity:1" fill="#51b3e5" d="M 239.5,351.5 C 237.586,358.892 236.919,366.559 237.5,374.5C 236.167,374.5 234.833,374.5 233.5,374.5C 230.904,373.735 228.237,373.401 225.5,373.5C 225.5,366.833 225.5,360.167 225.5,353.5C 230.131,352.671 234.798,352.004 239.5,351.5 Z"/></g>
<g><path style="opacity:1" fill="#009ddc" d="M 200.5,358.5 C 200.5,362.833 200.5,367.167 200.5,371.5C 198.585,371.216 196.919,371.549 195.5,372.5C 194.5,372.5 193.5,372.5 192.5,372.5C 186.527,373.276 180.527,373.943 174.5,374.5C 180.54,369.126 186.874,364.126 193.5,359.5C 195.861,359.326 198.194,358.993 200.5,358.5 Z"/></g>
<g><path style="opacity:1" fill="#49b2e5" d="M 192.5,372.5 C 193.5,372.5 194.5,372.5 195.5,372.5C 197.5,372.5 199.5,372.5 201.5,372.5C 201.17,389.675 201.503,406.675 202.5,423.5C 200.054,426.231 197.054,428.231 193.5,429.5C 192.503,410.674 192.17,391.674 192.5,372.5 Z"/></g>
<g><path style="opacity:1" fill="#1ca8e1" d="M 225.5,353.5 C 225.5,360.167 225.5,366.833 225.5,373.5C 228.237,373.401 230.904,373.735 233.5,374.5C 233.173,384.348 233.506,394.014 234.5,403.5C 224.178,410.664 213.511,417.331 202.5,423.5C 201.503,406.675 201.17,389.675 201.5,372.5C 199.5,372.5 197.5,372.5 195.5,372.5C 196.919,371.549 198.585,371.216 200.5,371.5C 200.5,367.167 200.5,362.833 200.5,358.5C 208.556,356.098 216.89,354.431 225.5,353.5 Z"/></g>
<g><path style="opacity:1" fill="#64b9e8" d="M 192.5,372.5 C 192.17,391.674 192.503,410.674 193.5,429.5C 186.204,434.487 178.87,439.487 171.5,444.5C 170.668,423.004 170.168,401.337 170,379.5C 169.184,380.823 168.017,381.489 166.5,381.5C 169.126,379.177 171.793,376.843 174.5,374.5C 180.527,373.943 186.527,373.276 192.5,372.5 Z"/></g>
<g><path style="opacity:1" fill="#f1f2f2" d="M 1000.5,470.5 C 991.201,482.068 981.201,493.068 970.5,503.5C 970.5,499.833 970.5,496.167 970.5,492.5C 976.878,485.457 982.878,478.124 988.5,470.5C 1000.37,457.117 1011.54,443.117 1022,428.5C 1028.82,418.187 1034.99,407.52 1040.5,396.5C 1043.81,391.887 1046.65,386.887 1049,381.5C 1060.86,355.739 1068.19,328.739 1071,300.5C 1070.89,329.28 1065.22,356.947 1054,383.5C 1039.68,414.832 1021.85,443.832 1000.5,470.5 Z"/></g>
<g><path style="opacity:1" fill="#c5cfe9" d="M 357.5,372.5 C 351.357,375.737 345.024,378.737 338.5,381.5C 335.985,379.682 335.985,377.682 338.5,375.5C 344.718,374.326 350.885,372.992 357,371.5C 357.399,371.728 357.565,372.062 357.5,372.5 Z"/></g>
<g><path style="opacity:1" fill="#089ddc" d="M 233.5,374.5 C 234.833,374.5 236.167,374.5 237.5,374.5C 242.733,376.148 248.067,377.814 253.5,379.5C 258.25,380.743 262.584,382.743 266.5,385.5C 256.165,392.003 245.498,398.003 234.5,403.5C 233.506,394.014 233.173,384.348 233.5,374.5 Z"/></g>
<g><path style="opacity:1" fill="#a4b4dc" d="M 338.5,375.5 C 335.985,377.682 335.985,379.682 338.5,381.5C 331.484,385.675 324.151,389.341 316.5,392.5C 314.158,388.884 313.825,384.884 315.5,380.5C 323.132,378.707 330.799,377.04 338.5,375.5 Z"/></g>
<g><path style="opacity:1" fill="#85c4ec" d="M 171.5,444.5 C 166.046,448.733 160.38,452.733 154.5,456.5C 154.831,435.327 154.497,414.327 153.5,393.5C 157.207,388.792 161.54,384.792 166.5,381.5C 168.017,381.489 169.184,380.823 170,379.5C 170.168,401.337 170.668,423.004 171.5,444.5 Z"/></g>
<g><path style="opacity:1" fill="#8599ce" d="M 315.5,380.5 C 313.825,384.884 314.158,388.884 316.5,392.5C 310.359,396.072 304.026,399.405 297.5,402.5C 296.511,397.025 296.178,391.358 296.5,385.5C 302.848,383.963 309.181,382.296 315.5,380.5 Z"/></g>
<g><path style="opacity:1" fill="#6f89c5" d="M 296.5,385.5 C 296.178,391.358 296.511,397.025 297.5,402.5C 292.667,405.418 287.667,408.084 282.5,410.5C 280.539,403.913 279.872,396.913 280.5,389.5C 285.83,388.169 291.163,386.836 296.5,385.5 Z"/></g>
<g><path style="opacity:1" fill="#5679bc" d="M 279.5,388.5 C 279.5,389.167 279.833,389.5 280.5,389.5C 279.872,396.913 280.539,403.913 282.5,410.5C 278.423,413.227 274.09,415.561 269.5,417.5C 267.849,410.726 266.849,403.726 266.5,396.5C 270.63,393.597 274.963,390.93 279.5,388.5 Z"/></g>
<g><path style="opacity:1" fill="#92c9ed" d="M 153.5,393.5 C 154.497,414.327 154.831,435.327 154.5,456.5C 152.14,458.853 149.473,460.853 146.5,462.5C 145.833,442.167 145.167,421.833 144.5,401.5C 146.9,398.097 149.9,395.43 153.5,393.5 Z"/></g>
<g><path style="opacity:1" fill="#3c6db5" d="M 266.5,396.5 C 266.849,403.726 267.849,410.726 269.5,417.5C 264.335,421.586 258.668,424.92 252.5,427.5C 253.13,419.757 252.463,412.424 250.5,405.5C 255.502,401.997 260.835,398.997 266.5,396.5 Z"/></g>
<g><path style="opacity:1" fill="#a2cfef" d="M 144.5,401.5 C 145.167,421.833 145.833,442.167 146.5,462.5C 145.055,464.063 143.389,465.396 141.5,466.5C 139.676,447.192 138.843,427.526 139,407.5C 137.223,409.79 135.056,411.457 132.5,412.5C 135.874,408.124 139.874,404.458 144.5,401.5 Z"/></g>
<g><path style="opacity:1" fill="#2263b0" d="M 250.5,405.5 C 252.463,412.424 253.13,419.757 252.5,427.5C 167.187,479.453 87.1871,538.786 12.5,605.5C 9.11327,593.642 8.11327,581.642 9.5,569.5C 10.5523,570.53 11.8857,571.197 13.5,571.5C 16.7022,570.901 19.7022,569.734 22.5,568C 31.6333,562.021 40.3,555.521 48.5,548.5C 52.8962,545.975 56.8962,542.975 60.5,539.5C 63.8103,537.518 66.8103,535.185 69.5,532.5C 72.8103,530.518 75.8103,528.185 78.5,525.5C 81.4735,523.853 84.1401,521.853 86.5,519.5C 89.4323,518.2 91.7656,516.2 93.5,513.5C 97.1916,511.656 100.525,509.323 103.5,506.5C 106.06,504.727 108.393,502.727 110.5,500.5C 155.407,466.369 202.074,434.702 250.5,405.5 Z"/></g>
<g><path style="opacity:1" fill="#b1d7f2" d="M 141.5,466.5 C 135.3,472.014 128.3,476.347 120.5,479.5C 120.83,461.326 120.497,443.326 119.5,425.5C 123.5,420.833 127.833,416.5 132.5,412.5C 135.056,411.457 137.223,409.79 139,407.5C 138.843,427.526 139.676,447.192 141.5,466.5 Z"/></g>
<g><path style="opacity:1" fill="#cae3f6" d="M 119.5,425.5 C 120.497,443.326 120.83,461.326 120.5,479.5C 117.164,481.731 113.497,483.397 109.5,484.5C 107.679,469.867 106.846,454.867 107,439.5C 105.629,441.041 104.129,442.375 102.5,443.5C 107.441,436.89 113.108,430.89 119.5,425.5 Z"/></g>
<g><path style="opacity:1" fill="#888a8d" d="M 292.5,497.5 C 290.052,498.473 287.385,498.806 284.5,498.5C 282.38,481.029 284.047,463.862 289.5,447C 289.333,446.5 289.167,446 289,445.5C 285.222,447.97 281.389,450.303 277.5,452.5C 264.501,459.664 251.834,467.331 239.5,475.5C 232.167,480.167 224.833,484.833 217.5,489.5C 213.688,488.676 209.688,488.176 205.5,488C 206.056,487.617 206.389,487.117 206.5,486.5C 237.604,465.101 269.937,445.434 303.5,427.5C 303.833,428 304.167,428.5 304.5,429C 296.055,451.06 292.055,473.893 292.5,497.5 Z"/></g>
<g><path style="opacity:1" fill="#a2a4a7" d="M 284.5,498.5 C 285.634,521.929 293.967,542.263 309.5,559.5C 310.167,560.5 310.833,561.5 311.5,562.5C 310.503,580.993 310.17,599.659 310.5,618.5C 301.695,614.932 293.361,610.599 285.5,605.5C 282.833,603.167 280.167,600.833 277.5,598.5C 277.5,549.833 277.5,501.167 277.5,452.5C 281.389,450.303 285.222,447.97 289,445.5C 289.167,446 289.333,446.5 289.5,447C 284.047,463.862 282.38,481.029 284.5,498.5 Z"/></g>
<g><path style="opacity:1" fill="#d7eaf9" d="M 109.5,484.5 C 106.442,486.132 103.109,487.299 99.5,488C 89.9466,489.891 87.6133,490.058 92.5,488.5C 92.6665,477.495 92.4998,466.495 92,455.5C 91.6174,456.056 91.1174,456.389 90.5,456.5C 93.7703,451.56 97.7703,447.227 102.5,443.5C 104.129,442.375 105.629,441.041 107,439.5C 106.846,454.867 107.679,469.867 109.5,484.5 Z"/></g>
<g><path style="opacity:1" fill="#9fa1a4" d="M 277.5,452.5 C 277.5,501.167 277.5,549.833 277.5,598.5C 268.697,591.24 261.03,582.907 254.5,573.5C 249.745,566.324 244.745,559.324 239.5,552.5C 239.5,526.833 239.5,501.167 239.5,475.5C 251.834,467.331 264.501,459.664 277.5,452.5 Z"/></g>
<g><path style="opacity:1" fill="#9a9c9f" d="M 239.5,475.5 C 239.5,501.167 239.5,526.833 239.5,552.5C 238.272,551.694 237.272,550.694 236.5,549.5C 221.074,529.966 201.074,522.8 176.5,528C 165.022,531.916 154.022,536.583 143.5,542C 167.669,523.753 192.335,506.253 217.5,489.5C 224.833,484.833 232.167,480.167 239.5,475.5 Z"/></g>
<g><path style="opacity:1" fill="#eceded" d="M 926.5,470.5 C 912.124,482.878 897.457,494.878 882.5,506.5C 881.523,503.713 881.19,500.713 881.5,497.5C 893.232,489.307 904.565,480.64 915.5,471.5C 938.428,452.74 959.595,432.073 979,409.5C 997.698,388.098 1012.36,364.098 1023,337.5C 1016.51,363.138 1005.18,386.472 989,407.5C 969.301,429.699 948.468,450.699 926.5,470.5 Z"/></g>
<g><path style="opacity:0.976" fill="#848689" d="M 903.5,470.5 C 907.702,470.183 911.702,470.517 915.5,471.5C 904.565,480.64 893.232,489.307 881.5,497.5C 868.34,506.916 854.674,515.583 840.5,523.5C 835.36,522.512 830.026,522.179 824.5,522.5C 852.024,506.909 878.357,489.576 903.5,470.5 Z"/></g>
<g><path style="opacity:1" fill="#848689" d="M 926.5,470.5 C 947.167,470.5 967.833,470.5 988.5,470.5C 982.878,478.124 976.878,485.457 970.5,492.5C 963.5,499.167 956.5,505.833 949.5,512.5C 924.833,512.5 900.167,512.5 875.5,512.5C 877.647,510.263 879.98,508.263 882.5,506.5C 897.457,494.878 912.124,482.878 926.5,470.5 Z"/></g>
<g><path style="opacity:1" fill="#dfeefa" d="M 54.5,499.5 C 72.9925,500.497 91.6592,500.83 110.5,500.5C 108.393,502.727 106.06,504.727 103.5,506.5C 85.3256,506.83 67.3256,506.497 49.5,505.5C 50.4431,502.891 52.1097,500.891 54.5,499.5 Z"/></g>
<g><path style="opacity:1" fill="#cee5f7" d="M 49.5,505.5 C 67.3256,506.497 85.3256,506.83 103.5,506.5C 100.525,509.323 97.1916,511.656 93.5,513.5C 76.9915,513.83 60.6581,513.496 44.5,512.5C 45.7859,509.883 47.4525,507.55 49.5,505.5 Z"/></g>
<g><path style="opacity:0.999" fill="#b3d7f2" d="M 44.5,512.5 C 60.6581,513.496 76.9915,513.83 93.5,513.5C 91.7656,516.2 89.4323,518.2 86.5,519.5C 70.8333,519.5 55.1667,519.5 39.5,519.5C 40.7859,516.883 42.4525,514.55 44.5,512.5 Z"/></g>
<g><path style="opacity:1" fill="#9fcfef" d="M 39.5,519.5 C 55.1667,519.5 70.8333,519.5 86.5,519.5C 84.1401,521.853 81.4735,523.853 78.5,525.5C 63.9903,525.829 49.6569,525.496 35.5,524.5C 36.604,522.611 37.9373,520.945 39.5,519.5 Z"/></g>
<g><path style="opacity:1" fill="#7e8083" d="M 875.5,512.5 C 900.167,512.5 924.833,512.5 949.5,512.5C 940.409,522.928 930.409,532.261 919.5,540.5C 890.833,540.5 862.167,540.5 833.5,540.5C 847.492,531.17 861.492,521.836 875.5,512.5 Z"/></g>
<g><path style="opacity:1" fill="#8cc6ec" d="M 35.5,524.5 C 49.6569,525.496 63.9903,525.829 78.5,525.5C 75.8103,528.185 72.8103,530.518 69.5,532.5C 56.5,532.5 43.5,532.5 30.5,532.5C 31.6693,529.489 33.336,526.822 35.5,524.5 Z"/></g>
<g><path style="opacity:1" fill="#76bee9" d="M 30.5,532.5 C 43.5,532.5 56.5,532.5 69.5,532.5C 66.8103,535.185 63.8103,537.518 60.5,539.5C 49.3456,538.505 38.0123,538.172 26.5,538.5C 27.3403,536.147 28.6736,534.147 30.5,532.5 Z"/></g>
<g><path style="opacity:1" fill="#e3e4e4" d="M 970.5,492.5 C 970.5,496.167 970.5,499.833 970.5,503.5C 955.858,519.809 940.525,535.476 924.5,550.5C 910.79,562.212 896.79,573.546 882.5,584.5C 881.517,580.702 881.183,576.702 881.5,572.5C 884.681,570.408 887.681,568.075 890.5,565.5C 898.292,559.547 905.959,553.38 913.5,547C 915.706,544.963 917.706,542.797 919.5,540.5C 930.409,532.261 940.409,522.928 949.5,512.5C 956.5,505.833 963.5,499.167 970.5,492.5 Z"/></g>
<g><path style="opacity:1" fill="#7c7d80" d="M 206.5,486.5 C 206.389,487.117 206.056,487.617 205.5,488C 209.688,488.176 213.688,488.676 217.5,489.5C 192.335,506.253 167.669,523.753 143.5,542C 154.022,536.583 165.022,531.916 176.5,528C 201.074,522.8 221.074,529.966 236.5,549.5C 209.833,549.5 183.167,549.5 156.5,549.5C 157.038,547.883 157.371,546.216 157.5,544.5C 149.069,548.252 141.403,553.252 134.5,559.5C 126.167,558.833 117.833,558.167 109.5,557.5C 140.425,531.908 172.758,508.242 206.5,486.5 Z"/></g>
<g><path style="opacity:1" fill="#55b4e5" d="M 26.5,538.5 C 38.0123,538.172 49.3456,538.505 60.5,539.5C 56.8962,542.975 52.8962,545.975 48.5,548.5C 39.2649,547.184 29.9316,547.184 20.5,548.5C 22.0002,544.827 24.0002,541.494 26.5,538.5 Z"/></g>
<g><path style="opacity:1" fill="#dfdfe0" d="M 881.5,497.5 C 881.19,500.713 881.523,503.713 882.5,506.5C 879.98,508.263 877.647,510.263 875.5,512.5C 861.492,521.836 847.492,531.17 833.5,540.5C 819.735,548.936 805.735,556.936 791.5,564.5C 787.5,566.167 783.5,567.833 779.5,569.5C 778.513,564.695 778.179,559.695 778.5,554.5C 799.76,545.203 820.427,534.87 840.5,523.5C 854.674,515.583 868.34,506.916 881.5,497.5 Z"/></g>
<g><path style="opacity:1" fill="#7c7d80" d="M 824.5,522.5 C 830.026,522.179 835.36,522.512 840.5,523.5C 820.427,534.87 799.76,545.203 778.5,554.5C 769.833,558.167 761.167,561.833 752.5,565.5C 745.352,564.508 738.019,564.175 730.5,564.5C 762.709,552.645 794.043,538.645 824.5,522.5 Z"/></g>
<g><path style="opacity:1" fill="#808184" d="M 1000.5,470.5 C 1005.03,470.182 1009.37,470.515 1013.5,471.5C 992.464,500.885 968.464,527.885 941.5,552.5C 936.265,550.55 930.598,549.883 924.5,550.5C 940.525,535.476 955.858,519.809 970.5,503.5C 981.201,493.068 991.201,482.068 1000.5,470.5 Z"/></g>
<g><path style="opacity:1" fill="#7c7d80" d="M 292.5,497.5 C 294.69,518.399 302.356,537.066 315.5,553.5C 315.859,555.371 316.859,556.871 318.5,558C 315.305,558.181 312.305,558.681 309.5,559.5C 293.967,542.263 285.634,521.929 284.5,498.5C 287.385,498.806 290.052,498.473 292.5,497.5 Z"/></g>
<g><path style="opacity:1" fill="#7a7b7e" d="M 833.5,540.5 C 862.167,540.5 890.833,540.5 919.5,540.5C 917.706,542.797 915.706,544.963 913.5,547C 905.959,553.38 898.292,559.547 890.5,565.5C 857.671,564.502 824.671,564.168 791.5,564.5C 805.735,556.936 819.735,548.936 833.5,540.5 Z"/></g>
<g><path style="opacity:1" fill="#d9dadb" d="M 156.5,549.5 C 151.503,557.492 146.503,565.492 141.5,573.5C 133.846,583.458 127.18,594.124 121.5,605.5C 120.154,607.537 118.82,609.537 117.5,611.5C 117.5,598.833 117.5,586.167 117.5,573.5C 122.943,568.605 128.61,563.938 134.5,559.5C 141.403,553.252 149.069,548.252 157.5,544.5C 157.371,546.216 157.038,547.883 156.5,549.5 Z"/></g>
<g><path style="opacity:1" fill="#1aa4df" d="M 48.5,548.5 C 40.3,555.521 31.6333,562.021 22.5,568C 19.7022,569.734 16.7022,570.901 13.5,571.5C 11.8857,571.197 10.5523,570.53 9.5,569.5C 12.3906,562.051 16.0573,555.051 20.5,548.5C 29.9316,547.184 39.2649,547.184 48.5,548.5 Z"/></g>
<g><path style="opacity:1" fill="#77787b" d="M 156.5,549.5 C 183.167,549.5 209.833,549.5 236.5,549.5C 237.272,550.694 238.272,551.694 239.5,552.5C 244.745,559.324 249.745,566.324 254.5,573.5C 216.833,573.5 179.167,573.5 141.5,573.5C 146.503,565.492 151.503,557.492 156.5,549.5 Z"/></g>
<g><path style="opacity:1" fill="#d5d6d7" d="M 778.5,554.5 C 778.179,559.695 778.513,564.695 779.5,569.5C 763.172,577.941 746.505,585.608 729.5,592.5C 717.939,596.779 706.272,600.779 694.5,604.5C 694.207,597.745 694.54,591.078 695.5,584.5C 714.716,578.761 733.716,572.428 752.5,565.5C 761.167,561.833 769.833,558.167 778.5,554.5 Z"/></g>
<g><path style="opacity:1" fill="#747578" d="M 109.5,557.5 C 117.833,558.167 126.167,558.833 134.5,559.5C 128.61,563.938 122.943,568.605 117.5,573.5C 108.919,579.079 100.919,585.412 93.5,592.5C 92.5084,592.328 91.8417,592.662 91.5,593.5C 86.1667,597.833 80.8333,602.167 75.5,606.5C 68.011,605.671 60.3443,605.171 52.5,605C 53.056,604.617 53.3893,604.117 53.5,603.5C 71.2885,587.04 89.9552,571.706 109.5,557.5 Z"/></g>
<g><path style="opacity:1" fill="#757679" d="M 791.5,564.5 C 824.671,564.168 857.671,564.502 890.5,565.5C 887.681,568.075 884.681,570.408 881.5,572.5C 872.113,579.887 862.446,586.887 852.5,593.5C 811.67,592.501 770.67,592.168 729.5,592.5C 746.505,585.608 763.172,577.941 779.5,569.5C 783.5,567.833 787.5,566.167 791.5,564.5 Z"/></g>
<g><path style="opacity:1" fill="#e4e4e5" d="M 117.5,573.5 C 117.5,586.167 117.5,598.833 117.5,611.5C 115.556,615.723 113.889,620.056 112.5,624.5C 108.794,631.65 106.461,639.317 105.5,647.5C 105.066,654.335 106.399,660.668 109.5,666.5C 110.498,670.505 112.498,673.839 115.5,676.5C 115.733,678.062 116.4,679.395 117.5,680.5C 117.828,692.678 117.495,704.678 116.5,716.5C 108.353,713.261 100.686,709.261 93.5,704.5C 93.5,667.167 93.5,629.833 93.5,592.5C 100.919,585.412 108.919,579.079 117.5,573.5 Z"/></g>
<g><path style="opacity:1" fill="#a7a9ac" d="M 311.5,562.5 C 327.373,578.269 345.706,590.269 366.5,598.5C 366.187,611.246 366.52,623.913 367.5,636.5C 352.273,633.389 337.273,629.389 322.5,624.5C 318.5,622.5 314.5,620.5 310.5,618.5C 310.17,599.659 310.503,580.993 311.5,562.5 Z"/></g>
<g><path style="opacity:1" fill="#727376" d="M 141.5,573.5 C 179.167,573.5 216.833,573.5 254.5,573.5C 261.03,582.907 268.697,591.24 277.5,598.5C 280.167,600.833 282.833,603.167 285.5,605.5C 230.833,605.5 176.167,605.5 121.5,605.5C 127.18,594.124 133.846,583.458 141.5,573.5 Z"/></g>
<g><path style="opacity:1" fill="#747578" d="M 924.5,550.5 C 930.598,549.883 936.265,550.55 941.5,552.5C 920.693,572.31 898.693,590.644 875.5,607.5C 868.687,606.509 861.687,606.175 854.5,606.5C 863.833,599.167 873.167,591.833 882.5,584.5C 896.79,573.546 910.79,562.212 924.5,550.5 Z"/></g>
<g><path style="opacity:1" fill="#edeeee" d="M 91.5,593.5 C 92.8333,630.167 92.8333,666.833 91.5,703.5C 89.5,702.5 87.5,701.5 85.5,700.5C 79.1466,696.657 73.1466,692.323 67.5,687.5C 67.8309,663.328 67.4976,639.328 66.5,615.5C 69.3063,612.272 72.3063,609.272 75.5,606.5C 80.8333,602.167 86.1667,597.833 91.5,593.5 Z"/></g>
<g><path style="opacity:1" fill="#cbccce" d="M 695.5,584.5 C 694.54,591.078 694.207,597.745 694.5,604.5C 671.443,612.431 648.11,619.431 624.5,625.5C 622.139,625.674 619.806,626.007 617.5,626.5C 616.5,626.5 615.5,626.5 614.5,626.5C 614.5,618.833 614.5,611.167 614.5,603.5C 641.735,598.609 668.735,592.276 695.5,584.5 Z"/></g>
<g><path style="opacity:1" fill="#6e6f71" d="M 121.5,605.5 C 176.167,605.5 230.833,605.5 285.5,605.5C 293.361,610.599 301.695,614.932 310.5,618.5C 314.5,620.5 318.5,622.5 322.5,624.5C 252.5,624.5 182.5,624.5 112.5,624.5C 113.889,620.056 115.556,615.723 117.5,611.5C 118.82,609.537 120.154,607.537 121.5,605.5 Z"/></g>
<g><path style="opacity:0.987" fill="#717275" d="M 315.5,553.5 C 339.78,578.145 369.113,593.645 403.5,600C 440.863,607.435 478.53,609.435 516.5,606C 589.683,601.526 661.016,587.693 730.5,564.5C 738.019,564.175 745.352,564.508 752.5,565.5C 733.716,572.428 714.716,578.761 695.5,584.5C 668.735,592.276 641.735,598.609 614.5,603.5C 591.936,607.154 569.269,610.154 546.5,612.5C 509.9,616.824 473.234,617.491 436.5,614.5C 412.535,611.95 389.201,606.617 366.5,598.5C 345.706,590.269 327.373,578.269 311.5,562.5C 310.833,561.5 310.167,560.5 309.5,559.5C 312.305,558.681 315.305,558.181 318.5,558C 316.859,556.871 315.859,555.371 315.5,553.5 Z"/></g>
<g><path style="opacity:1" fill="#6f7072" d="M 729.5,592.5 C 770.67,592.168 811.67,592.501 852.5,593.5C 835.701,605.29 818.368,616.29 800.5,626.5C 742.002,625.501 683.336,625.168 624.5,625.5C 648.11,619.431 671.443,612.431 694.5,604.5C 706.272,600.779 717.939,596.779 729.5,592.5 Z"/></g>
<g><path style="opacity:1" fill="#c3c4c6" d="M 614.5,603.5 C 614.5,611.167 614.5,618.833 614.5,626.5C 615.5,626.5 616.5,626.5 617.5,626.5C 593.577,632.159 569.243,636.159 544.5,638.5C 543.908,629.566 544.575,620.899 546.5,612.5C 569.269,610.154 591.936,607.154 614.5,603.5 Z"/></g>
<g><path style="opacity:1" fill="#afb1b4" d="M 366.5,598.5 C 389.201,606.617 412.535,611.95 436.5,614.5C 436.5,624.167 436.5,633.833 436.5,643.5C 454.167,643.5 471.833,643.5 489.5,643.5C 448.609,646.483 407.943,644.15 367.5,636.5C 366.52,623.913 366.187,611.246 366.5,598.5 Z"/></g>
<g><path style="opacity:1" fill="#d9dadb" d="M 91.5,593.5 C 91.8417,592.662 92.5084,592.328 93.5,592.5C 93.5,629.833 93.5,667.167 93.5,704.5C 92.5084,704.672 91.8417,704.338 91.5,703.5C 92.8333,666.833 92.8333,630.167 91.5,593.5 Z"/></g>
<g><path style="opacity:1" fill="#b9bbbd" d="M 546.5,612.5 C 544.575,620.899 543.908,629.566 544.5,638.5C 526.403,641.153 508.07,642.819 489.5,643.5C 471.833,643.5 454.167,643.5 436.5,643.5C 436.5,633.833 436.5,624.167 436.5,614.5C 473.234,617.491 509.9,616.824 546.5,612.5 Z"/></g>
<g><path style="opacity:1" fill="#d5d6d7" d="M 881.5,572.5 C 881.183,576.702 881.517,580.702 882.5,584.5C 873.167,591.833 863.833,599.167 854.5,606.5C 832.327,620.753 809.994,634.753 787.5,648.5C 784.378,649.561 781.378,650.895 778.5,652.5C 778.5,648.167 778.5,643.833 778.5,639.5C 785.798,635.181 793.131,630.848 800.5,626.5C 818.368,616.29 835.701,605.29 852.5,593.5C 862.446,586.887 872.113,579.887 881.5,572.5 Z"/></g>
<g><path style="opacity:1" fill="#f6f6f7" d="M 66.5,615.5 C 67.4976,639.328 67.8309,663.328 67.5,687.5C 60.5644,683.065 54.3978,677.732 49,671.5C 46.0627,667.626 44.2294,663.293 43.5,658.5C 42.5364,646.097 46.3697,635.43 55,626.5C 58.7023,622.63 62.5357,618.963 66.5,615.5 Z"/></g>
<g><path style="opacity:1" fill="#6b6c6e" d="M 53.5,603.5 C 53.3893,604.117 53.056,604.617 52.5,605C 60.3443,605.171 68.011,605.671 75.5,606.5C 72.3063,609.272 69.3063,612.272 66.5,615.5C 62.5357,618.963 58.7023,622.63 55,626.5C 46.3697,635.43 42.5364,646.097 43.5,658.5C 42.5184,655.038 42.185,651.371 42.5,647.5C 29.8289,647.667 17.1623,647.5 4.5,647C 5.38053,646.292 6.0472,645.458 6.5,644.5C 21.2733,629.721 36.94,616.054 53.5,603.5 Z"/></g>
<g><path style="opacity:1" fill="#696a6c" d="M 112.5,624.5 C 182.5,624.5 252.5,624.5 322.5,624.5C 337.273,629.389 352.273,633.389 367.5,636.5C 407.943,644.15 448.609,646.483 489.5,643.5C 508.07,642.819 526.403,641.153 544.5,638.5C 569.243,636.159 593.577,632.159 617.5,626.5C 619.806,626.007 622.139,625.674 624.5,625.5C 683.336,625.168 742.002,625.501 800.5,626.5C 793.131,630.848 785.798,635.181 778.5,639.5C 771.86,642.82 765.193,646.153 758.5,649.5C 541,648.614 323.333,647.947 105.5,647.5C 106.461,639.317 108.794,631.65 112.5,624.5 Z"/></g>
<g><path style="opacity:1" fill="#6c6d6f" d="M 854.5,606.5 C 861.687,606.175 868.687,606.509 875.5,607.5C 855.593,623.062 834.593,637.062 812.5,649.5C 804.35,648.507 796.017,648.174 787.5,648.5C 809.994,634.753 832.327,620.753 854.5,606.5 Z"/></g>
<g><path style="opacity:1" fill="#666769" d="M 105.5,647.5 C 323.333,647.947 541,648.614 758.5,649.5C 745.338,656.219 732.005,662.553 718.5,668.5C 515.666,667.661 312.666,666.995 109.5,666.5C 106.399,660.668 105.066,654.335 105.5,647.5 Z"/></g>
<g><path style="opacity:1" fill="#666769" d="M 787.5,648.5 C 796.017,648.174 804.35,648.507 812.5,649.5C 796.605,660.027 779.938,669.361 762.5,677.5C 752.681,676.506 742.681,676.173 732.5,676.5C 748.148,669.01 763.482,661.01 778.5,652.5C 781.378,650.895 784.378,649.561 787.5,648.5 Z"/></g>
<g><path style="opacity:1" fill="#636466" d="M 109.5,666.5 C 312.666,666.995 515.666,667.661 718.5,668.5C 713.829,670.503 709.162,672.503 704.5,674.5C 702.046,675.227 699.713,676.227 697.5,677.5C 503.667,676.5 309.667,676.167 115.5,676.5C 112.498,673.839 110.498,670.505 109.5,666.5 Z"/></g>
<g><path style="opacity:1" fill="#636466" d="M 6.5,644.5 C 6.0472,645.458 5.38053,646.292 4.5,647C 17.1623,647.5 29.8289,647.667 42.5,647.5C 42.185,651.371 42.5184,655.038 43.5,658.5C 44.2294,663.293 46.0627,667.626 49,671.5C 54.3978,677.732 60.5644,683.065 67.5,687.5C 73.1466,692.323 79.1466,696.657 85.5,700.5C 75.5,700.5 65.5,700.5 55.5,700.5C 34.542,686.716 16.2087,669.883 0.5,650C 1.72811,647.27 3.72811,645.436 6.5,644.5 Z"/></g>
<g><path style="opacity:1" fill="#c8c9cb" d="M 778.5,639.5 C 778.5,643.833 778.5,648.167 778.5,652.5C 763.482,661.01 748.148,669.01 732.5,676.5C 722.917,680.794 713.251,684.794 703.5,688.5C 703.226,683.737 703.559,679.07 704.5,674.5C 709.162,672.503 713.829,670.503 718.5,668.5C 732.005,662.553 745.338,656.219 758.5,649.5C 765.193,646.153 771.86,642.82 778.5,639.5 Z"/></g>
<g><path style="opacity:1" fill="#606062" d="M 115.5,676.5 C 309.667,676.167 503.667,676.5 697.5,677.5C 679.619,684.471 661.619,691.138 643.5,697.5C 640.421,698.304 637.421,699.304 634.5,700.5C 470.167,699.167 305.833,699.167 141.5,700.5C 140.833,700.167 140.167,699.833 139.5,699.5C 131.602,693.943 124.269,687.61 117.5,680.5C 116.4,679.395 115.733,678.062 115.5,676.5 Z"/></g>
<g><path style="opacity:1" fill="#616264" d="M 732.5,676.5 C 742.681,676.173 752.681,676.506 762.5,677.5C 746.39,686.554 729.723,694.554 712.5,701.5C 712.611,700.883 712.944,700.383 713.5,700C 701.838,699.5 690.171,699.333 678.5,699.5C 686.916,696.028 695.25,692.361 703.5,688.5C 713.251,684.794 722.917,680.794 732.5,676.5 Z"/></g>
<g><path style="opacity:1" fill="#dadbdc" d="M 117.5,680.5 C 124.269,687.61 131.602,693.943 139.5,699.5C 139.827,708.682 139.493,717.682 138.5,726.5C 130.668,724.118 123.335,720.785 116.5,716.5C 117.495,704.678 117.828,692.678 117.5,680.5 Z"/></g>
<g><path style="opacity:1" fill="#bfc0c3" d="M 704.5,674.5 C 703.559,679.07 703.226,683.737 703.5,688.5C 695.25,692.361 686.916,696.028 678.5,699.5C 666.573,703.698 654.573,707.698 642.5,711.5C 642.226,706.737 642.559,702.07 643.5,697.5C 661.619,691.138 679.619,684.471 697.5,677.5C 699.713,676.227 702.046,675.227 704.5,674.5 Z"/></g>
<g><path style="opacity:1" fill="#5c5d5f" d="M 141.5,700.5 C 305.833,699.167 470.167,699.167 634.5,700.5C 623.484,703.839 612.484,707.172 601.5,710.5C 453.833,709.167 306.167,709.167 158.5,710.5C 152.833,707.167 147.167,703.833 141.5,700.5 Z"/></g>
<g><path style="opacity:0.999" fill="#5a5a5c" d="M 55.5,700.5 C 65.5,700.5 75.5,700.5 85.5,700.5C 87.5,701.5 89.5,702.5 91.5,703.5C 91.8417,704.338 92.5084,704.672 93.5,704.5C 100.686,709.261 108.353,713.261 116.5,716.5C 123.335,720.785 130.668,724.118 138.5,726.5C 138.5,726.833 138.5,727.167 138.5,727.5C 125.167,727.5 111.833,727.5 98.5,727.5C 82.9792,720.248 68.6458,711.248 55.5,700.5 Z"/></g>
<g><path style="opacity:1" fill="#59595b" d="M 158.5,710.5 C 306.167,709.167 453.833,709.167 601.5,710.5C 590.167,713.5 578.833,716.5 567.5,719.5C 552.257,723.215 536.924,726.549 521.5,729.5C 415.335,728.501 309.001,728.167 202.5,728.5C 201.167,728.5 199.833,728.5 198.5,728.5C 190.156,725.045 181.822,721.378 173.5,717.5C 168.38,715.44 163.38,713.107 158.5,710.5 Z"/></g>
<g><path style="opacity:1" fill="#5b5c5e" d="M 678.5,699.5 C 690.171,699.333 701.838,699.5 713.5,700C 712.944,700.383 712.611,700.883 712.5,701.5C 688.371,712.21 663.704,721.544 638.5,729.5C 622.675,728.504 606.675,728.17 590.5,728.5C 608.017,723.216 625.351,717.549 642.5,711.5C 654.573,707.698 666.573,703.698 678.5,699.5 Z"/></g>
<g><path style="opacity:1" fill="#d1d2d3" d="M 139.5,699.5 C 140.167,699.833 140.833,700.167 141.5,700.5C 147.167,703.833 152.833,707.167 158.5,710.5C 163.38,713.107 168.38,715.44 173.5,717.5C 173.5,724.833 173.5,732.167 173.5,739.5C 161.696,735.899 150.029,731.899 138.5,727.5C 138.5,727.167 138.5,726.833 138.5,726.5C 139.493,717.682 139.827,708.682 139.5,699.5 Z"/></g>
<g><path style="opacity:1" fill="#b5b6b9" d="M 643.5,697.5 C 642.559,702.07 642.226,706.737 642.5,711.5C 625.351,717.549 608.017,723.216 590.5,728.5C 582.726,729.694 575.059,731.36 567.5,733.5C 567.5,728.833 567.5,724.167 567.5,719.5C 578.833,716.5 590.167,713.5 601.5,710.5C 612.484,707.172 623.484,703.839 634.5,700.5C 637.421,699.304 640.421,698.304 643.5,697.5 Z"/></g>
<g><path style="opacity:1" fill="#c7c8ca" d="M 173.5,717.5 C 181.822,721.378 190.156,725.045 198.5,728.5C 198.5,734.5 198.5,740.5 198.5,746.5C 189.889,744.735 181.556,742.402 173.5,739.5C 173.5,732.167 173.5,724.833 173.5,717.5 Z"/></g>
<g><path style="opacity:1" fill="#acaeb1" d="M 567.5,719.5 C 567.5,724.167 567.5,728.833 567.5,733.5C 548.818,738.504 529.818,742.504 510.5,745.5C 509.167,745.5 507.833,745.5 506.5,745.5C 506.5,741.167 506.5,736.833 506.5,732.5C 507.791,732.737 508.791,732.404 509.5,731.5C 513.462,730.624 517.462,729.958 521.5,729.5C 536.924,726.549 552.257,723.215 567.5,719.5 Z"/></g>
<g><path style="opacity:1" fill="#b6b8ba" d="M 198.5,728.5 C 199.833,728.5 201.167,728.5 202.5,728.5C 207.452,731.325 212.786,733.491 218.5,735C 234.795,739.691 251.128,744.191 267.5,748.5C 267.5,751.5 267.5,754.5 267.5,757.5C 264.833,757.5 262.167,757.5 259.5,757.5C 238.717,755.649 218.383,751.982 198.5,746.5C 198.5,740.5 198.5,734.5 198.5,728.5 Z"/></g>
<g><path style="opacity:1" fill="#545557" d="M 202.5,728.5 C 309.001,728.167 415.335,728.501 521.5,729.5C 517.462,729.958 513.462,730.624 509.5,731.5C 482.257,735.916 454.924,739.582 427.5,742.5C 393.577,745.484 359.577,746.984 325.5,747C 331.337,748.974 337.337,750.307 343.5,751C 373.88,755.26 404.213,756.427 434.5,754.5C 460.178,753.398 485.511,750.398 510.5,745.5C 529.818,742.504 548.818,738.504 567.5,733.5C 575.059,731.36 582.726,729.694 590.5,728.5C 606.675,728.17 622.675,728.504 638.5,729.5C 604.312,741.465 569.312,750.799 533.5,757.5C 460.833,756.167 388.167,756.167 315.5,757.5C 299.52,754.517 283.52,751.517 267.5,748.5C 251.128,744.191 234.795,739.691 218.5,735C 212.786,733.491 207.452,731.325 202.5,728.5 Z"/></g>
<g><path style="opacity:1" fill="#a3a5a8" d="M 509.5,731.5 C 508.791,732.404 507.791,732.737 506.5,732.5C 506.5,736.833 506.5,741.167 506.5,745.5C 507.833,745.5 509.167,745.5 510.5,745.5C 485.511,750.398 460.178,753.398 434.5,754.5C 430.5,754.5 426.5,754.5 422.5,754.5C 422.5,750.833 422.5,747.167 422.5,743.5C 424.415,743.784 426.081,743.451 427.5,742.5C 454.924,739.582 482.257,735.916 509.5,731.5 Z"/></g>
<g><path style="opacity:1" fill="#97989b" d="M 427.5,742.5 C 426.081,743.451 424.415,743.784 422.5,743.5C 422.5,747.167 422.5,750.833 422.5,754.5C 426.5,754.5 430.5,754.5 434.5,754.5C 404.213,756.427 373.88,755.26 343.5,751C 337.337,750.307 331.337,748.974 325.5,747C 359.577,746.984 393.577,745.484 427.5,742.5 Z"/></g>
<g><path style="opacity:1" fill="#a1a3a6" d="M 267.5,748.5 C 283.52,751.517 299.52,754.517 315.5,757.5C 322.444,758.651 329.444,759.318 336.5,759.5C 324.011,760.495 311.344,760.829 298.5,760.5C 285.274,760.536 272.274,759.536 259.5,757.5C 262.167,757.5 264.833,757.5 267.5,757.5C 267.5,754.5 267.5,751.5 267.5,748.5 Z"/></g>
<g><path style="opacity:1" fill="#4f5052" d="M 98.5,727.5 C 111.833,727.5 125.167,727.5 138.5,727.5C 150.029,731.899 161.696,735.899 173.5,739.5C 181.556,742.402 189.889,744.735 198.5,746.5C 218.383,751.982 238.717,755.649 259.5,757.5C 272.274,759.536 285.274,760.536 298.5,760.5C 314.995,761.662 331.662,761.828 348.5,761C 344.56,759.985 340.56,759.485 336.5,759.5C 329.444,759.318 322.444,758.651 315.5,757.5C 388.167,756.167 460.833,756.167 533.5,757.5C 448.835,775.333 363.169,781.833 276.5,777C 213.631,772.62 154.298,756.12 98.5,727.5 Z"/></g>
<g><path style="opacity:1" fill="#757679" d="M 336.5,759.5 C 340.56,759.485 344.56,759.985 348.5,761C 331.662,761.828 314.995,761.662 298.5,760.5C 311.344,760.829 324.011,760.495 336.5,759.5 Z"/></g>
</svg>
