<?xml version="1.0" encoding="UTF-8"?>
<!DOCTYPE svg PUBLIC "-//W3C//DTD SVG 1.1//EN" "http://www.w3.org/Graphics/SVG/1.1/DTD/svg11.dtd">
<svg xmlns="http://www.w3.org/2000/svg" version="1.1" width="2080px" height="1152px" style="shape-rendering:geometricPrecision; text-rendering:geometricPrecision; image-rendering:optimizeQuality; fill-rule:evenodd; clip-rule:evenodd" xmlns:xlink="http://www.w3.org/1999/xlink">
<g><path style="opacity:1" fill="#515153" d="M 695.5,215.5 C 609.833,216.833 524.167,216.833 438.5,215.5C 460.857,212.58 483.19,209.747 505.5,207C 474.538,207.857 443.871,210.69 413.5,215.5C 399.197,216.773 385.197,219.106 371.5,222.5C 359.438,224.516 347.438,226.849 335.5,229.5C 332.615,229.806 329.948,229.473 327.5,228.5C 418.887,206.233 511.554,198.4 605.5,205C 635.741,206.86 665.741,210.36 695.5,215.5 Z"/></g>
<g><path style="opacity:1" fill="#adafb2" d="M 438.5,215.5 C 431.551,216.937 424.551,218.27 417.5,219.5C 416.766,218.292 416.433,216.959 416.5,215.5C 415.5,215.5 414.5,215.5 413.5,215.5C 443.871,210.69 474.538,207.857 505.5,207C 483.19,209.747 460.857,212.58 438.5,215.5 Z"/></g>
<g><path style="opacity:1" fill="#c2c3c5" d="M 413.5,215.5 C 414.5,215.5 415.5,215.5 416.5,215.5C 416.433,216.959 416.766,218.292 417.5,219.5C 402.876,222.075 388.543,225.408 374.5,229.5C 373.833,229.5 373.167,229.5 372.5,229.5C 371.631,227.283 371.298,224.95 371.5,222.5C 385.197,219.106 399.197,216.773 413.5,215.5 Z"/></g>
<g><path style="opacity:1" fill="#545557" d="M 438.5,215.5 C 524.167,216.833 609.833,216.833 695.5,215.5C 717.21,218.575 738.543,222.908 759.5,228.5C 713.336,229.499 667.003,229.832 620.5,229.5C 610.488,229.447 600.488,229.113 590.5,228.5C 568.833,227.167 547.167,227.167 525.5,228.5C 514.491,228.6 503.491,228.934 492.5,229.5C 453.167,229.5 413.833,229.5 374.5,229.5C 388.543,225.408 402.876,222.075 417.5,219.5C 424.551,218.27 431.551,216.937 438.5,215.5 Z"/></g>
<g><path style="opacity:1" fill="#86888b" d="M 525.5,228.5 C 547.167,227.167 568.833,227.167 590.5,228.5C 578.167,228.5 565.833,228.5 553.5,228.5C 553.5,231.167 553.5,233.833 553.5,236.5C 563.015,236.173 572.348,236.506 581.5,237.5C 569.833,237.5 558.167,237.5 546.5,237.5C 548.265,236.539 550.265,236.205 552.5,236.5C 552.5,233.833 552.5,231.167 552.5,228.5C 543.5,228.5 534.5,228.5 525.5,228.5 Z"/></g>
<g><path style="opacity:1" fill="#5a5b5d" d="M 372.5,229.5 C 373.167,229.5 373.833,229.5 374.5,229.5C 413.833,229.5 453.167,229.5 492.5,229.5C 492.158,230.338 491.492,230.672 490.5,230.5C 475.725,231.29 461.059,232.956 446.5,235.5C 430.372,237.993 414.372,240.993 398.5,244.5C 373.833,244.5 349.167,244.5 324.5,244.5C 340.028,238.326 356.028,233.326 372.5,229.5 Z"/></g>
<g><path style="opacity:1" fill="#989a9d" d="M 525.5,228.5 C 534.5,228.5 543.5,228.5 552.5,228.5C 552.5,231.167 552.5,233.833 552.5,236.5C 550.265,236.205 548.265,236.539 546.5,237.5C 528.477,238.092 510.477,239.092 492.5,240.5C 490.598,237.663 489.931,234.329 490.5,230.5C 491.492,230.672 492.158,230.338 492.5,229.5C 503.491,228.934 514.491,228.6 525.5,228.5 Z"/></g>
<g><path style="opacity:1" fill="#a7a9ac" d="M 590.5,228.5 C 600.488,229.113 610.488,229.447 620.5,229.5C 623.5,230.167 626.5,230.833 629.5,231.5C 629.5,234.167 629.5,236.833 629.5,239.5C 613.545,237.938 597.545,237.272 581.5,237.5C 572.348,236.506 563.015,236.173 553.5,236.5C 553.5,233.833 553.5,231.167 553.5,228.5C 565.833,228.5 578.167,228.5 590.5,228.5 Z"/></g>
<g><path style="opacity:1" fill="#8e9093" d="M 490.5,230.5 C 489.931,234.329 490.598,237.663 492.5,240.5C 477.953,242.387 463.287,244.387 448.5,246.5C 446.586,243.316 445.92,239.649 446.5,235.5C 461.059,232.956 475.725,231.29 490.5,230.5 Z"/></g>
<g><path style="opacity:1" fill="#d9dadc" d="M 371.5,222.5 C 371.298,224.95 371.631,227.283 372.5,229.5C 356.028,233.326 340.028,238.326 324.5,244.5C 321.5,245.167 318.5,245.833 315.5,246.5C 316.069,242.671 315.402,239.337 313.5,236.5C 320.838,234.165 328.171,231.832 335.5,229.5C 347.438,226.849 359.438,224.516 371.5,222.5 Z"/></g>
<g><path style="opacity:1" fill="#b5b7ba" d="M 629.5,231.5 C 658.401,233.154 686.734,237.487 714.5,244.5C 714.5,246.833 714.5,249.167 714.5,251.5C 686.433,245.687 658.099,241.687 629.5,239.5C 629.5,236.833 629.5,234.167 629.5,231.5 Z"/></g>
<g><path style="opacity:1" fill="#5f6062" d="M 546.5,237.5 C 558.167,237.5 569.833,237.5 581.5,237.5C 597.545,237.272 613.545,237.938 629.5,239.5C 658.099,241.687 686.433,245.687 714.5,251.5C 720.467,252.96 726.467,254.293 732.5,255.5C 726.69,256.49 720.69,256.823 714.5,256.5C 618.158,237.844 521.824,237.844 425.5,256.5C 419.642,256.822 413.975,256.489 408.5,255.5C 421.939,252.453 435.272,249.453 448.5,246.5C 463.287,244.387 477.953,242.387 492.5,240.5C 510.477,239.092 528.477,238.092 546.5,237.5 Z"/></g>
<g><path style="opacity:1" fill="#5d5e60" d="M 759.5,228.5 C 788.783,235.039 817.116,244.372 844.5,256.5C 844.611,257.117 844.944,257.617 845.5,258C 819.835,258.5 794.169,258.667 768.5,258.5C 750.774,252.814 732.774,248.148 714.5,244.5C 686.734,237.487 658.401,233.154 629.5,231.5C 626.5,230.833 623.5,230.167 620.5,229.5C 667.003,229.832 713.336,229.499 759.5,228.5 Z"/></g>
<g><path style="opacity:0.925" fill="#606163" d="M 327.5,228.5 C 329.948,229.473 332.615,229.806 335.5,229.5C 328.171,231.832 320.838,234.165 313.5,236.5C 291.154,242.838 269.154,250.171 247.5,258.5C 244.167,258.5 240.833,258.5 237.5,258.5C 266.533,245.933 296.533,235.933 327.5,228.5 Z"/></g>
<g><path style="opacity:1" fill="#606163" d="M 324.5,244.5 C 349.167,244.5 373.833,244.5 398.5,244.5C 387.45,247.35 376.45,250.684 365.5,254.5C 363.254,255.455 360.921,256.122 358.5,256.5C 336.327,256.831 314.327,256.497 292.5,255.5C 300.346,252.736 308.012,249.736 315.5,246.5C 318.5,245.833 321.5,245.167 324.5,244.5 Z"/></g>
<g><path style="opacity:1" fill="#f0f0f1" d="M 313.5,236.5 C 315.402,239.337 316.069,242.671 315.5,246.5C 308.012,249.736 300.346,252.736 292.5,255.5C 274.883,262.926 257.55,270.926 240.5,279.5C 239.511,274.025 239.178,268.358 239.5,262.5C 242.328,261.345 244.995,260.011 247.5,258.5C 269.154,250.171 291.154,242.838 313.5,236.5 Z"/></g>
<g><path style="opacity:1" fill="#828487" d="M 446.5,235.5 C 445.92,239.649 446.586,243.316 448.5,246.5C 435.272,249.453 421.939,252.453 408.5,255.5C 394.161,259.584 380.161,264.584 366.5,270.5C 365.512,265.36 365.179,260.026 365.5,254.5C 376.45,250.684 387.45,247.35 398.5,244.5C 414.372,240.993 430.372,237.993 446.5,235.5 Z"/></g>
<g><path style="opacity:0.947" fill="#67686a" d="M 408.5,255.5 C 413.975,256.489 419.642,256.822 425.5,256.5C 411.813,260.178 398.146,264.345 384.5,269C 374.007,273.412 364.007,278.578 354.5,284.5C 352.631,283.835 350.631,283.169 348.5,282.5C 354.218,277.982 360.218,273.982 366.5,270.5C 380.161,264.584 394.161,259.584 408.5,255.5 Z"/></g>
<g><path style="opacity:1" fill="#696a6c" d="M 732.5,255.5 C 755.601,261.422 778.268,268.756 800.5,277.5C 803.618,278.559 806.618,279.892 809.5,281.5C 806.038,282.482 802.371,282.815 798.5,282.5C 771.095,271.585 743.095,262.918 714.5,256.5C 720.69,256.823 726.69,256.49 732.5,255.5 Z"/></g>
<g><path style="opacity:1" fill="#c6c7c9" d="M 714.5,244.5 C 732.774,248.148 750.774,252.814 768.5,258.5C 779.668,262.377 790.668,266.71 801.5,271.5C 799.155,272.988 798.821,274.988 800.5,277.5C 778.268,268.756 755.601,261.422 732.5,255.5C 726.467,254.293 720.467,252.96 714.5,251.5C 714.5,249.167 714.5,246.833 714.5,244.5 Z"/></g>
<g><path style="opacity:1" fill="#797a7d" d="M 365.5,254.5 C 365.179,260.026 365.512,265.36 366.5,270.5C 360.218,273.982 354.218,277.982 348.5,282.5C 350.631,283.169 352.631,283.835 354.5,284.5C 350.392,288.114 347.225,292.447 345,297.5C 342.724,305.683 344.39,313.017 350,319.5C 355.429,325.768 361.596,331.101 368.5,335.5C 335.502,335.604 302.502,336.604 269.5,338.5C 257.345,337.505 245.011,337.171 232.5,337.5C 258.583,334.005 284.916,331.671 311.5,330.5C 311.403,314.602 311.737,298.935 312.5,283.5C 326.289,271.936 341.622,262.936 358.5,256.5C 360.921,256.122 363.254,255.455 365.5,254.5 Z"/></g>
<g><path style="opacity:1" fill="#dedfe0" d="M 239.5,262.5 C 239.178,268.358 239.511,274.025 240.5,279.5C 239.205,280.488 237.872,281.488 236.5,282.5C 233.661,284.42 230.661,286.087 227.5,287.5C 227.5,280.833 227.5,274.167 227.5,267.5C 231.495,265.835 235.495,264.168 239.5,262.5 Z"/></g>
<g><path style="opacity:1" fill="#6a6b6e" d="M 844.5,256.5 C 863.59,264.544 881.923,273.878 899.5,284.5C 878.006,285.497 856.34,285.831 834.5,285.5C 823.585,280.54 812.585,275.873 801.5,271.5C 790.668,266.71 779.668,262.377 768.5,258.5C 794.169,258.667 819.835,258.5 845.5,258C 844.944,257.617 844.611,257.117 844.5,256.5 Z"/></g>
<g><path style="opacity:1" fill="#c9cacc" d="M 227.5,267.5 C 227.5,274.167 227.5,280.833 227.5,287.5C 220.041,292.735 212.374,297.735 204.5,302.5C 203.508,295.018 203.175,287.352 203.5,279.5C 211.221,274.973 219.221,270.973 227.5,267.5 Z"/></g>
<g><path style="opacity:0.999" fill="#696a6c" d="M 292.5,255.5 C 314.327,256.497 336.327,256.831 358.5,256.5C 341.622,262.936 326.289,271.936 312.5,283.5C 286.995,283.831 261.661,283.498 236.5,282.5C 237.872,281.488 239.205,280.488 240.5,279.5C 257.55,270.926 274.883,262.926 292.5,255.5 Z"/></g>
<g><path style="opacity:1" fill="#babbbe" d="M 203.5,279.5 C 203.175,287.352 203.508,295.018 204.5,302.5C 201.681,305.075 198.681,307.408 195.5,309.5C 194.833,309.833 194.167,310.167 193.5,310.5C 192.507,302.35 192.174,294.017 192.5,285.5C 196.007,283.246 199.673,281.246 203.5,279.5 Z"/></g>
<g><path style="opacity:1" fill="#717275" d="M 236.5,282.5 C 261.661,283.498 286.995,283.831 312.5,283.5C 311.737,298.935 311.403,314.602 311.5,330.5C 284.916,331.671 258.583,334.005 232.5,337.5C 231.167,337.5 229.833,337.5 228.5,337.5C 225.903,337.279 225.903,336.779 228.5,336C 250.192,329.807 270.859,321.474 290.5,311C 258.664,310.832 226.997,310.332 195.5,309.5C 198.681,307.408 201.681,305.075 204.5,302.5C 212.374,297.735 220.041,292.735 227.5,287.5C 230.661,286.087 233.661,284.42 236.5,282.5 Z"/></g>
<g><path style="opacity:0.999" fill="#6d6e71" d="M 237.5,258.5 C 240.833,258.5 244.167,258.5 247.5,258.5C 244.995,260.011 242.328,261.345 239.5,262.5C 235.495,264.168 231.495,265.835 227.5,267.5C 219.221,270.973 211.221,274.973 203.5,279.5C 199.673,281.246 196.007,283.246 192.5,285.5C 188.5,287.833 184.5,290.167 180.5,292.5C 172.783,297.018 165.449,302.018 158.5,307.5C 153.91,309.762 149.91,312.762 146.5,316.5C 144.804,316.685 143.471,317.519 142.5,319C 138.118,319.292 133.785,319.792 129.5,320.5C 162.01,294.23 198.01,273.563 237.5,258.5 Z"/></g>
<g><path style="opacity:1" fill="#abadb0" d="M 192.5,285.5 C 192.174,294.017 192.507,302.35 193.5,310.5C 189.386,314.064 185.052,317.397 180.5,320.5C 180.5,311.167 180.5,301.833 180.5,292.5C 184.5,290.167 188.5,287.833 192.5,285.5 Z"/></g>
<g><path style="opacity:1" fill="#d9dadb" d="M 801.5,271.5 C 812.585,275.873 823.585,280.54 834.5,285.5C 852.003,294.116 869.336,303.116 886.5,312.5C 895.477,318.467 904.477,324.467 913.5,330.5C 914.694,331.272 915.694,332.272 916.5,333.5C 915.539,335.265 915.205,337.265 915.5,339.5C 913.772,337.774 911.772,336.441 909.5,335.5C 878.02,314.421 844.687,296.421 809.5,281.5C 806.618,279.892 803.618,278.559 800.5,277.5C 798.821,274.988 799.155,272.988 801.5,271.5 Z"/></g>
<g><path style="opacity:1" fill="#747578" d="M 899.5,284.5 C 913.984,292.329 927.651,301.329 940.5,311.5C 922.674,312.497 904.674,312.83 886.5,312.5C 869.336,303.116 852.003,294.116 834.5,285.5C 856.34,285.831 878.006,285.497 899.5,284.5 Z"/></g>
<g><path style="opacity:1" fill="#989a9d" d="M 180.5,292.5 C 180.5,301.833 180.5,311.167 180.5,320.5C 173.869,325.796 167.535,331.463 161.5,337.5C 160.833,337.833 160.167,338.167 159.5,338.5C 159.797,328.295 159.464,317.961 158.5,307.5C 165.449,302.018 172.783,297.018 180.5,292.5 Z"/></g>
<g><path style="opacity:1" fill="#8b8d90" d="M 158.5,307.5 C 159.464,317.961 159.797,328.295 159.5,338.5C 157.063,340.433 154.729,342.6 152.5,345C 150.553,345.991 148.553,346.325 146.5,346C 147.829,336.069 147.829,326.235 146.5,316.5C 149.91,312.762 153.91,309.762 158.5,307.5 Z"/></g>
<g><path style="opacity:1" fill="#7b7c7f" d="M 940.5,311.5 C 948.24,317.032 955.574,323.032 962.5,329.5C 946.342,330.496 930.009,330.83 913.5,330.5C 904.477,324.467 895.477,318.467 886.5,312.5C 904.674,312.83 922.674,312.497 940.5,311.5 Z"/></g>
<g><path style="opacity:0.998" fill="#7b7c7f" d="M 809.5,281.5 C 844.687,296.421 878.02,314.421 909.5,335.5C 907.052,336.473 904.385,336.806 901.5,336.5C 868.768,315.632 834.435,297.632 798.5,282.5C 802.371,282.815 806.038,282.482 809.5,281.5 Z"/></g>
<g><path style="opacity:1" fill="#797a7d" d="M 129.5,320.5 C 132.305,321.319 135.305,321.819 138.5,322C 137.167,323 135.833,324 134.5,325C 135.647,332.754 135.814,340.587 135,348.5C 132.929,349.525 130.762,350.358 128.5,351C 143.83,351.5 159.163,351.667 174.5,351.5C 171.727,352.657 168.727,353.324 165.5,353.5C 152.474,352.807 139.307,352.141 126,351.5C 121.804,352.757 117.637,354.09 113.5,355.5C 112.205,351.62 112.205,347.786 113.5,344C 110.183,343.502 106.85,343.335 103.5,343.5C 111.374,334.903 120.041,327.236 129.5,320.5 Z"/></g>
<g><path style="opacity:1" fill="#7a7b7e" d="M 195.5,309.5 C 226.997,310.332 258.664,310.832 290.5,311C 270.859,321.474 250.192,329.807 228.5,336C 225.903,336.779 225.903,337.279 228.5,337.5C 206.367,337.56 184.034,337.56 161.5,337.5C 167.535,331.463 173.869,325.796 180.5,320.5C 185.052,317.397 189.386,314.064 193.5,310.5C 194.167,310.167 194.833,309.833 195.5,309.5 Z"/></g>
<g><path style="opacity:1" fill="#808285" d="M 146.5,316.5 C 147.829,326.235 147.829,336.069 146.5,346C 148.553,346.325 150.553,345.991 152.5,345C 154.729,342.6 157.063,340.433 159.5,338.5C 160.167,338.167 160.833,337.833 161.5,337.5C 184.034,337.56 206.367,337.56 228.5,337.5C 229.833,337.5 231.167,337.5 232.5,337.5C 245.011,337.171 257.345,337.505 269.5,338.5C 237.645,341.44 205.978,345.774 174.5,351.5C 159.163,351.667 143.83,351.5 128.5,351C 130.762,350.358 132.929,349.525 135,348.5C 135.814,340.587 135.647,332.754 134.5,325C 135.833,324 137.167,323 138.5,322C 135.305,321.819 132.305,321.319 129.5,320.5C 133.785,319.792 138.118,319.292 142.5,319C 143.471,317.519 144.804,316.685 146.5,316.5 Z"/></g>
<g><path style="opacity:0.999" fill="#838487" d="M 962.5,329.5 C 970.466,335.798 977.799,342.798 984.5,350.5C 969.676,351.496 954.676,351.829 939.5,351.5C 932.377,344.776 924.711,338.776 916.5,333.5C 915.694,332.272 914.694,331.272 913.5,330.5C 930.009,330.83 946.342,330.496 962.5,329.5 Z"/></g>
<g><path style="opacity:1" fill="#848588" d="M 103.5,343.5 C 106.85,343.335 110.183,343.502 113.5,344C 112.205,347.786 112.205,351.62 113.5,355.5C 117.637,354.09 121.804,352.757 126,351.5C 139.307,352.141 152.474,352.807 165.5,353.5C 133.397,360.201 102.063,369.534 71.5,381.5C 70.479,380.998 70.3123,380.332 71,379.5C 80.6805,366.483 91.5139,354.483 103.5,343.5 Z"/></g>
<g><path style="opacity:1" fill="#636466" d="M 110.5,346.5 C 111.479,349.625 111.813,352.958 111.5,356.5C 108.801,356.466 106.301,357.133 104,358.5C 103.313,356.432 103.48,354.432 104.5,352.5C 106.854,350.812 108.854,348.812 110.5,346.5 Z"/></g>
<g><path style="opacity:1" fill="#3aaee3" d="M 293.5,361.5 C 301.984,360.507 310.651,360.174 319.5,360.5C 322.833,360.5 326.167,360.5 329.5,360.5C 329.567,361.959 329.234,363.292 328.5,364.5C 320.771,364.688 313.104,365.354 305.5,366.5C 305.5,364.833 305.5,363.167 305.5,361.5C 301.5,361.5 297.5,361.5 293.5,361.5 Z"/></g>
<g><path style="opacity:1" fill="#03a0de" d="M 319.5,360.5 C 336.678,359.263 354.011,359.263 371.5,360.5C 368.572,361.82 365.239,362.486 361.5,362.5C 350.475,362.957 339.475,363.624 328.5,364.5C 329.234,363.292 329.567,361.959 329.5,360.5C 326.167,360.5 322.833,360.5 319.5,360.5 Z"/></g>
<g><path style="opacity:0.94" fill="#0b96da" d="M 293.5,361.5 C 290.5,362.167 287.5,362.833 284.5,363.5C 270.594,364.765 256.927,366.765 243.5,369.5C 236.289,370.343 229.289,371.677 222.5,373.5C 215.803,374.184 209.469,375.85 203.5,378.5C 195.906,379.804 188.906,382.471 182.5,386.5C 179.911,387.419 177.911,389.086 176.5,391.5C 167.218,393.086 157.885,393.586 148.5,393C 145.085,391.857 144.751,390.19 147.5,388C 152.243,384.962 157.243,382.462 162.5,380.5C 164.565,380.047 166.232,379.047 167.5,377.5C 209.034,368.558 251.034,363.225 293.5,361.5 Z"/></g>
<g><path style="opacity:0.988" fill="#0395da" d="M 371.5,360.5 C 426.539,361.948 480.873,368.281 534.5,379.5C 477.17,380.187 419.837,380.687 362.5,381C 346.618,381.324 330.952,382.491 315.5,384.5C 309.291,385.021 303.291,386.021 297.5,387.5C 292.588,387.898 287.921,388.898 283.5,390.5C 280.557,390.98 277.89,391.98 275.5,393.5C 272.081,395.087 268.415,395.753 264.5,395.5C 245.517,394.24 226.517,393.24 207.5,392.5C 213.151,389.008 219.151,386.008 225.5,383.5C 232.327,380.708 239.327,378.375 246.5,376.5C 259.058,373.189 271.725,370.522 284.5,368.5C 291.492,367.751 298.492,367.084 305.5,366.5C 313.104,365.354 320.771,364.688 328.5,364.5C 339.475,363.624 350.475,362.957 361.5,362.5C 365.239,362.486 368.572,361.82 371.5,360.5 Z"/></g>
<g><path style="opacity:1" fill="#61b8e7" d="M 293.5,361.5 C 297.5,361.5 301.5,361.5 305.5,361.5C 305.5,363.167 305.5,364.833 305.5,366.5C 298.492,367.084 291.492,367.751 284.5,368.5C 284.5,366.833 284.5,365.167 284.5,363.5C 287.5,362.833 290.5,362.167 293.5,361.5 Z"/></g>
<g><path style="opacity:0.992" fill="#8a8c8f" d="M 984.5,350.5 C 989.801,355.971 994.967,361.638 1000,367.5C 1002.44,370.72 1004.6,374.053 1006.5,377.5C 993.01,378.496 979.344,378.829 965.5,378.5C 957.506,368.84 948.839,359.84 939.5,351.5C 954.676,351.829 969.676,351.496 984.5,350.5 Z"/></g>
<g><path style="opacity:1" fill="#94cbee" d="M 284.5,363.5 C 284.5,365.167 284.5,366.833 284.5,368.5C 271.725,370.522 259.058,373.189 246.5,376.5C 246.5,374.167 246.5,371.833 246.5,369.5C 245.5,369.5 244.5,369.5 243.5,369.5C 256.927,366.765 270.594,364.765 284.5,363.5 Z"/></g>
<g><path style="opacity:1" fill="#b3d8f3" d="M 243.5,369.5 C 244.5,369.5 245.5,369.5 246.5,369.5C 246.5,371.833 246.5,374.167 246.5,376.5C 239.327,378.375 232.327,380.708 225.5,383.5C 225.5,380.167 225.5,376.833 225.5,373.5C 224.5,373.5 223.5,373.5 222.5,373.5C 229.289,371.677 236.289,370.343 243.5,369.5 Z"/></g>
<g><path style="opacity:1" fill="#c7e1f6" d="M 222.5,373.5 C 223.5,373.5 224.5,373.5 225.5,373.5C 225.5,376.833 225.5,380.167 225.5,383.5C 219.151,386.008 213.151,389.008 207.5,392.5C 206.5,392.5 205.5,392.5 204.5,392.5C 204.819,387.637 204.486,382.97 203.5,378.5C 209.469,375.85 215.803,374.184 222.5,373.5 Z"/></g>
<g><path style="opacity:0.922" fill="#9ccdef" d="M 167.5,377.5 C 166.232,379.047 164.565,380.047 162.5,380.5C 162.158,379.662 161.492,379.328 160.5,379.5C 162.657,378.593 164.99,377.927 167.5,377.5 Z"/></g>
<g><path style="opacity:1" fill="#009adb" d="M 534.5,379.5 C 534.833,379.5 535.167,379.5 535.5,379.5C 536.635,381.213 538.302,381.88 540.5,381.5C 541.514,382.674 542.847,383.34 544.5,383.5C 468.335,384.499 392.002,384.833 315.5,384.5C 330.952,382.491 346.618,381.324 362.5,381C 419.837,380.687 477.17,380.187 534.5,379.5 Z"/></g>
<g><path style="opacity:1" fill="#f7f9fd" d="M 160.5,379.5 C 161.492,379.328 162.158,379.662 162.5,380.5C 157.243,382.462 152.243,384.962 147.5,388C 144.751,390.19 145.085,391.857 148.5,393C 157.885,393.586 167.218,393.086 176.5,391.5C 177.911,389.086 179.911,387.419 182.5,386.5C 183.461,388.265 183.795,390.265 183.5,392.5C 190.5,392.5 197.5,392.5 204.5,392.5C 205.5,392.5 206.5,392.5 207.5,392.5C 226.517,393.24 245.517,394.24 264.5,395.5C 266.607,396.468 268.941,396.802 271.5,396.5C 279.634,397.998 287.968,398.998 296.5,399.5C 303.301,400.948 310.301,401.948 317.5,402.5C 324.951,404.354 332.618,405.687 340.5,406.5C 344.942,407.99 349.609,408.99 354.5,409.5C 362.928,411.734 371.428,414.068 380,416.5C 385.082,415.363 390.249,415.196 395.5,416C 396.264,418.069 396.764,420.236 397,422.5C 398.223,413.478 399.223,413.811 400,423.5C 401.181,411.821 402.181,412.154 403,424.5C 403.175,420.789 403.675,417.122 404.5,413.5C 405.382,418.066 405.715,422.4 405.5,426.5C 406.167,421.833 406.833,417.167 407.5,412.5C 408.167,418.654 408.833,424.654 409.5,430.5C 409.919,433.325 408.919,435.491 406.5,437C 403.673,438.664 400.673,439.83 397.5,440.5C 398.511,438.598 398.678,436.598 398,434.5C 393.046,429.603 387.213,426.103 380.5,424C 358.354,416.463 335.687,411.13 312.5,408C 256.116,398.79 199.449,396.29 142.5,400.5C 140.833,400.5 139.167,400.5 137.5,400.5C 137.218,395.073 137.551,389.74 138.5,384.5C 145.759,382.519 153.093,380.852 160.5,379.5 Z"/></g>
<g><path style="opacity:1" fill="#d5e9f8" d="M 203.5,378.5 C 204.486,382.97 204.819,387.637 204.5,392.5C 197.5,392.5 190.5,392.5 183.5,392.5C 183.795,390.265 183.461,388.265 182.5,386.5C 188.906,382.471 195.906,379.804 203.5,378.5 Z"/></g>
<g><path style="opacity:0.686" fill="#a1cfef" d="M 535.5,379.5 C 538.428,379.565 541.095,380.232 543.5,381.5C 542.5,381.5 541.5,381.5 540.5,381.5C 538.302,381.88 536.635,381.213 535.5,379.5 Z"/></g>
<g><path style="opacity:1" fill="#f9fbfd" d="M 540.5,381.5 C 541.5,381.5 542.5,381.5 543.5,381.5C 576.708,387.793 609.375,396.127 641.5,406.5C 641.5,422.167 641.5,437.833 641.5,453.5C 635.016,454.117 628.683,455.117 622.5,456.5C 614.89,456.989 607.556,458.322 600.5,460.5C 593.238,461.087 586.238,462.42 579.5,464.5C 570.216,465.754 561.216,467.754 552.5,470.5C 545.573,471.565 538.906,473.232 532.5,475.5C 520.142,477.92 508.142,481.253 496.5,485.5C 489.557,486.898 482.891,488.898 476.5,491.5C 452.496,498.277 429.163,506.61 406.5,516.5C 391.25,522.25 376.25,528.583 361.5,535.5C 351.187,539.99 341.187,544.99 331.5,550.5C 315.212,558.31 299.212,566.644 283.5,575.5C 280.46,576.68 277.794,578.347 275.5,580.5C 269.995,582.749 264.995,585.749 260.5,589.5C 212.935,617.736 167.269,648.736 123.5,682.5C 105.326,682.83 87.3256,682.497 69.5,681.5C 78.3996,668.599 88.3996,656.599 99.5,645.5C 100.493,653.984 100.826,662.651 100.5,671.5C 103.881,671.54 107.214,671.207 110.5,670.5C 117.282,669.131 123.615,666.798 129.5,663.5C 132.485,662.674 135.151,661.341 137.5,659.5C 142.709,657.281 147.376,654.281 151.5,650.5C 154.81,648.518 157.81,646.185 160.5,643.5C 166.538,639.155 172.538,634.821 178.5,630.5C 181.709,628.735 184.709,626.735 187.5,624.5C 190.473,622.853 193.14,620.853 195.5,618.5C 201.104,615.555 206.438,612.221 211.5,608.5C 216.709,605.402 221.709,602.068 226.5,598.5C 231.767,595.89 236.767,592.89 241.5,589.5C 251.646,583.592 261.979,577.925 272.5,572.5C 274.001,571.248 275.668,570.248 277.5,569.5C 281.864,567.656 285.864,565.323 289.5,562.5C 292.622,561.439 295.622,560.105 298.5,558.5C 303.14,556.18 307.807,553.847 312.5,551.5C 313.48,548.914 313.813,546.247 313.5,543.5C 316.462,544.061 319.295,545.061 322,546.5C 331.768,541.699 341.602,537.033 351.5,532.5C 354.618,531.441 357.618,530.108 360.5,528.5C 369.71,524.363 378.71,520.696 387.5,517.5C 388.176,516.398 388.842,515.398 389.5,514.5C 390.15,514.804 390.817,515.137 391.5,515.5C 430.623,499.181 470.623,485.348 511.5,474C 545.991,465.436 580.657,457.769 615.5,451C 623.925,448.417 628.925,442.917 630.5,434.5C 627.825,424.488 621.825,417.154 612.5,412.5C 606.093,406.96 598.759,402.96 590.5,400.5C 587.48,398.323 584.147,396.657 580.5,395.5C 577.828,394.499 575.162,393.499 572.5,392.5C 569.574,391.302 566.574,390.302 563.5,389.5C 560.452,388.654 557.452,387.654 554.5,386.5C 551.15,385.497 547.817,384.497 544.5,383.5C 542.847,383.34 541.514,382.674 540.5,381.5 Z"/></g>
<g><path style="opacity:1" fill="#01a0de" d="M 544.5,383.5 C 547.817,384.497 551.15,385.497 554.5,386.5C 469.002,387.499 383.335,387.833 297.5,387.5C 303.291,386.021 309.291,385.021 315.5,384.5C 392.002,384.833 468.335,384.499 544.5,383.5 Z"/></g>
<g><path style="opacity:0.967" fill="#919396" d="M 1006.5,377.5 C 1045.37,430.017 1056.2,488.017 1039,551.5C 1027.36,589.548 1009.19,623.881 984.5,654.5C 980.366,653.515 976.032,653.182 971.5,653.5C 993.631,626.928 1011.46,597.595 1025,565.5C 1035.76,538.196 1040.76,509.862 1040,480.5C 1038.22,516.968 1028.39,550.968 1010.5,582.5C 1010.5,518.5 1010.5,454.5 1010.5,390.5C 998.833,390.5 987.167,390.5 975.5,390.5C 972.177,386.54 968.844,382.54 965.5,378.5C 979.344,378.829 993.01,378.496 1006.5,377.5 Z"/></g>
<g><path style="opacity:1" fill="#dcebf8" d="M 138.5,384.5 C 137.551,389.74 137.218,395.073 137.5,400.5C 139.167,400.5 140.833,400.5 142.5,400.5C 139.038,401.482 135.371,401.815 131.5,401.5C 131.5,396.5 131.5,391.5 131.5,386.5C 133.772,385.681 136.106,385.015 138.5,384.5 Z"/></g>
<g><path style="opacity:1" fill="#09a6e0" d="M 554.5,386.5 C 557.452,387.654 560.452,388.654 563.5,389.5C 470.335,390.499 377.001,390.833 283.5,390.5C 287.921,388.898 292.588,387.898 297.5,387.5C 383.335,387.833 469.002,387.499 554.5,386.5 Z"/></g>
<g><path style="opacity:1" fill="#b9dbf4" d="M 131.5,386.5 C 131.5,391.5 131.5,396.5 131.5,401.5C 129.735,402.461 127.735,402.795 125.5,402.5C 123.833,402.5 122.167,402.5 120.5,402.5C 120.5,398.167 120.5,393.833 120.5,389.5C 124.095,388.303 127.761,387.303 131.5,386.5 Z"/></g>
<g><path style="opacity:0.974" fill="#8e9093" d="M 909.5,335.5 C 911.772,336.441 913.772,337.774 915.5,339.5C 942.501,357.667 965.001,380.334 983,407.5C 988.135,416.103 992.468,425.103 996,434.5C 996.667,432.833 996.667,431.167 996,429.5C 990.713,415.588 983.88,402.588 975.5,390.5C 987.167,390.5 998.833,390.5 1010.5,390.5C 1010.5,454.5 1010.5,518.5 1010.5,582.5C 996.937,608.389 980.271,632.055 960.5,653.5C 940.833,653.5 921.167,653.5 901.5,653.5C 924.87,632.963 946.37,610.63 966,586.5C 978.561,568.384 987.561,548.717 993,527.5C 982.622,551.938 968.955,574.272 952,594.5C 933.261,616.407 912.761,636.407 890.5,654.5C 890.389,653.883 890.056,653.383 889.5,653C 886.635,652.817 883.969,652.317 881.5,651.5C 911.585,627.249 938.085,599.583 961,568.5C 1012.23,496.542 1006.06,430.042 942.5,369C 929.492,357.184 915.825,346.351 901.5,336.5C 904.385,336.806 907.052,336.473 909.5,335.5 Z"/></g>
<g><path style="opacity:1" fill="#2bade3" d="M 563.5,389.5 C 566.574,390.302 569.574,391.302 572.5,392.5C 473.668,393.499 374.668,393.833 275.5,393.5C 277.89,391.98 280.557,390.98 283.5,390.5C 377.001,390.833 470.335,390.499 563.5,389.5 Z"/></g>
<g><path style="opacity:1" fill="#8ec7ec" d="M 120.5,389.5 C 120.5,393.833 120.5,398.167 120.5,402.5C 122.167,402.5 123.833,402.5 125.5,402.5C 120.04,403.737 114.373,404.404 108.5,404.5C 108.5,400.833 108.5,397.167 108.5,393.5C 112.215,391.595 116.215,390.262 120.5,389.5 Z"/></g>
<g><path style="opacity:1" fill="#51b3e5" d="M 572.5,392.5 C 575.162,393.499 577.828,394.499 580.5,395.5C 477.668,396.499 374.668,396.833 271.5,396.5C 268.941,396.802 266.607,396.468 264.5,395.5C 268.415,395.753 272.081,395.087 275.5,393.5C 374.668,393.833 473.668,393.499 572.5,392.5 Z"/></g>
<g><path style="opacity:1" fill="#57b4e5" d="M 108.5,393.5 C 108.5,397.167 108.5,400.833 108.5,404.5C 104.642,405.294 100.642,405.96 96.5,406.5C 96.81,403.287 96.4767,400.287 95.5,397.5C 99.5015,395.411 103.835,394.078 108.5,393.5 Z"/></g>
<g><path style="opacity:1" fill="#2864b0" d="M 397.5,440.5 C 390.558,444.036 383.224,446.37 375.5,447.5C 344.474,432.739 311.807,423.239 277.5,419C 223.286,411.613 168.953,410.613 114.5,416C 99.1943,417.69 84.0276,420.19 69,423.5C 68.5,423.167 68,422.833 67.5,422.5C 70.0256,417.429 73.0256,412.762 76.5,408.5C 83.1969,408.115 89.8635,407.448 96.5,406.5C 100.642,405.96 104.642,405.294 108.5,404.5C 114.373,404.404 120.04,403.737 125.5,402.5C 127.735,402.795 129.735,402.461 131.5,401.5C 135.371,401.815 139.038,401.482 142.5,400.5C 199.449,396.29 256.116,398.79 312.5,408C 335.687,411.13 358.354,416.463 380.5,424C 387.213,426.103 393.046,429.603 398,434.5C 398.678,436.598 398.511,438.598 397.5,440.5 Z"/></g>
<g><path style="opacity:1" fill="#66b9e8" d="M 580.5,395.5 C 584.147,396.657 587.48,398.323 590.5,400.5C 582.208,399.593 573.875,399.26 565.5,399.5C 549.008,398.503 532.342,398.17 515.5,398.5C 515.5,403.833 515.5,409.167 515.5,414.5C 508.663,415.369 501.663,416.036 494.5,416.5C 494.807,410.907 494.473,405.407 493.5,400C 427.834,399.5 362.168,399.333 296.5,399.5C 287.968,398.998 279.634,397.998 271.5,396.5C 374.668,396.833 477.668,396.499 580.5,395.5 Z"/></g>
<g><path style="opacity:1" fill="#7ec1ea" d="M 296.5,399.5 C 362.168,399.333 427.834,399.5 493.5,400C 494.473,405.407 494.807,410.907 494.5,416.5C 490.5,416.833 486.5,417.167 482.5,417.5C 482.5,412.167 482.5,406.833 482.5,401.5C 477.807,401.54 473.141,401.873 468.5,402.5C 466.5,402.5 464.5,402.5 462.5,402.5C 414.167,402.5 365.833,402.5 317.5,402.5C 310.301,401.948 303.301,400.948 296.5,399.5 Z"/></g>
<g><path style="opacity:1" fill="#34ade3" d="M 565.5,399.5 C 561.833,399.5 558.167,399.5 554.5,399.5C 554.5,403.833 554.5,408.167 554.5,412.5C 541.52,413.42 528.52,414.086 515.5,414.5C 515.5,409.167 515.5,403.833 515.5,398.5C 532.342,398.17 549.008,398.503 565.5,399.5 Z"/></g>
<g><path style="opacity:1" fill="#06a0de" d="M 565.5,399.5 C 573.875,399.26 582.208,399.593 590.5,400.5C 598.759,402.96 606.093,406.96 612.5,412.5C 593.167,412.5 573.833,412.5 554.5,412.5C 554.5,408.167 554.5,403.833 554.5,399.5C 558.167,399.5 561.833,399.5 565.5,399.5 Z"/></g>
<g><path style="opacity:1" fill="#15a3de" d="M 95.5,397.5 C 96.4767,400.287 96.81,403.287 96.5,406.5C 89.8635,407.448 83.1969,408.115 76.5,408.5C 81.0573,402.046 87.3906,398.379 95.5,397.5 Z"/></g>
<g><path style="opacity:1" fill="#96cbee" d="M 482.5,417.5 C 477.436,417.795 472.436,418.462 467.5,419.5C 468.452,413.925 468.786,408.259 468.5,402.5C 473.141,401.873 477.807,401.54 482.5,401.5C 482.5,406.833 482.5,412.167 482.5,417.5 Z"/></g>
<g><path style="opacity:1" fill="#aed6f2" d="M 462.5,402.5 C 464.5,402.5 466.5,402.5 468.5,402.5C 468.786,408.259 468.452,413.925 467.5,419.5C 458.835,420.5 450.169,421.5 441.5,422.5C 441.5,416.833 441.5,411.167 441.5,405.5C 448.674,404.761 455.674,403.761 462.5,402.5 Z"/></g>
<g><path style="opacity:1" fill="#ececed" d="M 916.5,333.5 C 924.711,338.776 932.377,344.776 939.5,351.5C 948.839,359.84 957.506,368.84 965.5,378.5C 968.844,382.54 972.177,386.54 975.5,390.5C 983.88,402.588 990.713,415.588 996,429.5C 996.667,431.167 996.667,432.833 996,434.5C 992.468,425.103 988.135,416.103 983,407.5C 965.001,380.334 942.501,357.667 915.5,339.5C 915.205,337.265 915.539,335.265 916.5,333.5 Z"/></g>
<g><path style="opacity:1" fill="#9acdee" d="M 317.5,402.5 C 365.833,402.5 414.167,402.5 462.5,402.5C 455.674,403.761 448.674,404.761 441.5,405.5C 438.545,406.159 435.545,406.492 432.5,406.5C 401.833,406.5 371.167,406.5 340.5,406.5C 332.618,405.687 324.951,404.354 317.5,402.5 Z"/></g>
<g><path style="opacity:1" fill="#add6f2" d="M 340.5,406.5 C 371.167,406.5 401.833,406.5 432.5,406.5C 429.014,407.533 425.347,408.367 421.5,409C 399.169,409.5 376.836,409.667 354.5,409.5C 349.609,408.99 344.942,407.99 340.5,406.5 Z"/></g>
<g><path style="opacity:1" fill="#cde5f7" d="M 441.5,405.5 C 441.5,411.167 441.5,416.833 441.5,422.5C 431.211,424.661 420.878,426.828 410.5,429C 409.944,429.383 409.611,429.883 409.5,430.5C 408.833,424.654 408.167,418.654 407.5,412.5C 406.833,417.167 406.167,421.833 405.5,426.5C 405.715,422.4 405.382,418.066 404.5,413.5C 403.675,417.122 403.175,420.789 403,424.5C 402.181,412.154 401.181,411.821 400,423.5C 399.223,413.811 398.223,413.478 397,422.5C 396.764,420.236 396.264,418.069 395.5,416C 390.249,415.196 385.082,415.363 380,416.5C 371.428,414.068 362.928,411.734 354.5,409.5C 376.836,409.667 399.169,409.5 421.5,409C 425.347,408.367 429.014,407.533 432.5,406.5C 435.545,406.492 438.545,406.159 441.5,405.5 Z"/></g>
<g><path style="opacity:1" fill="#deedfa" d="M 641.5,406.5 C 643.579,406.971 645.579,407.637 647.5,408.5C 647.5,423.167 647.5,437.833 647.5,452.5C 646.209,452.263 645.209,452.596 644.5,453.5C 643.5,453.5 642.5,453.5 641.5,453.5C 641.5,437.833 641.5,422.167 641.5,406.5 Z"/></g>
<g><path style="opacity:1" fill="#cce4f7" d="M 647.5,408.5 C 649.579,408.971 651.579,409.637 653.5,410.5C 653.5,424.5 653.5,438.5 653.5,452.5C 650.482,452.704 647.482,453.037 644.5,453.5C 645.209,452.596 646.209,452.263 647.5,452.5C 647.5,437.833 647.5,423.167 647.5,408.5 Z"/></g>
<g><path style="opacity:0.996" fill="#0295da" d="M 554.5,412.5 C 573.833,412.5 593.167,412.5 612.5,412.5C 621.825,417.154 627.825,424.488 630.5,434.5C 628.925,442.917 623.925,448.417 615.5,451C 580.657,457.769 545.991,465.436 511.5,474C 470.623,485.348 430.623,499.181 391.5,515.5C 390.817,515.137 390.15,514.804 389.5,514.5C 381.291,509.526 372.291,506.86 362.5,506.5C 359.375,505.521 356.042,505.187 352.5,505.5C 345.687,504.509 338.687,504.175 331.5,504.5C 330.5,504.5 329.5,504.5 328.5,504.5C 321.151,504.549 313.817,504.882 306.5,505.5C 297.963,505.969 289.63,506.969 281.5,508.5C 272.382,509.088 263.382,510.422 254.5,512.5C 254.5,517.167 254.5,521.833 254.5,526.5C 263.706,526.081 272.706,525.081 281.5,523.5C 291.167,523.5 300.833,523.5 310.5,523.5C 312.5,523.5 314.5,523.5 316.5,523.5C 321.493,523.916 326.493,524.249 331.5,524.5C 334.417,525.417 337.417,526.084 340.5,526.5C 344.651,527.74 348.317,529.74 351.5,532.5C 341.602,537.033 331.768,541.699 322,546.5C 319.295,545.061 316.462,544.061 313.5,543.5C 309.298,542.033 304.965,541.033 300.5,540.5C 297.375,539.521 294.042,539.187 290.5,539.5C 286.366,538.515 282.032,538.182 277.5,538.5C 271.5,538.5 265.5,538.5 259.5,538.5C 255.143,538.586 250.81,538.92 246.5,539.5C 241.747,539.843 237.081,540.51 232.5,541.5C 224.739,542.319 217.073,543.652 209.5,545.5C 209.5,549.833 209.5,554.167 209.5,558.5C 207.585,558.216 205.919,558.549 204.5,559.5C 200.958,559.187 197.625,559.521 194.5,560.5C 191.615,560.194 188.948,560.527 186.5,561.5C 185.833,561.5 185.167,561.5 184.5,561.5C 241.024,512.07 304.69,474.07 375.5,447.5C 383.224,446.37 390.558,444.036 397.5,440.5C 400.673,439.83 403.673,438.664 406.5,437C 408.919,435.491 409.919,433.325 409.5,430.5C 409.611,429.883 409.944,429.383 410.5,429C 420.878,426.828 431.211,424.661 441.5,422.5C 450.169,421.5 458.835,420.5 467.5,419.5C 472.436,418.462 477.436,417.795 482.5,417.5C 486.5,417.167 490.5,416.833 494.5,416.5C 501.663,416.036 508.663,415.369 515.5,414.5C 528.52,414.086 541.52,413.42 554.5,412.5 Z"/></g>
<g><path style="opacity:1" fill="#b2d7f3" d="M 653.5,410.5 C 657.969,411.435 662.303,412.768 666.5,414.5C 665.521,426.42 665.188,438.42 665.5,450.5C 666.833,450.5 668.167,450.5 669.5,450.5C 666.375,451.479 663.042,451.813 659.5,451.5C 657.621,452.341 655.621,452.675 653.5,452.5C 653.5,438.5 653.5,424.5 653.5,410.5 Z"/></g>
<g><path style="opacity:0.913" fill="#1d4872" d="M 1357.5,418.5 C 1360.45,418.223 1363.28,418.556 1366,419.5C 1378.61,454.654 1391.61,489.654 1405,524.5C 1408.71,527.239 1412.88,528.906 1417.5,529.5C 1417.5,531.167 1417.5,532.833 1417.5,534.5C 1403.5,534.5 1389.5,534.5 1375.5,534.5C 1375.58,533.07 1375.25,531.736 1374.5,530.5C 1377.79,529.236 1381.12,528.07 1384.5,527C 1385.08,526.107 1385.41,525.107 1385.5,524C 1382.26,513.442 1378.92,502.942 1375.5,492.5C 1362.5,492.333 1349.5,492.5 1336.5,493C 1331.91,503.094 1327.91,513.428 1324.5,524C 1324.59,525.107 1324.92,526.107 1325.5,527C 1328.43,528.145 1331.43,528.978 1334.5,529.5C 1334.42,530.93 1334.75,532.264 1335.5,533.5C 1323.18,534.499 1310.85,534.832 1298.5,534.5C 1298.5,532.833 1298.5,531.167 1298.5,529.5C 1303.68,528.945 1308.18,526.945 1312,523.5C 1326.68,488.147 1341.85,453.147 1357.5,418.5 Z M 1356.5,442.5 C 1361.67,455.991 1366.67,469.658 1371.5,483.5C 1360.85,484.666 1350.18,484.832 1339.5,484C 1345.27,470.195 1350.93,456.362 1356.5,442.5 Z"/></g>
<g><path style="opacity:1" fill="#93caed" d="M 666.5,414.5 C 670.421,416.029 674.421,417.363 678.5,418.5C 677.525,428.751 677.192,439.085 677.5,449.5C 678.5,449.5 679.5,449.5 680.5,449.5C 677.038,450.482 673.371,450.815 669.5,450.5C 668.167,450.5 666.833,450.5 665.5,450.5C 665.188,438.42 665.521,426.42 666.5,414.5 Z"/></g>
<g><path style="opacity:0.927" fill="#1d4872" d="M 1119.5,419.5 C 1131.84,419.333 1144.17,419.5 1156.5,420C 1185.3,424.796 1199.63,441.796 1199.5,471C 1200.37,493.079 1192.37,511.079 1175.5,525C 1168.15,529.67 1160.15,532.67 1151.5,534C 1130.84,534.5 1110.17,534.667 1089.5,534.5C 1089.58,533.07 1089.25,531.736 1088.5,530.5C 1092.84,529.112 1097.01,527.445 1101,525.5C 1101.67,493.5 1101.67,461.5 1101,429.5C 1097.41,427.47 1093.58,426.137 1089.5,425.5C 1089.71,423.856 1089.38,422.356 1088.5,421C 1099.01,420.83 1109.34,420.33 1119.5,419.5 Z M 1118.5,427.5 C 1128.17,427.334 1137.84,427.5 1147.5,428C 1161.28,430.132 1170.78,437.632 1176,450.5C 1181.79,467.815 1181.79,485.148 1176,502.5C 1170.88,515.642 1161.38,523.476 1147.5,526C 1137.84,526.5 1128.17,526.666 1118.5,526.5C 1118.5,493.5 1118.5,460.5 1118.5,427.5 Z"/></g>
<g><path style="opacity:0.92" fill="#1d4872" d="M 1239.5,419.5 C 1250.17,419.333 1260.84,419.5 1271.5,420C 1291.02,424.215 1298.19,436.048 1293,455.5C 1289.41,463.421 1283.58,468.921 1275.5,472C 1298.91,479.523 1305.74,494.69 1296,517.5C 1290.43,525.392 1282.93,530.559 1273.5,533C 1253.88,534.438 1234.21,534.938 1214.5,534.5C 1214.58,533.07 1214.25,531.736 1213.5,530.5C 1217.84,529.112 1222.01,527.445 1226,525.5C 1226.67,493.5 1226.67,461.5 1226,429.5C 1222.41,427.47 1218.58,426.137 1214.5,425.5C 1214.71,423.856 1214.38,422.356 1213.5,421C 1222.34,420.83 1231.01,420.33 1239.5,419.5 Z M 1243.5,427.5 C 1249.51,427.334 1255.51,427.501 1261.5,428C 1272.06,430.435 1277.06,437.102 1276.5,448C 1276.9,458.863 1271.9,465.863 1261.5,469C 1255.51,469.499 1249.51,469.666 1243.5,469.5C 1243.5,455.5 1243.5,441.5 1243.5,427.5 Z M 1243.5,476.5 C 1251.62,476.24 1259.62,477.073 1267.5,479C 1275.23,482.279 1279.73,488.112 1281,496.5C 1283.52,511.646 1277.69,521.812 1263.5,527C 1256.92,527.81 1250.42,527.643 1244,526.5C 1243.5,509.837 1243.33,493.17 1243.5,476.5 Z"/></g>
<g><path style="opacity:0.93" fill="#1d4872" d="M 1462.5,421.5 C 1482,420.338 1501.66,420.171 1521.5,421C 1544.16,426.463 1552.33,440.63 1546,463.5C 1540.92,477.245 1531.08,485.078 1516.5,487C 1508.42,488.351 1500.42,488.518 1492.5,487.5C 1492.33,500.171 1492.5,512.838 1493,525.5C 1496.98,527.371 1501.15,528.704 1505.5,529.5C 1505.7,531.575 1505.87,533.575 1506,535.5C 1492,534.167 1478,534.167 1464,535.5C 1463.65,533.782 1463.15,532.115 1462.5,530.5C 1466.84,529.112 1471.01,527.445 1475,525.5C 1475.67,493.5 1475.67,461.5 1475,429.5C 1471.41,427.47 1467.58,426.137 1463.5,425.5C 1463.77,423.901 1463.43,422.568 1462.5,421.5 Z M 1492.5,428.5 C 1522.48,424.641 1533.98,437.308 1527,466.5C 1523.91,473.256 1518.74,477.423 1511.5,479C 1505.18,479.5 1498.84,479.666 1492.5,479.5C 1492.5,462.5 1492.5,445.5 1492.5,428.5 Z"/></g>
<g><path style="opacity:1" fill="#6dbbe8" d="M 678.5,418.5 C 682.734,419.795 686.734,421.461 690.5,423.5C 688.532,431.433 687.865,439.766 688.5,448.5C 691.833,448.5 695.167,448.5 698.5,448.5C 698.5,448.833 698.5,449.167 698.5,449.5C 695.833,449.5 693.167,449.5 690.5,449.5C 690.167,449.5 689.833,449.5 689.5,449.5C 686.5,449.5 683.5,449.5 680.5,449.5C 679.5,449.5 678.5,449.5 677.5,449.5C 677.192,439.085 677.525,428.751 678.5,418.5 Z"/></g>
<g><path style="opacity:1" fill="#3eafe3" d="M 690.5,423.5 C 694.383,424.459 698.05,425.792 701.5,427.5C 700.509,434.313 700.175,441.313 700.5,448.5C 699.833,448.5 699.167,448.5 698.5,448.5C 695.167,448.5 691.833,448.5 688.5,448.5C 687.865,439.766 688.532,431.433 690.5,423.5 Z"/></g>
<g><path style="opacity:1" fill="#17a3df" d="M 701.5,427.5 C 708.255,429.709 714.922,432.209 721.5,435C 723.996,436.331 725.996,438.164 727.5,440.5C 726.71,441.609 726.21,442.942 726,444.5C 720.447,446.892 714.614,448.225 708.5,448.5C 708.167,448.5 707.833,448.5 707.5,448.5C 705.833,448.5 704.167,448.5 702.5,448.5C 701.833,448.5 701.167,448.5 700.5,448.5C 700.175,441.313 700.509,434.313 701.5,427.5 Z"/></g>
<g><path style="opacity:1" fill="#e6eaf6" d="M 727.5,440.5 C 734.843,448.85 739.843,458.517 742.5,469.5C 733.182,470.183 723.849,470.517 714.5,470.5C 712.5,470.5 710.5,470.5 708.5,470.5C 708.5,463.167 708.5,455.833 708.5,448.5C 714.614,448.225 720.447,446.892 726,444.5C 726.21,442.942 726.71,441.609 727.5,440.5 Z"/></g>
<g><path style="opacity:1" fill="#dde2f2" d="M 702.5,448.5 C 704.167,448.5 705.833,448.5 707.5,448.5C 707.5,455.833 707.5,463.167 707.5,470.5C 705.585,470.216 703.919,470.549 702.5,471.5C 701.5,471.5 700.5,471.5 699.5,471.5C 699.5,464.167 699.5,456.833 699.5,449.5C 700.791,449.737 701.791,449.404 702.5,448.5 Z"/></g>
<g><path style="opacity:1" fill="#b9c5e5" d="M 707.5,448.5 C 707.833,448.5 708.167,448.5 708.5,448.5C 708.5,455.833 708.5,463.167 708.5,470.5C 710.5,470.5 712.5,470.5 714.5,470.5C 710.702,471.483 706.702,471.817 702.5,471.5C 703.919,470.549 705.585,470.216 707.5,470.5C 707.5,463.167 707.5,455.833 707.5,448.5 Z"/></g>
<g><path style="opacity:1" fill="#b5c2e3" d="M 698.5,448.5 C 699.167,448.5 699.833,448.5 700.5,448.5C 701.167,448.5 701.833,448.5 702.5,448.5C 701.791,449.404 700.791,449.737 699.5,449.5C 699.5,456.833 699.5,464.167 699.5,471.5C 696.375,472.479 693.042,472.813 689.5,472.5C 689.5,464.833 689.5,457.167 689.5,449.5C 689.833,449.5 690.167,449.5 690.5,449.5C 690.5,456.833 690.5,464.167 690.5,471.5C 693.167,471.5 695.833,471.5 698.5,471.5C 698.5,464.167 698.5,456.833 698.5,449.5C 698.5,449.167 698.5,448.833 698.5,448.5 Z"/></g>
<g><path style="opacity:1" fill="#d7dcef" d="M 690.5,449.5 C 693.167,449.5 695.833,449.5 698.5,449.5C 698.5,456.833 698.5,464.167 698.5,471.5C 695.833,471.5 693.167,471.5 690.5,471.5C 690.5,464.167 690.5,456.833 690.5,449.5 Z"/></g>
<g><path style="opacity:1" fill="#c7cee9" d="M 680.5,449.5 C 683.5,449.5 686.5,449.5 689.5,449.5C 689.5,457.167 689.5,464.833 689.5,472.5C 682.225,473.586 674.892,474.252 667.5,474.5C 664.833,474.5 662.167,474.5 659.5,474.5C 659.5,466.833 659.5,459.167 659.5,451.5C 663.042,451.813 666.375,451.479 669.5,450.5C 673.371,450.815 677.038,450.482 680.5,449.5 Z"/></g>
<g><path style="opacity:1" fill="#b5c0e2" d="M 659.5,451.5 C 659.5,459.167 659.5,466.833 659.5,474.5C 662.167,474.5 664.833,474.5 667.5,474.5C 659.366,475.998 651.032,476.998 642.5,477.5C 641.508,469.684 641.174,461.684 641.5,453.5C 642.5,453.5 643.5,453.5 644.5,453.5C 647.482,453.037 650.482,452.704 653.5,452.5C 655.621,452.675 657.621,452.341 659.5,451.5 Z"/></g>
<g><path style="opacity:1" fill="#abb7de" d="M 641.5,453.5 C 641.174,461.684 641.508,469.684 642.5,477.5C 637.71,478.725 632.71,479.392 627.5,479.5C 626.167,479.5 624.833,479.5 623.5,479.5C 623.825,471.648 623.492,463.982 622.5,456.5C 628.683,455.117 635.016,454.117 641.5,453.5 Z"/></g>
<g><path style="opacity:0.916" fill="#1d4872" d="M 1578.5,457.5 C 1580.5,457.5 1582.5,457.5 1584.5,457.5C 1584.34,460.187 1584.5,462.854 1585,465.5C 1593.98,459.675 1603.81,457.008 1614.5,457.5C 1612.96,465.859 1611.29,474.193 1609.5,482.5C 1607.99,483.747 1606.49,483.747 1605,482.5C 1603.89,477.105 1601.39,472.605 1597.5,469C 1592.84,468.241 1588.67,469.407 1585,472.5C 1584.33,490.5 1584.33,508.5 1585,526.5C 1588.83,528.721 1593,530.054 1597.5,530.5C 1597.66,532.199 1597.49,533.866 1597,535.5C 1584,534.167 1571,534.167 1558,535.5C 1556.73,534.095 1556.23,532.429 1556.5,530.5C 1560.74,530.252 1564.58,528.919 1568,526.5C 1568.67,507.833 1568.67,489.167 1568,470.5C 1564.48,469.243 1560.98,467.91 1557.5,466.5C 1556.75,465.264 1556.42,463.93 1556.5,462.5C 1564.15,461.751 1571.49,460.084 1578.5,457.5 Z"/></g>
<g><path style="opacity:0.91" fill="#1d4872" d="M 1650.5,457.5 C 1672.45,453.554 1687.95,461.554 1697,481.5C 1701.51,498.644 1698.01,513.81 1686.5,527C 1672.68,537.201 1657.68,539.534 1641.5,534C 1624.32,524.127 1617.48,509.293 1621,489.5C 1624.13,472.543 1633.96,461.876 1650.5,457.5 Z M 1652.5,464.5 C 1668.36,462.683 1677.52,469.683 1680,485.5C 1682.42,498.435 1680.75,510.768 1675,522.5C 1667.69,530.049 1659.19,531.549 1649.5,527C 1643.52,521.877 1640.02,515.377 1639,507.5C 1636.75,495.413 1638.08,483.747 1643,472.5C 1645.77,469.217 1648.94,466.55 1652.5,464.5 Z"/></g>
<g><path style="opacity:0.903" fill="#1d4872" d="M 1734.5,457.5 C 1752.14,458.55 1769.81,459.383 1787.5,460C 1788.34,461.011 1788.67,462.178 1788.5,463.5C 1782.39,464.481 1776.39,465.981 1770.5,468C 1776.4,476.585 1777.57,485.751 1774,495.5C 1767.53,507.493 1757.37,513.493 1743.5,513.5C 1738.87,512.97 1734.37,511.97 1730,510.5C 1728.09,513.826 1726.59,517.326 1725.5,521C 1725.82,522.653 1726.82,523.653 1728.5,524C 1741.83,524.333 1755.17,524.667 1768.5,525C 1781.49,526.986 1787.32,534.486 1786,547.5C 1784.73,555.865 1780.57,562.365 1773.5,567C 1756.67,575.941 1739.01,577.941 1720.5,573C 1707.94,567.399 1705.11,558.566 1712,546.5C 1714.48,543.051 1717.31,539.884 1720.5,537C 1714.2,534.575 1712.04,530.075 1714,523.5C 1716.63,517.728 1720.13,512.561 1724.5,508C 1713.6,500.646 1709.77,490.48 1713,477.5C 1716.72,467.067 1723.89,460.4 1734.5,457.5 Z M 1738.5,464.5 C 1749.4,462.589 1756.24,466.922 1759,477.5C 1760.36,485.529 1759.36,493.195 1756,500.5C 1754.46,502.378 1752.62,503.878 1750.5,505C 1738.68,507.841 1731.52,503.341 1729,491.5C 1727.74,483.82 1728.74,476.487 1732,469.5C 1733.97,467.45 1736.13,465.783 1738.5,464.5 Z M 1726.5,538.5 C 1739.57,538.057 1752.57,538.557 1765.5,540C 1771.17,542.815 1773,547.315 1771,553.5C 1767.94,560.227 1762.77,564.394 1755.5,566C 1747.49,567.962 1739.49,567.962 1731.5,566C 1725.53,563.695 1722.2,559.362 1721.5,553C 1722.47,547.903 1724.14,543.07 1726.5,538.5 Z"/></g>
<g><path style="opacity:0.916" fill="#1d4872" d="M 1814.5,457.5 C 1816.5,457.5 1818.5,457.5 1820.5,457.5C 1820.34,460.187 1820.5,462.854 1821,465.5C 1829.98,459.675 1839.81,457.008 1850.5,457.5C 1848.96,465.859 1847.29,474.193 1845.5,482.5C 1843.99,483.747 1842.49,483.747 1841,482.5C 1839.89,477.105 1837.39,472.605 1833.5,469C 1828.84,468.241 1824.67,469.407 1821,472.5C 1820.33,490.5 1820.33,508.5 1821,526.5C 1824.83,528.721 1829,530.054 1833.5,530.5C 1833.66,532.199 1833.49,533.866 1833,535.5C 1820,534.167 1807,534.167 1794,535.5C 1792.73,534.095 1792.23,532.429 1792.5,530.5C 1796.74,530.252 1800.58,528.919 1804,526.5C 1804.67,507.833 1804.67,489.167 1804,470.5C 1800.48,469.243 1796.98,467.91 1793.5,466.5C 1792.75,465.264 1792.42,463.93 1792.5,462.5C 1800.15,461.751 1807.49,460.084 1814.5,457.5 Z"/></g>
<g><path style="opacity:0.905" fill="#1d4872" d="M 1884.5,457.5 C 1912.92,454.251 1926.58,466.918 1925.5,495.5C 1908.17,495.5 1890.83,495.5 1873.5,495.5C 1872.72,511.537 1880.06,521.37 1895.5,525C 1905.19,525.693 1914.86,525.527 1924.5,524.5C 1924.79,526.288 1924.45,527.955 1923.5,529.5C 1911.68,536.097 1899.01,538.263 1885.5,536C 1862.2,529.268 1852.7,513.768 1857,489.5C 1859.92,473.243 1869.09,462.576 1884.5,457.5 Z M 1887.5,464.5 C 1897.79,461.884 1904.29,465.551 1907,475.5C 1907.5,479.51 1908,483.51 1908.5,487.5C 1896.83,487.5 1885.17,487.5 1873.5,487.5C 1874.39,477.365 1879.06,469.698 1887.5,464.5 Z"/></g>
<g><path style="opacity:0.899" fill="#1d4872" d="M 1956.5,457.5 C 1964.17,457.334 1971.84,457.5 1979.5,458C 1983.3,458.534 1986.97,459.534 1990.5,461C 1988.71,467.636 1987.04,474.303 1985.5,481C 1984.06,481.781 1982.72,481.614 1981.5,480.5C 1979.98,475.414 1977.98,470.58 1975.5,466C 1969.08,465.13 1962.75,465.464 1956.5,467C 1950.53,470.392 1949.03,475.226 1952,481.5C 1953.41,482.787 1954.91,483.954 1956.5,485C 1964.58,487.803 1972.58,490.803 1980.5,494C 1991.58,499.667 1995.42,508.501 1992,520.5C 1987.88,529.153 1981.05,534.32 1971.5,536C 1959.23,537.346 1947.23,536.179 1935.5,532.5C 1937.15,525.549 1938.65,518.549 1940,511.5C 1941.33,510.833 1942.67,510.167 1944,509.5C 1946.2,515.091 1948.2,520.758 1950,526.5C 1950.75,527.126 1951.58,527.626 1952.5,528C 1959.71,529.113 1966.71,528.446 1973.5,526C 1978.83,520.333 1978.83,514.667 1973.5,509C 1964.5,505.333 1955.5,501.667 1946.5,498C 1942.18,495.685 1939.35,492.185 1938,487.5C 1935.02,471.683 1941.18,461.683 1956.5,457.5 Z"/></g>
<g><path style="opacity:0.899" fill="#1d4872" d="M 2023.5,457.5 C 2031.17,457.334 2038.84,457.5 2046.5,458C 2050.3,458.534 2053.97,459.534 2057.5,461C 2055.71,467.636 2054.04,474.303 2052.5,481C 2051.06,481.781 2049.72,481.614 2048.5,480.5C 2046.98,475.414 2044.98,470.58 2042.5,466C 2036.08,465.13 2029.75,465.464 2023.5,467C 2017.53,470.392 2016.03,475.226 2019,481.5C 2020.41,482.787 2021.91,483.954 2023.5,485C 2031.58,487.803 2039.58,490.803 2047.5,494C 2058.58,499.667 2062.42,508.501 2059,520.5C 2054.88,529.153 2048.05,534.32 2038.5,536C 2026.23,537.346 2014.23,536.179 2002.5,532.5C 2004.15,525.549 2005.65,518.549 2007,511.5C 2008.33,510.833 2009.67,510.167 2011,509.5C 2013.2,515.091 2015.2,520.758 2017,526.5C 2017.75,527.126 2018.58,527.626 2019.5,528C 2026.71,529.113 2033.71,528.446 2040.5,526C 2045.83,520.333 2045.83,514.667 2040.5,509C 2031.5,505.333 2022.5,501.667 2013.5,498C 2009.18,495.685 2006.35,492.185 2005,487.5C 2002.02,471.683 2008.18,461.683 2023.5,457.5 Z"/></g>
<g><path style="opacity:1" fill="#a0aed9" d="M 622.5,456.5 C 623.492,463.982 623.825,471.648 623.5,479.5C 624.833,479.5 626.167,479.5 627.5,479.5C 619.383,481.376 611.05,482.709 602.5,483.5C 601.833,475.833 601.167,468.167 600.5,460.5C 607.556,458.322 614.89,456.989 622.5,456.5 Z"/></g>
<g><path style="opacity:1" fill="#95a5d4" d="M 600.5,460.5 C 601.167,468.167 601.833,475.833 602.5,483.5C 597.409,485.129 592.076,486.129 586.5,486.5C 585.5,486.5 584.5,486.5 583.5,486.5C 583.5,479.167 583.5,471.833 583.5,464.5C 582.167,464.5 580.833,464.5 579.5,464.5C 586.238,462.42 593.238,461.087 600.5,460.5 Z"/></g>
<g><path style="opacity:1" fill="#889bcf" d="M 579.5,464.5 C 580.833,464.5 582.167,464.5 583.5,464.5C 583.5,471.833 583.5,479.167 583.5,486.5C 584.5,486.5 585.5,486.5 586.5,486.5C 577.056,488.99 567.389,490.99 557.5,492.5C 556.508,485.352 556.175,478.019 556.5,470.5C 555.167,470.5 553.833,470.5 552.5,470.5C 561.216,467.754 570.216,465.754 579.5,464.5 Z"/></g>
<g><path style="opacity:1" fill="#7b91c9" d="M 552.5,470.5 C 553.833,470.5 555.167,470.5 556.5,470.5C 556.175,478.019 556.508,485.352 557.5,492.5C 553.385,493.943 549.052,494.943 544.5,495.5C 541.167,495.5 537.833,495.5 534.5,495.5C 535.126,488.416 534.459,481.75 532.5,475.5C 538.906,473.232 545.573,471.565 552.5,470.5 Z"/></g>
<g><path style="opacity:1" fill="#7088c5" d="M 532.5,475.5 C 534.459,481.75 535.126,488.416 534.5,495.5C 537.833,495.5 541.167,495.5 544.5,495.5C 543.081,496.451 541.415,496.784 539.5,496.5C 526.456,496.407 513.456,497.073 500.5,498.5C 499.167,494.167 497.833,489.833 496.5,485.5C 508.142,481.253 520.142,477.92 532.5,475.5 Z"/></g>
<g><path style="opacity:1" fill="#5d7dbe" d="M 496.5,485.5 C 497.833,489.833 499.167,494.167 500.5,498.5C 492.62,499.813 484.62,501.147 476.5,502.5C 476.5,498.833 476.5,495.167 476.5,491.5C 482.891,488.898 489.557,486.898 496.5,485.5 Z"/></g>
<g><path style="opacity:1" fill="#4c73b8" d="M 476.5,491.5 C 476.5,495.167 476.5,498.833 476.5,502.5C 453.203,506.759 429.869,511.426 406.5,516.5C 429.163,506.61 452.496,498.277 476.5,491.5 Z"/></g>
<g><path style="opacity:1" fill="#2364b0" d="M 539.5,496.5 C 509.026,504.706 478.693,513.706 448.5,523.5C 448.083,522.876 447.416,522.543 446.5,522.5C 438.843,523.61 431.176,524.61 423.5,525.5C 418.853,526.296 414.186,526.963 409.5,527.5C 403.54,528.715 397.54,529.715 391.5,530.5C 386.494,531.595 381.494,532.595 376.5,533.5C 371.726,533.988 367.06,534.988 362.5,536.5C 361.893,536.376 361.56,536.043 361.5,535.5C 376.25,528.583 391.25,522.25 406.5,516.5C 429.869,511.426 453.203,506.759 476.5,502.5C 484.62,501.147 492.62,499.813 500.5,498.5C 513.456,497.073 526.456,496.407 539.5,496.5 Z"/></g>
<g><path style="opacity:1" fill="#a4d2f0" d="M 331.5,504.5 C 338.687,504.175 345.687,504.509 352.5,505.5C 348.5,505.5 344.5,505.5 340.5,505.5C 340.5,512.5 340.5,519.5 340.5,526.5C 337.417,526.084 334.417,525.417 331.5,524.5C 331.5,517.833 331.5,511.167 331.5,504.5 Z"/></g>
<g><path style="opacity:1" fill="#7bc0ea" d="M 328.5,504.5 C 324.702,505.483 320.702,505.817 316.5,505.5C 316.5,511.5 316.5,517.5 316.5,523.5C 314.5,523.5 312.5,523.5 310.5,523.5C 309.081,522.549 307.415,522.216 305.5,522.5C 305.214,516.741 305.548,511.075 306.5,505.5C 313.817,504.882 321.151,504.549 328.5,504.5 Z"/></g>
<g><path style="opacity:1" fill="#90c9ed" d="M 328.5,504.5 C 329.5,504.5 330.5,504.5 331.5,504.5C 331.5,511.167 331.5,517.833 331.5,524.5C 326.493,524.249 321.493,523.916 316.5,523.5C 316.5,517.5 316.5,511.5 316.5,505.5C 320.702,505.817 324.702,505.483 328.5,504.5 Z"/></g>
<g><path style="opacity:1" fill="#c1dff5" d="M 352.5,505.5 C 356.042,505.187 359.375,505.521 362.5,506.5C 361.802,513.734 361.136,521.067 360.5,528.5C 357.618,530.108 354.618,531.441 351.5,532.5C 348.317,529.74 344.651,527.74 340.5,526.5C 340.5,519.5 340.5,512.5 340.5,505.5C 344.5,505.5 348.5,505.5 352.5,505.5 Z"/></g>
<g><path style="opacity:1" fill="#52b4e5" d="M 306.5,505.5 C 305.548,511.075 305.214,516.741 305.5,522.5C 307.415,522.216 309.081,522.549 310.5,523.5C 300.833,523.5 291.167,523.5 281.5,523.5C 281.5,518.5 281.5,513.5 281.5,508.5C 289.63,506.969 297.963,505.969 306.5,505.5 Z"/></g>
<g><path style="opacity:1" fill="#ddedf9" d="M 362.5,506.5 C 372.291,506.86 381.291,509.526 389.5,514.5C 388.842,515.398 388.176,516.398 387.5,517.5C 378.71,520.696 369.71,524.363 360.5,528.5C 361.136,521.067 361.802,513.734 362.5,506.5 Z"/></g>
<g><path style="opacity:1" fill="#13a7e0" d="M 281.5,508.5 C 281.5,513.5 281.5,518.5 281.5,523.5C 272.706,525.081 263.706,526.081 254.5,526.5C 254.5,521.833 254.5,517.167 254.5,512.5C 263.382,510.422 272.382,509.088 281.5,508.5 Z"/></g>
<g><path style="opacity:1" fill="#c0d9f1" d="M 448.5,523.5 C 440.458,527.071 432.125,530.071 423.5,532.5C 422.5,532.5 421.5,532.5 420.5,532.5C 420.5,530.5 420.5,528.5 420.5,526.5C 421.791,526.737 422.791,526.404 423.5,525.5C 431.176,524.61 438.843,523.61 446.5,522.5C 447.416,522.543 448.083,522.876 448.5,523.5 Z"/></g>
<g><path style="opacity:1" fill="#9dcaec" d="M 423.5,525.5 C 422.791,526.404 421.791,526.737 420.5,526.5C 420.5,528.5 420.5,530.5 420.5,532.5C 421.5,532.5 422.5,532.5 423.5,532.5C 419.466,534.737 415.132,536.404 410.5,537.5C 409.167,537.5 407.833,537.5 406.5,537.5C 406.5,534.5 406.5,531.5 406.5,528.5C 407.791,528.737 408.791,528.404 409.5,527.5C 414.186,526.963 418.853,526.296 423.5,525.5 Z"/></g>
<g><path style="opacity:1" fill="#86c0e9" d="M 409.5,527.5 C 408.791,528.404 407.791,528.737 406.5,528.5C 406.5,531.5 406.5,534.5 406.5,537.5C 407.833,537.5 409.167,537.5 410.5,537.5C 410.158,538.338 409.492,538.672 408.5,538.5C 403.493,538.751 398.493,539.084 393.5,539.5C 391.612,537.012 390.945,534.012 391.5,530.5C 397.54,529.715 403.54,528.715 409.5,527.5 Z"/></g>
<g><path style="opacity:1" fill="#60b3e4" d="M 391.5,530.5 C 390.945,534.012 391.612,537.012 393.5,539.5C 388.016,540.804 382.349,541.804 376.5,542.5C 376.5,539.5 376.5,536.5 376.5,533.5C 381.494,532.595 386.494,531.595 391.5,530.5 Z"/></g>
<g><path style="opacity:1" fill="#23a3dd" d="M 376.5,533.5 C 376.5,536.5 376.5,539.5 376.5,542.5C 361.564,545.315 346.564,547.981 331.5,550.5C 341.187,544.99 351.187,539.99 361.5,535.5C 361.56,536.043 361.893,536.376 362.5,536.5C 367.06,534.988 371.726,533.988 376.5,533.5 Z"/></g>
<g><path style="opacity:1" fill="#9ccdef" d="M 259.5,538.5 C 265.5,538.5 271.5,538.5 277.5,538.5C 277.5,548.833 277.5,559.167 277.5,569.5C 275.668,570.248 274.001,571.248 272.5,572.5C 268.473,569.602 264.14,567.268 259.5,565.5C 259.5,556.5 259.5,547.5 259.5,538.5 Z"/></g>
<g><path style="opacity:1" fill="#b1d7f2" d="M 277.5,538.5 C 282.032,538.182 286.366,538.515 290.5,539.5C 289.508,546.982 289.175,554.648 289.5,562.5C 285.864,565.323 281.864,567.656 277.5,569.5C 277.5,559.167 277.5,548.833 277.5,538.5 Z"/></g>
<g><path style="opacity:1" fill="#71bde9" d="M 259.5,538.5 C 259.5,547.5 259.5,556.5 259.5,565.5C 254.354,564.299 249.354,562.965 244.5,561.5C 243.924,553.889 244.59,546.556 246.5,539.5C 250.81,538.92 255.143,538.586 259.5,538.5 Z"/></g>
<g><path style="opacity:1" fill="#c1dff5" d="M 290.5,539.5 C 294.042,539.187 297.375,539.521 300.5,540.5C 298.547,546.074 297.88,552.074 298.5,558.5C 295.622,560.105 292.622,561.439 289.5,562.5C 289.175,554.648 289.508,546.982 290.5,539.5 Z"/></g>
<g><path style="opacity:1" fill="#2464b0" d="M 408.5,538.5 C 391.452,545.519 374.452,552.852 357.5,560.5C 349.474,560.49 341.474,561.824 333.5,564.5C 329.462,564.958 325.462,565.624 321.5,566.5C 315.312,567.877 309.312,569.544 303.5,571.5C 298.191,572.076 293.191,573.409 288.5,575.5C 286.666,576.494 284.999,576.494 283.5,575.5C 299.212,566.644 315.212,558.31 331.5,550.5C 346.564,547.981 361.564,545.315 376.5,542.5C 382.349,541.804 388.016,540.804 393.5,539.5C 398.493,539.084 403.493,538.751 408.5,538.5 Z"/></g>
<g><path style="opacity:1" fill="#4fb2e5" d="M 246.5,539.5 C 244.59,546.556 243.924,553.889 244.5,561.5C 243.167,561.5 241.833,561.5 240.5,561.5C 238.236,560.781 235.903,560.448 233.5,560.5C 232.542,554.256 232.209,547.923 232.5,541.5C 237.081,540.51 241.747,539.843 246.5,539.5 Z"/></g>
<g><path style="opacity:1" fill="#d5e9f8" d="M 300.5,540.5 C 304.965,541.033 309.298,542.033 313.5,543.5C 313.813,546.247 313.48,548.914 312.5,551.5C 307.807,553.847 303.14,556.18 298.5,558.5C 297.88,552.074 298.547,546.074 300.5,540.5 Z"/></g>
<g><path style="opacity:1" fill="#4ab2e5" d="M 194.5,560.5 C 197.625,559.521 200.958,559.187 204.5,559.5C 206.5,559.5 208.5,559.5 210.5,559.5C 210.17,576.009 210.504,592.342 211.5,608.5C 206.438,612.221 201.104,615.555 195.5,618.5C 195.83,598.993 195.497,579.659 194.5,560.5 Z"/></g>
<g><path style="opacity:1" fill="#27abe2" d="M 232.5,541.5 C 232.209,547.923 232.542,554.256 233.5,560.5C 230.904,559.735 228.237,559.401 225.5,559.5C 225.171,572.677 225.505,585.677 226.5,598.5C 221.709,602.068 216.709,605.402 211.5,608.5C 210.504,592.342 210.17,576.009 210.5,559.5C 208.5,559.5 206.5,559.5 204.5,559.5C 205.919,558.549 207.585,558.216 209.5,558.5C 209.5,554.167 209.5,549.833 209.5,545.5C 217.073,543.652 224.739,542.319 232.5,541.5 Z"/></g>
<g><path style="opacity:1" fill="#09a5e0" d="M 233.5,560.5 C 235.903,560.448 238.236,560.781 240.5,561.5C 240.173,571.015 240.506,580.348 241.5,589.5C 236.767,592.89 231.767,595.89 226.5,598.5C 225.505,585.677 225.171,572.677 225.5,559.5C 228.237,559.401 230.904,559.735 233.5,560.5 Z"/></g>
<g><path style="opacity:1" fill="#5fb7e7" d="M 194.5,560.5 C 195.497,579.659 195.83,598.993 195.5,618.5C 193.14,620.853 190.473,622.853 187.5,624.5C 186.503,603.673 186.169,582.673 186.5,561.5C 188.948,560.527 191.615,560.194 194.5,560.5 Z"/></g>
<g><path style="opacity:1" fill="#0a9ddd" d="M 240.5,561.5 C 241.833,561.5 243.167,561.5 244.5,561.5C 249.354,562.965 254.354,564.299 259.5,565.5C 264.14,567.268 268.473,569.602 272.5,572.5C 261.979,577.925 251.646,583.592 241.5,589.5C 240.506,580.348 240.173,571.015 240.5,561.5 Z"/></g>
<g><path style="opacity:1" fill="#bbc5e4" d="M 357.5,560.5 C 350.409,564.379 343.076,567.712 335.5,570.5C 333.692,569.082 333.025,567.082 333.5,564.5C 341.474,561.824 349.474,560.49 357.5,560.5 Z"/></g>
<g><path style="opacity:1" fill="#a8b5dc" d="M 333.5,564.5 C 333.025,567.082 333.692,569.082 335.5,570.5C 331.818,573.008 327.818,575.008 323.5,576.5C 321.598,573.663 320.931,570.329 321.5,566.5C 325.462,565.624 329.462,564.958 333.5,564.5 Z"/></g>
<g><path style="opacity:1" fill="#6fbbe8" d="M 184.5,561.5 C 185.167,561.5 185.833,561.5 186.5,561.5C 186.169,582.673 186.503,603.673 187.5,624.5C 184.709,626.735 181.709,628.735 178.5,630.5C 178.163,609.979 177.163,589.646 175.5,569.5C 178.271,566.608 181.271,563.942 184.5,561.5 Z"/></g>
<g><path style="opacity:1" fill="#899dd0" d="M 321.5,566.5 C 320.931,570.329 321.598,573.663 323.5,576.5C 317.649,580.594 311.315,583.927 304.5,586.5C 303.513,581.695 303.179,576.695 303.5,571.5C 309.312,569.544 315.312,567.877 321.5,566.5 Z"/></g>
<g><path style="opacity:1" fill="#86c4ec" d="M 175.5,569.5 C 177.163,589.646 178.163,609.979 178.5,630.5C 172.538,634.821 166.538,639.155 160.5,643.5C 160.163,623.978 159.163,604.645 157.5,585.5C 163.177,579.824 169.177,574.491 175.5,569.5 Z"/></g>
<g><path style="opacity:1" fill="#708ac5" d="M 303.5,571.5 C 303.179,576.695 303.513,581.695 304.5,586.5C 299.984,589.927 294.984,592.593 289.5,594.5C 288.51,588.355 288.177,582.022 288.5,575.5C 293.191,573.409 298.191,572.076 303.5,571.5 Z"/></g>
<g><path style="opacity:1" fill="#5d7dbe" d="M 283.5,575.5 C 284.999,576.494 286.666,576.494 288.5,575.5C 288.177,582.022 288.51,588.355 289.5,594.5C 285.836,597.335 281.836,599.668 277.5,601.5C 276.833,594.5 276.167,587.5 275.5,580.5C 277.794,578.347 280.46,576.68 283.5,575.5 Z"/></g>
<g><path style="opacity:0.807" fill="#1d4872" d="M 1225.5,581.5 C 1227,581.415 1228,582.081 1228.5,583.5C 1223.61,587.69 1223.27,592.19 1227.5,597C 1225.84,600.297 1223.18,601.297 1219.5,600C 1217.65,597.421 1217.15,594.588 1218,591.5C 1219.92,587.746 1222.42,584.412 1225.5,581.5 Z"/></g>
<g><path style="opacity:0.807" fill="#1d4872" d="M 1237.5,581.5 C 1239,581.415 1240,582.081 1240.5,583.5C 1235.61,587.69 1235.27,592.19 1239.5,597C 1237.84,600.297 1235.18,601.297 1231.5,600C 1229.65,597.421 1229.15,594.588 1230,591.5C 1231.92,587.746 1234.42,584.412 1237.5,581.5 Z"/></g>
<g><path style="opacity:0.901" fill="#1d4872" d="M 1916.5,582.5 C 1918.17,582.5 1919.83,582.5 1921.5,582.5C 1920.49,596.819 1920.32,611.152 1921,625.5C 1921.27,628.272 1922.77,629.938 1925.5,630.5C 1923.46,632.013 1921.13,632.679 1918.5,632.5C 1915.36,632.949 1912.86,631.949 1911,629.5C 1908.52,631.917 1905.52,632.917 1902,632.5C 1892.33,632.327 1887.5,627.327 1887.5,617.5C 1889.1,603.923 1896.77,598.256 1910.5,600.5C 1910.5,596.5 1910.5,592.5 1910.5,588.5C 1909.13,588.657 1907.79,588.49 1906.5,588C 1905.55,587.282 1905.38,586.449 1906,585.5C 1909.66,584.76 1913.16,583.76 1916.5,582.5 Z M 1905.5,603.5 C 1907.14,603.286 1908.64,603.62 1910,604.5C 1910.83,611.856 1910.66,619.189 1909.5,626.5C 1906.21,627.969 1903.37,627.302 1901,624.5C 1897.73,618.528 1897.73,612.528 1901,606.5C 1902.41,605.219 1903.91,604.219 1905.5,603.5 Z"/></g>
<g><path style="opacity:0.808" fill="#1d4872" d="M 1932.5,582.5 C 1937.77,581.139 1940.43,583.139 1940.5,588.5C 1939.46,594.203 1936.46,598.537 1931.5,601.5C 1930.5,601.167 1929.83,600.5 1929.5,599.5C 1931.79,597.387 1933.45,594.887 1934.5,592C 1933.15,589.99 1931.82,587.99 1930.5,586C 1930.98,584.697 1931.64,583.531 1932.5,582.5 Z"/></g>
<g><path style="opacity:0.808" fill="#1d4872" d="M 1944.5,582.5 C 1949.77,581.139 1952.43,583.139 1952.5,588.5C 1951.46,594.203 1948.46,598.537 1943.5,601.5C 1942.5,601.167 1941.83,600.5 1941.5,599.5C 1943.79,597.387 1945.45,594.887 1946.5,592C 1945.15,589.99 1943.82,587.99 1942.5,586C 1942.98,584.697 1943.64,583.531 1944.5,582.5 Z"/></g>
<g><path style="opacity:0.865" fill="#1d4872" d="M 1558.5,584.5 C 1566.49,583.998 1568.49,587.165 1564.5,594C 1559.64,595.753 1556.64,594.253 1555.5,589.5C 1555.76,587.308 1556.76,585.641 1558.5,584.5 Z"/></g>
<g><path style="opacity:0.923" fill="#1d4872" d="M 1244.5,585.5 C 1251.53,585.17 1258.53,585.503 1265.5,586.5C 1264.34,587.95 1262.84,588.95 1261,589.5C 1260.33,595.833 1260.33,602.167 1261,608.5C 1266.69,602.314 1272.19,595.981 1277.5,589.5C 1275.85,588.852 1274.52,587.852 1273.5,586.5C 1279.17,585.167 1284.83,585.167 1290.5,586.5C 1287.92,587.999 1285.25,589.499 1282.5,591C 1278.69,595.649 1274.69,600.149 1270.5,604.5C 1274.67,610.833 1278.83,617.167 1283,623.5C 1285.23,626.68 1288.06,629.013 1291.5,630.5C 1286.2,631.663 1280.86,631.829 1275.5,631C 1270.79,623.747 1265.96,616.58 1261,609.5C 1260.33,615.5 1260.33,621.5 1261,627.5C 1262.84,628.05 1264.34,629.05 1265.5,630.5C 1258.86,631.664 1252.19,631.831 1245.5,631C 1244.17,630.333 1244.17,629.667 1245.5,629C 1247.1,628.727 1248.6,628.227 1250,627.5C 1250.67,614.833 1250.67,602.167 1250,589.5C 1248.6,588.773 1247.1,588.273 1245.5,588C 1244.75,587.329 1244.41,586.496 1244.5,585.5 Z"/></g>
<g><path style="opacity:0.89" fill="#1d4872" d="M 1418.5,585.5 C 1424.17,585.5 1429.83,585.5 1435.5,585.5C 1439.03,595.582 1442.86,605.582 1447,615.5C 1451.45,605.991 1455.62,596.324 1459.5,586.5C 1465.17,585.167 1470.83,585.167 1476.5,586.5C 1475.34,587.95 1473.84,588.95 1472,589.5C 1471.33,602.167 1471.33,614.833 1472,627.5C 1473.84,628.05 1475.34,629.05 1476.5,630.5C 1469.87,631.497 1463.2,631.83 1456.5,631.5C 1456.5,630.5 1456.5,629.5 1456.5,628.5C 1457.83,628.5 1459.17,628.5 1460.5,628.5C 1460.67,618.494 1460.5,608.494 1460,598.5C 1455.47,609.086 1451.14,619.753 1447,630.5C 1445.67,631.167 1444.33,631.833 1443,632.5C 1438.33,621.167 1433.67,609.833 1429,598.5C 1428.33,608.167 1428.33,617.833 1429,627.5C 1430.84,628.05 1432.34,629.05 1433.5,630.5C 1428.5,631.833 1423.5,631.833 1418.5,630.5C 1419.66,629.05 1421.16,628.05 1423,627.5C 1423.67,614.833 1423.67,602.167 1423,589.5C 1421.93,588.809 1420.77,588.309 1419.5,588C 1418.75,587.329 1418.41,586.496 1418.5,585.5 Z"/></g>
<g><path style="opacity:0.937" fill="#1d4872" d="M 1669.5,585.5 C 1681.17,585.5 1692.83,585.5 1704.5,585.5C 1703.83,589.5 1703.17,593.5 1702.5,597.5C 1701.5,597.5 1700.5,597.5 1699.5,597.5C 1699.38,594.52 1698.71,591.687 1697.5,589C 1693.51,588.501 1689.51,588.334 1685.5,588.5C 1685.5,594.833 1685.5,601.167 1685.5,607.5C 1688.19,607.664 1690.85,607.497 1693.5,607C 1694.23,605.601 1694.73,604.101 1695,602.5C 1696.01,601.663 1697.18,601.33 1698.5,601.5C 1698.5,606.5 1698.5,611.5 1698.5,616.5C 1697.18,616.67 1696.01,616.337 1695,615.5C 1694.73,613.899 1694.23,612.399 1693.5,611C 1690.85,610.503 1688.19,610.336 1685.5,610.5C 1685.17,616.206 1685.5,621.872 1686.5,627.5C 1688.57,627.953 1690.23,628.953 1691.5,630.5C 1688,630.833 1684.5,631.167 1681,631.5C 1676.99,631.634 1673.15,631.134 1669.5,630C 1671.22,628.943 1673.05,628.11 1675,627.5C 1675.67,614.833 1675.67,602.167 1675,589.5C 1673.6,588.773 1672.1,588.273 1670.5,588C 1669.75,587.329 1669.41,586.496 1669.5,585.5 Z"/></g>
<g><path style="opacity:1" fill="#436fb6" d="M 275.5,580.5 C 276.167,587.5 276.833,594.5 277.5,601.5C 273.167,604.669 268.5,607.336 263.5,609.5C 261.85,603.062 260.85,596.395 260.5,589.5C 264.995,585.749 269.995,582.749 275.5,580.5 Z"/></g>
<g><path style="opacity:1" fill="#9bcdee" d="M 157.5,585.5 C 159.163,604.645 160.163,623.978 160.5,643.5C 157.81,646.185 154.81,648.518 151.5,650.5C 150.833,631.5 150.167,612.5 149.5,593.5C 151.833,590.5 154.5,587.833 157.5,585.5 Z"/></g>
<g><path style="opacity:1" fill="#2263b0" d="M 260.5,589.5 C 260.85,596.395 261.85,603.062 263.5,609.5C 180.496,659.978 102.663,717.644 30,782.5C 26.6717,770.88 25.8383,759.214 27.5,747.5C 28.0717,750.244 29.7383,751.077 32.5,750C 41.5846,745.47 49.9179,739.97 57.5,733.5C 62.5687,730.305 67.2354,726.638 71.5,722.5C 75.8962,719.975 79.8962,716.975 83.5,713.5C 86.8103,711.518 89.8103,709.185 92.5,706.5C 95.4323,705.2 97.7656,703.2 99.5,700.5C 102.533,698.984 105.2,696.984 107.5,694.5C 110.473,692.853 113.14,690.853 115.5,688.5C 118.473,686.853 121.14,684.853 123.5,682.5C 167.269,648.736 212.935,617.736 260.5,589.5 Z"/></g>
<g><path style="opacity:0.895" fill="#1d4872" d="M 1303.5,600.5 C 1309.11,599.908 1314.44,600.741 1319.5,603C 1322.53,606.592 1323.86,610.758 1323.5,615.5C 1316.5,615.5 1309.5,615.5 1302.5,615.5C 1302.99,623.817 1307.49,627.817 1316,627.5C 1318.5,627.083 1321,626.749 1323.5,626.5C 1323.67,627.822 1323.34,628.989 1322.5,630C 1312.8,633.999 1303.63,633.165 1295,627.5C 1288.52,615.441 1291.35,606.441 1303.5,600.5 Z M 1307.5,603.5 C 1311.92,604.78 1313.59,607.78 1312.5,612.5C 1309.1,612.82 1305.77,612.487 1302.5,611.5C 1303.19,608.09 1304.86,605.423 1307.5,603.5 Z"/></g>
<g><path style="opacity:0.895" fill="#1d4872" d="M 1339.5,600.5 C 1345.11,599.908 1350.44,600.741 1355.5,603C 1358.53,606.592 1359.86,610.758 1359.5,615.5C 1352.5,615.5 1345.5,615.5 1338.5,615.5C 1338.99,623.817 1343.49,627.817 1352,627.5C 1354.5,627.083 1357,626.749 1359.5,626.5C 1359.67,627.822 1359.34,628.989 1358.5,630C 1348.8,633.999 1339.63,633.165 1331,627.5C 1324.52,615.441 1327.35,606.441 1339.5,600.5 Z M 1343.5,603.5 C 1347.92,604.78 1349.59,607.78 1348.5,612.5C 1345.1,612.82 1341.77,612.487 1338.5,611.5C 1339.19,608.09 1340.86,605.423 1343.5,603.5 Z"/></g>
<g><path style="opacity:0.881" fill="#1d4872" d="M 1372.5,600.5 C 1374.77,600.141 1376.6,600.808 1378,602.5C 1393.73,597.36 1401.06,603.027 1400,619.5C 1398.5,626.333 1394.33,630.5 1387.5,632C 1384.18,632.498 1380.85,632.665 1377.5,632.5C 1377.5,636.5 1377.5,640.5 1377.5,644.5C 1379.66,644.116 1381.33,644.783 1382.5,646.5C 1375.86,647.664 1369.19,647.831 1362.5,647C 1361.17,646.333 1361.17,645.667 1362.5,645C 1363.79,644.51 1365.13,644.343 1366.5,644.5C 1366.5,631.833 1366.5,619.167 1366.5,606.5C 1364.32,606.716 1362.65,605.883 1361.5,604C 1365.29,602.886 1368.96,601.72 1372.5,600.5 Z M 1379.5,605.5 C 1386.52,606.027 1389.86,609.861 1389.5,617C 1390,623.872 1387,628.039 1380.5,629.5C 1379.56,629.392 1378.72,629.059 1378,628.5C 1376.92,620.565 1377.42,612.898 1379.5,605.5 Z"/></g>
<g><path style="opacity:0.885" fill="#1d4872" d="M 1491.5,600.5 C 1511.25,598.402 1518.42,606.736 1513,625.5C 1506.89,632.092 1499.39,634.258 1490.5,632C 1481.92,628.342 1478.42,621.842 1480,612.5C 1482.02,606.65 1485.85,602.65 1491.5,600.5 Z M 1495.5,603.5 C 1498.1,603.549 1500.27,604.549 1502,606.5C 1505.39,613.762 1505.22,620.929 1501.5,628C 1498.28,630.045 1495.45,629.545 1493,626.5C 1489.06,618.121 1489.89,610.454 1495.5,603.5 Z"/></g>
<g><path style="opacity:0.893" fill="#1d4872" d="M 1562.5,600.5 C 1563.83,600.5 1565.17,600.5 1566.5,600.5C 1566.33,609.506 1566.5,618.506 1567,627.5C 1568.84,628.05 1570.34,629.05 1571.5,630.5C 1564.83,631.833 1558.17,631.833 1551.5,630.5C 1552.67,628.783 1554.34,628.116 1556.5,628.5C 1556.5,621.167 1556.5,613.833 1556.5,606.5C 1553.91,606.604 1551.58,605.937 1549.5,604.5C 1548.83,604.833 1548.17,605.167 1547.5,605.5C 1543.64,613.75 1539.97,622.084 1536.5,630.5C 1534.7,631.768 1532.7,632.435 1530.5,632.5C 1527.3,623.418 1523.8,614.418 1520,605.5C 1518.16,604.95 1516.66,603.95 1515.5,602.5C 1521.46,601.504 1527.46,601.171 1533.5,601.5C 1533.5,602.5 1533.5,603.5 1533.5,604.5C 1532.45,604.351 1531.45,604.517 1530.5,605C 1532.4,609.534 1534.4,614.034 1536.5,618.5C 1538.76,614.317 1540.76,609.984 1542.5,605.5C 1541.26,604.719 1540.26,603.719 1539.5,602.5C 1544.83,601.319 1550.16,601.319 1555.5,602.5C 1558.08,602.276 1560.41,601.609 1562.5,600.5 Z"/></g>
<g><path style="opacity:0.919" fill="#1d4872" d="M 1584.5,600.5 C 1585.83,600.5 1587.17,600.5 1588.5,600.5C 1588.35,601.552 1588.52,602.552 1589,603.5C 1593.78,600.637 1598.95,599.804 1604.5,601C 1606.67,601.833 1608.17,603.333 1609,605.5C 1609.33,612.833 1609.67,620.167 1610,627.5C 1611.84,628.05 1613.34,629.05 1614.5,630.5C 1608.17,631.833 1601.83,631.833 1595.5,630.5C 1596.32,628.889 1597.65,628.222 1599.5,628.5C 1599.67,621.825 1599.5,615.158 1599,608.5C 1595.98,605.371 1592.48,604.704 1588.5,606.5C 1588.33,613.508 1588.5,620.508 1589,627.5C 1590.84,628.05 1592.34,629.05 1593.5,630.5C 1586.83,631.833 1580.17,631.833 1573.5,630.5C 1574.67,628.783 1576.34,628.116 1578.5,628.5C 1578.5,621.167 1578.5,613.833 1578.5,606.5C 1577.13,606.657 1575.79,606.49 1574.5,606C 1573.55,605.282 1573.38,604.449 1574,603.5C 1577.66,602.76 1581.16,601.76 1584.5,600.5 Z"/></g>
<g><path style="opacity:0.888" fill="#1d4872" d="M 1626.5,600.5 C 1635.23,600.409 1643.89,601.076 1652.5,602.5C 1649.94,603.641 1647.27,604.474 1644.5,605C 1647.78,611.071 1646.78,616.404 1641.5,621C 1636.26,622.339 1630.93,622.839 1625.5,622.5C 1625.33,623.822 1625.66,624.989 1626.5,626C 1632.83,626.333 1639.17,626.667 1645.5,627C 1652.89,632.03 1653.22,637.697 1646.5,644C 1639.4,648.204 1631.74,649.537 1623.5,648C 1615.33,644.815 1614.33,639.982 1620.5,633.5C 1617.77,628.796 1618.43,624.462 1622.5,620.5C 1616.2,612.207 1617.53,605.54 1626.5,600.5 Z M 1631.5,603.5 C 1635.81,604.607 1637.48,607.44 1636.5,612C 1637.3,615.782 1635.97,618.282 1632.5,619.5C 1629.43,617.531 1628.1,614.698 1628.5,611C 1628.11,607.832 1629.11,605.332 1631.5,603.5 Z M 1625.5,633.5 C 1631.26,633.149 1636.93,633.649 1642.5,635C 1643.93,640.621 1641.59,643.954 1635.5,645C 1625.67,646.352 1622.33,642.519 1625.5,633.5 Z"/></g>
<g><path style="opacity:0.885" fill="#1d4872" d="M 1717.5,600.5 C 1737.25,598.402 1744.42,606.736 1739,625.5C 1732.89,632.092 1725.39,634.258 1716.5,632C 1707.92,628.342 1704.42,621.842 1706,612.5C 1708.02,606.65 1711.85,602.65 1717.5,600.5 Z M 1721.5,603.5 C 1724.1,603.549 1726.27,604.549 1728,606.5C 1731.39,613.762 1731.22,620.929 1727.5,628C 1724.28,630.045 1721.45,629.545 1719,626.5C 1715.06,618.121 1715.89,610.454 1721.5,603.5 Z"/></g>
<g><path style="opacity:0.881" fill="#1d4872" d="M 1755.5,600.5 C 1756.83,600.5 1758.17,600.5 1759.5,600.5C 1759.35,601.552 1759.52,602.552 1760,603.5C 1762.57,601.808 1765.41,600.808 1768.5,600.5C 1775.51,601.056 1782.51,601.723 1789.5,602.5C 1788.51,603.665 1787.51,604.832 1786.5,606C 1787.8,610.243 1789.3,614.41 1791,618.5C 1793.65,613.401 1795.81,608.068 1797.5,602.5C 1799.05,601.548 1800.71,601.215 1802.5,601.5C 1803.83,607.314 1805.66,612.981 1808,618.5C 1810.23,614.54 1812.06,610.373 1813.5,606C 1812.49,604.832 1811.49,603.665 1810.5,602.5C 1814.83,601.167 1819.17,601.167 1823.5,602.5C 1822.34,603.95 1820.84,604.95 1819,605.5C 1815.21,613.711 1811.71,622.045 1808.5,630.5C 1806.7,631.768 1804.7,632.435 1802.5,632.5C 1800.78,626.832 1798.94,621.165 1797,615.5C 1794.87,620.759 1793.03,626.092 1791.5,631.5C 1789.4,632.231 1787.4,632.231 1785.5,631.5C 1782.24,623.54 1779.07,615.54 1776,607.5C 1775.65,605.82 1774.65,604.82 1773,604.5C 1771.32,607.095 1769.82,609.762 1768.5,612.5C 1766.9,610.573 1765.56,608.406 1764.5,606C 1763.1,605.405 1761.77,605.572 1760.5,606.5C 1759.34,613.476 1759.17,620.476 1760,627.5C 1762.18,627.988 1764.01,628.988 1765.5,630.5C 1758.5,631.833 1751.5,631.833 1744.5,630.5C 1745.67,628.783 1747.34,628.116 1749.5,628.5C 1749.5,621.167 1749.5,613.833 1749.5,606.5C 1748.13,606.657 1746.79,606.49 1745.5,606C 1744.55,605.282 1744.38,604.449 1745,603.5C 1748.66,602.76 1752.16,601.76 1755.5,600.5 Z"/></g>
<g><path style="opacity:0.894" fill="#1d4872" d="M 1833.5,600.5 C 1837.85,600.334 1842.18,600.501 1846.5,601C 1848.94,601.774 1850.77,603.274 1852,605.5C 1852.33,612.833 1852.67,620.167 1853,627.5C 1854.31,628.772 1855.81,629.772 1857.5,630.5C 1852.63,633.138 1847.79,633.138 1843,630.5C 1836.46,633.714 1830.46,633.047 1825,628.5C 1822.63,624.001 1823.47,620.168 1827.5,617C 1832.28,614.968 1837.28,614.134 1842.5,614.5C 1842.41,606.434 1838.41,603.767 1830.5,606.5C 1828.71,606.304 1827.38,605.471 1826.5,604C 1828.93,602.787 1831.26,601.621 1833.5,600.5 Z M 1839.5,617.5 C 1840.5,617.5 1841.5,617.5 1842.5,617.5C 1842.66,620.518 1842.5,623.518 1842,626.5C 1836.43,628.219 1834.1,626.219 1835,620.5C 1836.41,619.219 1837.91,618.219 1839.5,617.5 Z"/></g>
<g><path style="opacity:0.901" fill="#1d4872" d="M 1869.5,600.5 C 1870.83,600.5 1872.17,600.5 1873.5,600.5C 1873.35,601.552 1873.52,602.552 1874,603.5C 1877.47,601.177 1881.31,600.177 1885.5,600.5C 1885.53,604.484 1884.86,608.317 1883.5,612C 1882.55,612.617 1881.72,612.451 1881,611.5C 1880.55,609.481 1879.72,607.648 1878.5,606C 1877.1,605.405 1875.77,605.572 1874.5,606.5C 1873.34,613.476 1873.17,620.476 1874,627.5C 1876.18,627.988 1878.01,628.988 1879.5,630.5C 1872.5,631.833 1865.5,631.833 1858.5,630.5C 1859.67,628.783 1861.34,628.116 1863.5,628.5C 1863.5,621.167 1863.5,613.833 1863.5,606.5C 1862.13,606.657 1860.79,606.49 1859.5,606C 1858.55,605.282 1858.38,604.449 1859,603.5C 1862.66,602.76 1866.16,601.76 1869.5,600.5 Z"/></g>
<g><path style="opacity:1" fill="#b1d7f2" d="M 149.5,593.5 C 150.167,612.5 150.833,631.5 151.5,650.5C 147.376,654.281 142.709,657.281 137.5,659.5C 136.668,642.338 136.168,625.005 136,607.5C 135.184,608.823 134.017,609.489 132.5,609.5C 137.557,603.441 143.224,598.107 149.5,593.5 Z"/></g>
<g><path style="opacity:1" fill="#c1dff5" d="M 137.5,659.5 C 135.151,661.341 132.485,662.674 129.5,663.5C 127.679,648.199 126.845,632.532 127,616.5C 126.184,617.823 125.017,618.489 123.5,618.5C 126.167,615.167 129.167,612.167 132.5,609.5C 134.017,609.489 135.184,608.823 136,607.5C 136.168,625.005 136.668,642.338 137.5,659.5 Z"/></g>
<g><path style="opacity:1" fill="#eff0f0" d="M 971.5,653.5 C 960.277,668.062 947.943,681.729 934.5,694.5C 934.5,690.833 934.5,687.167 934.5,683.5C 943.54,673.795 952.207,663.795 960.5,653.5C 980.271,632.055 996.937,608.389 1010.5,582.5C 1028.39,550.968 1038.22,516.968 1040,480.5C 1040.76,509.862 1035.76,538.196 1025,565.5C 1011.46,597.595 993.631,626.928 971.5,653.5 Z"/></g>
<g><path style="opacity:1" fill="#d5e9f8" d="M 129.5,663.5 C 123.615,666.798 117.282,669.131 110.5,670.5C 109.688,658.909 109.188,647.242 109,635.5C 108.617,636.056 108.117,636.389 107.5,636.5C 112.468,630.197 117.802,624.197 123.5,618.5C 125.017,618.489 126.184,617.823 127,616.5C 126.845,632.532 127.679,648.199 129.5,663.5 Z"/></g>
<g><path style="opacity:1" fill="#898b8e" d="M 297.5,658.5 C 296.509,665.313 296.175,672.313 296.5,679.5C 293.941,679.198 291.607,679.532 289.5,680.5C 287.525,663.606 289.192,646.939 294.5,630.5C 294.167,630.167 293.833,629.833 293.5,629.5C 280.139,637.511 266.806,645.511 253.5,653.5C 249.5,652.833 245.5,652.167 241.5,651.5C 262.857,637.061 285.023,623.728 308,611.5C 303.413,626.854 299.913,642.52 297.5,658.5 Z"/></g>
<g><path style="opacity:1" fill="#e7f2fb" d="M 110.5,670.5 C 107.214,671.207 103.881,671.54 100.5,671.5C 100.826,662.651 100.493,653.984 99.5,645.5C 101.43,641.9 104.097,638.9 107.5,636.5C 108.117,636.389 108.617,636.056 109,635.5C 109.188,647.242 109.688,658.909 110.5,670.5 Z"/></g>
<g><path style="opacity:1" fill="#ececed" d="M 901.5,653.5 C 886.745,666.592 871.411,678.926 855.5,690.5C 854.527,688.052 854.194,685.385 854.5,682.5C 866.862,673.65 878.862,664.317 890.5,654.5C 912.761,636.407 933.261,616.407 952,594.5C 968.955,574.272 982.622,551.938 993,527.5C 987.561,548.717 978.561,568.384 966,586.5C 946.37,610.63 924.87,632.963 901.5,653.5 Z"/></g>
<g><path style="opacity:1" fill="#848588" d="M 241.5,651.5 C 245.5,652.167 249.5,652.833 253.5,653.5C 246.833,657.833 240.167,662.167 233.5,666.5C 217.314,676.425 201.647,687.091 186.5,698.5C 183.023,697.677 179.356,697.177 175.5,697C 176.056,696.617 176.389,696.117 176.5,695.5C 197.294,679.599 218.96,664.932 241.5,651.5 Z"/></g>
<g><path style="opacity:0.975" fill="#858689" d="M 881.5,651.5 C 883.969,652.317 886.635,652.817 889.5,653C 890.056,653.383 890.389,653.883 890.5,654.5C 878.862,664.317 866.862,673.65 854.5,682.5C 843.502,690.001 832.168,697.001 820.5,703.5C 815.695,702.513 810.695,702.179 805.5,702.5C 831.901,687.101 857.234,670.101 881.5,651.5 Z"/></g>
<g><path style="opacity:1" fill="#848588" d="M 901.5,653.5 C 921.167,653.5 940.833,653.5 960.5,653.5C 952.207,663.795 943.54,673.795 934.5,683.5C 927.5,690.167 920.5,696.833 913.5,703.5C 889.339,702.502 865.006,702.169 840.5,702.5C 845.5,698.5 850.5,694.5 855.5,690.5C 871.411,678.926 886.745,666.592 901.5,653.5 Z"/></g>
<g><path style="opacity:1" fill="#848689" d="M 971.5,653.5 C 976.032,653.182 980.366,653.515 984.5,654.5C 977.907,663.605 971.074,672.605 964,681.5C 957.3,689.03 950.467,696.364 943.5,703.5C 938.695,702.513 933.695,702.179 928.5,702.5C 930.909,700.098 932.909,697.431 934.5,694.5C 947.943,681.729 960.277,668.062 971.5,653.5 Z"/></g>
<g><path style="opacity:1" fill="#989a9d" d="M 233.5,666.5 C 233.5,683.833 233.5,701.167 233.5,718.5C 215.56,705.142 196.227,702.976 175.5,712C 168.391,714.72 161.725,718.22 155.5,722.5C 154.707,721.645 155.04,720.811 156.5,720C 166.379,712.615 176.379,705.448 186.5,698.5C 201.647,687.091 217.314,676.425 233.5,666.5 Z"/></g>
<g><path style="opacity:1" fill="#deedfa" d="M 69.5,681.5 C 87.3256,682.497 105.326,682.83 123.5,682.5C 121.14,684.853 118.473,686.853 115.5,688.5C 98.4665,689.152 81.7998,688.485 65.5,686.5C 66.1237,684.246 67.457,682.579 69.5,681.5 Z"/></g>
<g><path style="opacity:1" fill="#cae3f6" d="M 65.5,686.5 C 81.7998,688.485 98.4665,689.152 115.5,688.5C 113.14,690.853 110.473,692.853 107.5,694.5C 91.6578,694.83 75.9911,694.496 60.5,693.5C 61.7859,690.883 63.4525,688.55 65.5,686.5 Z"/></g>
<g><path style="opacity:1" fill="#e4e5e5" d="M 934.5,683.5 C 934.5,687.167 934.5,690.833 934.5,694.5C 932.909,697.431 930.909,700.098 928.5,702.5C 914.141,715.861 899.807,729.195 885.5,742.5C 882.482,744.526 879.482,746.526 876.5,748.5C 876.5,744.833 876.5,741.167 876.5,737.5C 882.177,731.824 888.177,726.491 894.5,721.5C 901.066,715.722 907.4,709.722 913.5,703.5C 920.5,696.833 927.5,690.167 934.5,683.5 Z"/></g>
<g><path style="opacity:0.999" fill="#b5d8f3" d="M 60.5,693.5 C 75.9911,694.496 91.6578,694.83 107.5,694.5C 105.2,696.984 102.533,698.984 99.5,700.5C 84.7943,701.15 70.461,700.483 56.5,698.5C 57.604,696.611 58.9373,694.945 60.5,693.5 Z"/></g>
<g><path style="opacity:1" fill="#a0a2a5" d="M 289.5,680.5 C 290.392,695.405 294.392,709.405 301.5,722.5C 300.503,744.327 300.169,766.327 300.5,788.5C 289.366,781.931 279.366,773.931 270.5,764.5C 262.59,754.345 254.923,744.012 247.5,733.5C 243.511,727.845 238.844,722.845 233.5,718.5C 233.5,701.167 233.5,683.833 233.5,666.5C 240.167,662.167 246.833,657.833 253.5,653.5C 266.806,645.511 280.139,637.511 293.5,629.5C 293.833,629.833 294.167,630.167 294.5,630.5C 289.192,646.939 287.525,663.606 289.5,680.5 Z"/></g>
<g><path style="opacity:1" fill="#7e7f82" d="M 840.5,702.5 C 865.006,702.169 889.339,702.502 913.5,703.5C 907.4,709.722 901.066,715.722 894.5,721.5C 867.338,720.502 840.005,720.169 812.5,720.5C 821.825,714.503 831.159,708.503 840.5,702.5 Z"/></g>
<g><path style="opacity:1" fill="#a1d0ef" d="M 56.5,698.5 C 70.461,700.483 84.7943,701.15 99.5,700.5C 97.7656,703.2 95.4323,705.2 92.5,706.5C 78.6565,706.829 64.9898,706.496 51.5,705.5C 52.9336,702.953 54.6002,700.619 56.5,698.5 Z"/></g>
<g><path style="opacity:0.994" fill="#8cc6ec" d="M 51.5,705.5 C 64.9898,706.496 78.6565,706.829 92.5,706.5C 89.8103,709.185 86.8103,711.518 83.5,713.5C 71.2647,712.18 58.9313,712.18 46.5,713.5C 47.6693,710.489 49.336,707.822 51.5,705.5 Z"/></g>
<g><path style="opacity:1" fill="#72bde9" d="M 83.5,713.5 C 79.8962,716.975 75.8962,719.975 71.5,722.5C 61.6806,721.506 51.6806,721.173 41.5,721.5C 42.6693,718.489 44.336,715.822 46.5,713.5C 58.9313,712.18 71.2647,712.18 83.5,713.5 Z"/></g>
<g><path style="opacity:1" fill="#7b7c7f" d="M 176.5,695.5 C 176.389,696.117 176.056,696.617 175.5,697C 179.356,697.177 183.023,697.677 186.5,698.5C 176.379,705.448 166.379,712.615 156.5,720C 155.04,720.811 154.707,721.645 155.5,722.5C 161.725,718.22 168.391,714.72 175.5,712C 196.227,702.976 215.56,705.142 233.5,718.5C 238.844,722.845 243.511,727.845 247.5,733.5C 219.833,733.5 192.167,733.5 164.5,733.5C 165.82,730.86 167.153,728.193 168.5,725.5C 166.048,724.686 163.715,725.186 161.5,727C 150.339,735.333 139.339,743.833 128.5,752.5C 121.011,751.671 113.344,751.171 105.5,751C 106.381,750.292 107.047,749.458 107.5,748.5C 129.64,729.691 152.64,712.025 176.5,695.5 Z"/></g>
<g><path style="opacity:0.994" fill="#7c7d80" d="M 805.5,702.5 C 810.695,702.179 815.695,702.513 820.5,703.5C 804.116,712.692 787.45,721.359 770.5,729.5C 759.611,734.445 748.611,739.112 737.5,743.5C 730.687,742.509 723.687,742.175 716.5,742.5C 746.958,731.108 776.624,717.775 805.5,702.5 Z"/></g>
<g><path style="opacity:1" fill="#7a7b7e" d="M 812.5,720.5 C 840.005,720.169 867.338,720.502 894.5,721.5C 888.177,726.491 882.177,731.824 876.5,737.5C 869.833,742.5 863.167,747.5 856.5,752.5C 823.338,751.502 790.004,751.168 756.5,751.5C 761.167,748.833 765.833,746.167 770.5,743.5C 784.99,736.665 798.99,728.998 812.5,720.5 Z"/></g>
<g><path style="opacity:1" fill="#7c7d80" d="M 928.5,702.5 C 933.695,702.179 938.695,702.513 943.5,703.5C 931.132,718.202 917.465,731.536 902.5,743.5C 897.025,742.511 891.358,742.178 885.5,742.5C 899.807,729.195 914.141,715.861 928.5,702.5 Z"/></g>
<g><path style="opacity:1" fill="#dfe0e1" d="M 854.5,682.5 C 854.194,685.385 854.527,688.052 855.5,690.5C 850.5,694.5 845.5,698.5 840.5,702.5C 831.159,708.503 821.825,714.503 812.5,720.5C 798.99,728.998 784.99,736.665 770.5,743.5C 769.203,738.934 769.203,734.267 770.5,729.5C 787.45,721.359 804.116,712.692 820.5,703.5C 832.168,697.001 843.502,690.001 854.5,682.5 Z"/></g>
<g><path style="opacity:1" fill="#3cafe3" d="M 41.5,721.5 C 51.6806,721.173 61.6806,721.506 71.5,722.5C 67.2354,726.638 62.5687,730.305 57.5,733.5C 49.8333,733.5 42.1667,733.5 34.5,733.5C 36.0435,728.976 38.3768,724.976 41.5,721.5 Z"/></g>
<g><path style="opacity:1" fill="#16a3de" d="M 34.5,733.5 C 42.1667,733.5 49.8333,733.5 57.5,733.5C 49.9179,739.97 41.5846,745.47 32.5,750C 29.7383,751.077 28.0717,750.244 27.5,747.5C 28.7986,742.236 31.1319,737.569 34.5,733.5 Z"/></g>
<g><path style="opacity:1" fill="#7a7c7f" d="M 297.5,658.5 C 294.333,693.358 305.666,722.358 331.5,745.5C 328.167,746.167 324.833,746.833 321.5,747.5C 313.344,740.345 306.677,732.012 301.5,722.5C 294.392,709.405 290.392,695.405 289.5,680.5C 291.607,679.532 293.941,679.198 296.5,679.5C 296.175,672.313 296.509,665.313 297.5,658.5 Z"/></g>
<g><path style="opacity:1" fill="#a5a7aa" d="M 301.5,722.5 C 306.677,732.012 313.344,740.345 321.5,747.5C 323.833,749.167 325.833,751.167 327.5,753.5C 327.5,769.167 327.5,784.833 327.5,800.5C 326.833,800.5 326.167,800.5 325.5,800.5C 317.079,796.79 308.746,792.79 300.5,788.5C 300.169,766.327 300.503,744.327 301.5,722.5 Z"/></g>
<g><path style="opacity:1" fill="#757679" d="M 164.5,733.5 C 192.167,733.5 219.833,733.5 247.5,733.5C 254.923,744.012 262.59,754.345 270.5,764.5C 228.5,764.5 186.5,764.5 144.5,764.5C 150.931,753.96 157.598,743.627 164.5,733.5 Z"/></g>
<g><path style="opacity:1" fill="#d7d8d9" d="M 770.5,729.5 C 769.203,734.267 769.203,738.934 770.5,743.5C 765.833,746.167 761.167,748.833 756.5,751.5C 738.923,759.805 720.923,767.138 702.5,773.5C 702.211,767.409 702.545,761.409 703.5,755.5C 714.882,751.706 726.215,747.706 737.5,743.5C 748.611,739.112 759.611,734.445 770.5,729.5 Z"/></g>
<g><path style="opacity:1" fill="#737477" d="M 107.5,748.5 C 107.047,749.458 106.381,750.292 105.5,751C 113.344,751.171 121.011,751.671 128.5,752.5C 123.848,755.821 119.515,759.487 115.5,763.5C 106.752,769.216 98.7522,775.883 91.5,783.5C 91.1667,783.5 90.8333,783.5 90.5,783.5C 83.3448,782.671 76.0115,782.171 68.5,782C 69.7101,780.961 70.7101,779.794 71.5,778.5C 82.7521,767.549 94.7521,757.549 107.5,748.5 Z"/></g>
<g><path style="opacity:1" fill="#dbdcdd" d="M 876.5,737.5 C 876.5,741.167 876.5,744.833 876.5,748.5C 858.793,764.523 839.793,778.856 819.5,791.5C 818.517,787.702 818.183,783.702 818.5,779.5C 831.723,771.277 844.389,762.277 856.5,752.5C 863.167,747.5 869.833,742.5 876.5,737.5 Z"/></g>
<g><path style="opacity:1" fill="#aaacaf" d="M 327.5,753.5 C 350.505,769.914 375.838,780.914 403.5,786.5C 403.192,796.915 403.525,807.249 404.5,817.5C 377.895,815.515 352.228,809.848 327.5,800.5C 327.5,784.833 327.5,769.167 327.5,753.5 Z"/></g>
<g><path style="opacity:1" fill="#ededee" d="M 115.5,763.5 C 115.832,803.004 115.499,842.337 114.5,881.5C 109.5,878.833 104.5,876.167 99.5,873.5C 96.319,871.408 93.319,869.075 90.5,866.5C 91.4979,839.005 91.8313,811.338 91.5,783.5C 98.7522,775.883 106.752,769.216 115.5,763.5 Z"/></g>
<g><path style="opacity:1" fill="#cccdcf" d="M 703.5,755.5 C 702.545,761.409 702.211,767.409 702.5,773.5C 694.279,777.11 685.946,780.443 677.5,783.5C 656.517,789.943 635.517,795.943 614.5,801.5C 612.194,801.993 609.861,802.326 607.5,802.5C 606.5,802.5 605.5,802.5 604.5,802.5C 604.5,795.167 604.5,787.833 604.5,780.5C 638.035,774.2 671.035,765.866 703.5,755.5 Z"/></g>
<g><path style="opacity:1" fill="#727376" d="M 756.5,751.5 C 790.004,751.168 823.338,751.502 856.5,752.5C 844.389,762.277 831.723,771.277 818.5,779.5C 816.343,781.412 814.009,783.079 811.5,784.5C 767.003,783.501 722.336,783.168 677.5,783.5C 685.946,780.443 694.279,777.11 702.5,773.5C 720.923,767.138 738.923,759.805 756.5,751.5 Z"/></g>
<g><path style="opacity:1" fill="#6f7072" d="M 144.5,764.5 C 186.5,764.5 228.5,764.5 270.5,764.5C 279.366,773.931 289.366,781.931 300.5,788.5C 308.746,792.79 317.079,796.79 325.5,800.5C 258.833,800.5 192.167,800.5 125.5,800.5C 130.294,787.575 136.627,775.575 144.5,764.5 Z"/></g>
<g><path style="opacity:0.988" fill="#717275" d="M 716.5,742.5 C 723.687,742.175 730.687,742.509 737.5,743.5C 726.215,747.706 714.882,751.706 703.5,755.5C 671.035,765.866 638.035,774.2 604.5,780.5C 586.512,783.567 568.512,786.233 550.5,788.5C 519.887,791.146 489.221,792.813 458.5,793.5C 440.206,791.921 421.873,789.588 403.5,786.5C 375.838,780.914 350.505,769.914 327.5,753.5C 325.833,751.167 323.833,749.167 321.5,747.5C 324.833,746.833 328.167,746.167 331.5,745.5C 361.058,766.415 394.058,778.581 430.5,782C 528.397,787.562 623.731,774.396 716.5,742.5 Z"/></g>
<g><path style="opacity:1" fill="#727376" d="M 885.5,742.5 C 891.358,742.178 897.025,742.511 902.5,743.5C 883.304,762.033 862.638,778.7 840.5,793.5C 833.687,792.509 826.687,792.175 819.5,792.5C 819.5,792.167 819.5,791.833 819.5,791.5C 839.793,778.856 858.793,764.523 876.5,748.5C 879.482,746.526 882.482,744.526 885.5,742.5 Z"/></g>
<g><path style="opacity:1" fill="#c5c6c8" d="M 604.5,780.5 C 604.5,787.833 604.5,795.167 604.5,802.5C 605.5,802.5 606.5,802.5 607.5,802.5C 588.892,807.352 569.892,810.685 550.5,812.5C 550.5,804.5 550.5,796.5 550.5,788.5C 568.512,786.233 586.512,783.567 604.5,780.5 Z"/></g>
<g><path style="opacity:1" fill="#b1b3b6" d="M 403.5,786.5 C 421.873,789.588 440.206,791.921 458.5,793.5C 456.5,793.5 454.5,793.5 452.5,793.5C 452.5,802.167 452.5,810.833 452.5,819.5C 436.445,819.862 420.445,819.195 404.5,817.5C 403.525,807.249 403.192,796.915 403.5,786.5 Z"/></g>
<g><path style="opacity:1" fill="#6e6f71" d="M 677.5,783.5 C 722.336,783.168 767.003,783.501 811.5,784.5C 801.5,790.5 791.5,796.5 781.5,802.5C 726.002,801.501 670.336,801.168 614.5,801.5C 635.517,795.943 656.517,789.943 677.5,783.5 Z"/></g>
<g><path style="opacity:1" fill="#bbbdbf" d="M 550.5,788.5 C 550.5,796.5 550.5,804.5 550.5,812.5C 518.067,817.379 485.4,819.713 452.5,819.5C 452.5,810.833 452.5,802.167 452.5,793.5C 454.5,793.5 456.5,793.5 458.5,793.5C 489.221,792.813 519.887,791.146 550.5,788.5 Z"/></g>
<g><path style="opacity:1" fill="#f2f3f3" d="M 90.5,783.5 C 90.8333,783.5 91.1667,783.5 91.5,783.5C 91.8313,811.338 91.4979,839.005 90.5,866.5C 79.1204,860.381 69.6204,852.047 62,841.5C 60.8551,838.568 60.0218,835.568 59.5,832.5C 58.5418,824.913 60.0418,817.913 64,811.5C 71.2932,800.707 80.1265,791.374 90.5,783.5 Z"/></g>
<g><path style="opacity:1" fill="#d2d3d5" d="M 818.5,779.5 C 818.183,783.702 818.517,787.702 819.5,791.5C 819.5,791.833 819.5,792.167 819.5,792.5C 800.328,804.922 780.662,816.589 760.5,827.5C 760.5,823.167 760.5,818.833 760.5,814.5C 767.663,810.753 774.663,806.753 781.5,802.5C 791.5,796.5 801.5,790.5 811.5,784.5C 814.009,783.079 816.343,781.412 818.5,779.5 Z"/></g>
<g><path style="opacity:1" fill="#696a6c" d="M 125.5,800.5 C 192.167,800.5 258.833,800.5 325.5,800.5C 326.167,800.5 326.833,800.5 327.5,800.5C 352.228,809.848 377.895,815.515 404.5,817.5C 420.445,819.195 436.445,819.862 452.5,819.5C 485.4,819.713 518.067,817.379 550.5,812.5C 569.892,810.685 588.892,807.352 607.5,802.5C 609.861,802.326 612.194,801.993 614.5,801.5C 670.336,801.168 726.002,801.501 781.5,802.5C 774.663,806.753 767.663,810.753 760.5,814.5C 754.325,818.088 747.991,821.422 741.5,824.5C 534.334,823.5 327.001,823.167 119.5,823.5C 119.5,826.5 119.5,829.5 119.5,832.5C 118.268,821.319 120.268,810.652 125.5,800.5 Z"/></g>
<g><path style="opacity:1" fill="#6a6b6e" d="M 71.5,778.5 C 70.7101,779.794 69.7101,780.961 68.5,782C 76.0115,782.171 83.3448,782.671 90.5,783.5C 80.1265,791.374 71.2932,800.707 64,811.5C 60.0418,817.913 58.5418,824.913 59.5,832.5C 58.5233,829.713 58.19,826.713 58.5,823.5C 46.1622,823.667 33.8288,823.5 21.5,823C 22.3805,822.292 23.0472,821.458 23.5,820.5C 38.7417,805.56 54.7417,791.56 71.5,778.5 Z"/></g>
<g><path style="opacity:1" fill="#696a6c" d="M 819.5,792.5 C 826.687,792.175 833.687,792.509 840.5,793.5C 810.676,815.591 779.009,834.925 745.5,851.5C 736.014,850.506 726.348,850.173 716.5,850.5C 731.482,843.343 746.148,835.677 760.5,827.5C 780.662,816.589 800.328,804.922 819.5,792.5 Z"/></g>
<g><path style="opacity:1" fill="#636466" d="M 23.5,820.5 C 23.0472,821.458 22.3805,822.292 21.5,823C 33.8288,823.5 46.1622,823.667 58.5,823.5C 58.19,826.713 58.5233,829.713 59.5,832.5C 60.0218,835.568 60.8551,838.568 62,841.5C 69.6204,852.047 79.1204,860.381 90.5,866.5C 93.319,869.075 96.319,871.408 99.5,873.5C 89.8333,873.5 80.1667,873.5 70.5,873.5C 50.8119,859.983 33.4786,843.816 18.5,825C 19.3988,822.599 21.0655,821.099 23.5,820.5 Z"/></g>
<g><path style="opacity:1" fill="#666769" d="M 741.5,824.5 C 729.076,831.046 716.409,837.046 703.5,842.5C 510.001,841.5 316.334,841.167 122.5,841.5C 120.69,838.855 119.69,835.855 119.5,832.5C 119.5,829.5 119.5,826.5 119.5,823.5C 327.001,823.167 534.334,823.5 741.5,824.5 Z"/></g>
<g><path style="opacity:1" fill="#cacbcd" d="M 760.5,814.5 C 760.5,818.833 760.5,823.167 760.5,827.5C 746.148,835.677 731.482,843.343 716.5,850.5C 712.245,852.363 707.912,854.03 703.5,855.5C 702.517,851.702 702.183,847.702 702.5,843.5C 702.5,842.833 702.833,842.5 703.5,842.5C 716.409,837.046 729.076,831.046 741.5,824.5C 747.991,821.422 754.325,818.088 760.5,814.5 Z"/></g>
<g><path style="opacity:1" fill="#e1e2e2" d="M 164.5,733.5 C 157.598,743.627 150.931,753.96 144.5,764.5C 136.627,775.575 130.294,787.575 125.5,800.5C 120.268,810.652 118.268,821.319 119.5,832.5C 119.69,835.855 120.69,838.855 122.5,841.5C 124,845.173 126,848.506 128.5,851.5C 134.858,859.189 142.191,865.856 150.5,871.5C 150.5,880.5 150.5,889.5 150.5,898.5C 137.958,893.895 125.958,888.228 114.5,881.5C 115.499,842.337 115.832,803.004 115.5,763.5C 119.515,759.487 123.848,755.821 128.5,752.5C 139.339,743.833 150.339,735.333 161.5,727C 163.715,725.186 166.048,724.686 168.5,725.5C 167.153,728.193 165.82,730.86 164.5,733.5 Z"/></g>
<g><path style="opacity:1" fill="#636466" d="M 122.5,841.5 C 316.334,841.167 510.001,841.5 703.5,842.5C 702.833,842.5 702.5,842.833 702.5,843.5C 695.829,846.169 689.162,848.836 682.5,851.5C 497.833,850.167 313.167,850.167 128.5,851.5C 126,848.506 124,845.173 122.5,841.5 Z"/></g>
<g><path style="opacity:1" fill="#606062" d="M 682.5,851.5 C 671.579,856.029 660.579,860.363 649.5,864.5C 640.679,867.107 632.012,870.107 623.5,873.5C 466.833,872.167 310.167,872.167 153.5,873.5C 152.5,872.833 151.5,872.167 150.5,871.5C 142.191,865.856 134.858,859.189 128.5,851.5C 313.167,850.167 497.833,850.167 682.5,851.5 Z"/></g>
<g><path style="opacity:1" fill="#626264" d="M 716.5,850.5 C 726.348,850.173 736.014,850.506 745.5,851.5C 730.056,860.221 714.056,867.888 697.5,874.5C 697.611,873.883 697.944,873.383 698.5,873C 687.172,872.5 675.838,872.333 664.5,872.5C 677.748,867.417 690.748,861.75 703.5,855.5C 707.912,854.03 712.245,852.363 716.5,850.5 Z"/></g>
<g><path style="opacity:1" fill="#c2c3c5" d="M 702.5,843.5 C 702.183,847.702 702.517,851.702 703.5,855.5C 690.748,861.75 677.748,867.417 664.5,872.5C 659.574,874.364 654.574,876.031 649.5,877.5C 648.206,873.267 648.206,868.934 649.5,864.5C 660.579,860.363 671.579,856.029 682.5,851.5C 689.162,848.836 695.829,846.169 702.5,843.5 Z"/></g>
<g><path style="opacity:1" fill="#5c5d5f" d="M 153.5,873.5 C 310.167,872.167 466.833,872.167 623.5,873.5C 612.438,876.681 601.438,880.015 590.5,883.5C 450.5,882.167 310.5,882.167 170.5,883.5C 164.669,880.419 159.002,877.085 153.5,873.5 Z"/></g>
<g><path style="opacity:1" fill="#b9bbbd" d="M 649.5,864.5 C 648.206,868.934 648.206,873.267 649.5,877.5C 630.287,884.792 610.621,891.125 590.5,896.5C 590.5,892.167 590.5,887.833 590.5,883.5C 601.438,880.015 612.438,876.681 623.5,873.5C 632.012,870.107 640.679,867.107 649.5,864.5 Z"/></g>
<g><path style="opacity:0.999" fill="#5a5a5c" d="M 70.5,873.5 C 80.1667,873.5 89.8333,873.5 99.5,873.5C 104.5,876.167 109.5,878.833 114.5,881.5C 125.958,888.228 137.958,893.895 150.5,898.5C 150.5,898.833 150.5,899.167 150.5,899.5C 137.833,899.5 125.167,899.5 112.5,899.5C 97.4862,892.334 83.4862,883.667 70.5,873.5 Z"/></g>
<g><path style="opacity:1" fill="#59595b" d="M 170.5,883.5 C 310.5,882.167 450.5,882.167 590.5,883.5C 571.233,888.483 551.9,893.15 532.5,897.5C 527.752,898.249 523.085,899.249 518.5,900.5C 415.5,899.167 312.5,899.167 209.5,900.5C 203.689,898.425 198.022,896.092 192.5,893.5C 184.955,890.729 177.621,887.396 170.5,883.5 Z"/></g>
<g><path style="opacity:1" fill="#cbccce" d="M 150.5,871.5 C 151.5,872.167 152.5,872.833 153.5,873.5C 159.002,877.085 164.669,880.419 170.5,883.5C 177.621,887.396 184.955,890.729 192.5,893.5C 192.5,900.167 192.5,906.833 192.5,913.5C 178.301,909.434 164.301,904.767 150.5,899.5C 150.5,899.167 150.5,898.833 150.5,898.5C 150.5,889.5 150.5,880.5 150.5,871.5 Z"/></g>
<g><path style="opacity:1" fill="#b1b2b5" d="M 590.5,883.5 C 590.5,887.833 590.5,892.167 590.5,896.5C 571.949,902.585 552.949,907.252 533.5,910.5C 532.515,906.366 532.182,902.032 532.5,897.5C 551.9,893.15 571.233,888.483 590.5,883.5 Z"/></g>
<g><path style="opacity:1" fill="#555658" d="M 209.5,900.5 C 312.5,899.167 415.5,899.167 518.5,900.5C 504.507,902.833 490.507,905.166 476.5,907.5C 456.565,910.313 436.565,912.646 416.5,914.5C 387.224,916.871 357.89,918.038 328.5,918C 334.565,919.708 340.565,921.208 346.5,922.5C 328.326,922.17 310.326,922.503 292.5,923.5C 277.32,920.622 262.32,916.955 247.5,912.5C 234.653,908.871 221.986,904.871 209.5,900.5 Z"/></g>
<g><path style="opacity:1" fill="#bdbfc1" d="M 192.5,893.5 C 198.022,896.092 203.689,898.425 209.5,900.5C 221.986,904.871 234.653,908.871 247.5,912.5C 248.794,916.934 248.794,921.267 247.5,925.5C 228.677,923.207 210.344,919.207 192.5,913.5C 192.5,906.833 192.5,900.167 192.5,893.5 Z"/></g>
<g><path style="opacity:1" fill="#a8aaad" d="M 532.5,897.5 C 532.182,902.032 532.515,906.366 533.5,910.5C 514.157,915.217 494.49,918.884 474.5,921.5C 473.985,916.52 474.652,911.854 476.5,907.5C 490.507,905.166 504.507,902.833 518.5,900.5C 523.085,899.249 527.752,898.249 532.5,897.5 Z"/></g>
<g><path style="opacity:1" fill="#58585a" d="M 664.5,872.5 C 675.838,872.333 687.172,872.5 698.5,873C 697.944,873.383 697.611,873.883 697.5,874.5C 649.112,895.629 599.112,911.962 547.5,923.5C 522.005,922.502 496.339,922.169 470.5,922.5C 471.568,921.566 472.901,921.232 474.5,921.5C 494.49,918.884 514.157,915.217 533.5,910.5C 552.949,907.252 571.949,902.585 590.5,896.5C 610.621,891.125 630.287,884.792 649.5,877.5C 654.574,876.031 659.574,874.364 664.5,872.5 Z"/></g>
<g><path style="opacity:1" fill="#a1a3a6" d="M 476.5,907.5 C 474.652,911.854 473.985,916.52 474.5,921.5C 472.901,921.232 471.568,921.566 470.5,922.5C 452.557,924.448 434.557,925.448 416.5,925.5C 416.5,921.833 416.5,918.167 416.5,914.5C 436.565,912.646 456.565,910.313 476.5,907.5 Z"/></g>
<g><path style="opacity:1" fill="#abadb0" d="M 247.5,912.5 C 262.32,916.955 277.32,920.622 292.5,923.5C 298.461,924.716 304.461,925.716 310.5,926.5C 311.234,927.708 311.567,929.041 311.5,930.5C 305.833,930.5 300.167,930.5 294.5,930.5C 278.627,929.547 262.961,927.88 247.5,925.5C 248.794,921.267 248.794,916.934 247.5,912.5 Z"/></g>
<g><path style="opacity:1" fill="#97999c" d="M 416.5,914.5 C 416.5,918.167 416.5,921.833 416.5,925.5C 393.089,926.027 369.755,925.027 346.5,922.5C 340.565,921.208 334.565,919.708 328.5,918C 357.89,918.038 387.224,916.871 416.5,914.5 Z"/></g>
<g><path style="opacity:1" fill="#525355" d="M 112.5,899.5 C 125.167,899.5 137.833,899.5 150.5,899.5C 164.301,904.767 178.301,909.434 192.5,913.5C 210.344,919.207 228.677,923.207 247.5,925.5C 262.961,927.88 278.627,929.547 294.5,930.5C 294.5,930.833 294.5,931.167 294.5,931.5C 262.329,931.168 230.329,931.502 198.5,932.5C 168.394,925.024 139.727,914.024 112.5,899.5 Z"/></g>
<g><path style="opacity:1" fill="#929497" d="M 310.5,926.5 C 323.717,928.808 337.051,930.308 350.5,931C 331.836,931.5 313.17,931.667 294.5,931.5C 294.5,931.167 294.5,930.833 294.5,930.5C 300.167,930.5 305.833,930.5 311.5,930.5C 311.567,929.041 311.234,927.708 310.5,926.5 Z"/></g>
<g><path style="opacity:1" fill="#4f4f51" d="M 292.5,923.5 C 310.326,922.503 328.326,922.17 346.5,922.5C 369.755,925.027 393.089,926.027 416.5,925.5C 434.557,925.448 452.557,924.448 470.5,922.5C 496.339,922.169 522.005,922.502 547.5,923.5C 457.42,944.673 366.086,952.173 273.5,946C 248.069,943.651 223.069,939.151 198.5,932.5C 230.329,931.502 262.329,931.168 294.5,931.5C 313.17,931.667 331.836,931.5 350.5,931C 337.051,930.308 323.717,928.808 310.5,926.5C 304.461,925.716 298.461,924.716 292.5,923.5 Z"/></g>
</svg>
